<svg width="169" height="101" viewBox="0 0 169 101" fill="none" xmlns="http://www.w3.org/2000/svg">
<ellipse cx="84.11" cy="71.9009" rx="84.11" ry="28.4891" fill="url(#paint0_radial)"/>
<path d="M133.885 52.4459C133.878 52.6451 133.864 52.8515 133.843 53.0508C133.843 53.0792 133.836 53.1148 133.836 53.1433C133.807 53.371 133.772 53.5916 133.722 53.8193C133.708 53.8762 133.7 53.9332 133.686 53.9901C133.644 54.168 133.601 54.3388 133.551 54.5167C133.537 54.5594 133.53 54.6092 133.515 54.6519C133.451 54.8654 133.38 55.0717 133.295 55.2852C133.274 55.335 133.252 55.3849 133.238 55.4347C133.174 55.5983 133.103 55.762 133.024 55.9257C132.996 55.9826 132.975 56.0395 132.946 56.0965C132.847 56.3028 132.74 56.5092 132.626 56.7085C132.619 56.7156 132.612 56.7298 132.612 56.7369C132.498 56.9291 132.377 57.1283 132.256 57.3205C132.22 57.3774 132.178 57.4343 132.142 57.4912C132.028 57.6549 131.914 57.8186 131.793 57.9823C131.765 58.0249 131.736 58.0605 131.708 58.1032C131.559 58.3025 131.395 58.5017 131.231 58.701C131.188 58.7508 131.146 58.7935 131.11 58.8433C130.968 59.007 130.826 59.1635 130.676 59.3272C130.633 59.377 130.591 59.4197 130.541 59.4695C130.349 59.6688 130.15 59.8751 129.936 60.0744C129.893 60.1171 129.851 60.1527 129.808 60.1954C129.623 60.3662 129.438 60.5369 129.239 60.7077C129.189 60.7504 129.146 60.7931 129.096 60.8287C128.854 61.0351 128.598 61.2414 128.335 61.4478C128.278 61.4905 128.228 61.5332 128.171 61.5759C127.901 61.7823 127.623 61.9886 127.339 62.195L127.332 62.2021C127.31 62.2164 127.296 62.2306 127.275 62.2377C127.104 62.3587 126.926 62.4797 126.748 62.6006C126.677 62.6433 126.613 62.6931 126.542 62.7358C126.406 62.8212 126.278 62.9066 126.143 62.9991C126.058 63.0489 125.98 63.1059 125.894 63.1557C125.766 63.234 125.645 63.3122 125.517 63.3905C125.424 63.4475 125.339 63.4973 125.247 63.5542C125.126 63.6254 125.005 63.6965 124.884 63.7677C124.748 63.846 124.606 63.9242 124.464 64.0025C124.357 64.0594 124.257 64.1164 124.151 64.1733C124.001 64.2516 123.852 64.337 123.695 64.4152C123.596 64.4722 123.496 64.522 123.389 64.5789C123.226 64.6643 123.055 64.7497 122.884 64.8351C122.791 64.8778 122.706 64.9276 122.614 64.9703C122.379 65.0842 122.144 65.198 121.909 65.3119C121.874 65.3261 121.845 65.3403 121.809 65.3617C121.439 65.5396 121.055 65.7104 120.671 65.8741C120.586 65.9096 120.507 65.9452 120.422 65.9808C120.045 66.1445 119.653 66.3081 119.262 66.4647C119.198 66.4932 119.134 66.5145 119.063 66.543C118.7 66.6924 118.33 66.8347 117.953 66.9771C117.889 67.0055 117.817 67.0269 117.753 67.0553C117.341 67.2048 116.928 67.3542 116.501 67.5037C116.415 67.5321 116.323 67.5606 116.238 67.5962C115.775 67.7527 115.305 67.9093 114.821 68.0658C114.772 68.0801 114.715 68.1014 114.665 68.1156C114.195 68.2651 113.711 68.4074 113.227 68.5497C113.178 68.564 113.128 68.5782 113.078 68.5924C112.58 68.7347 112.075 68.8771 111.569 69.0123C111.477 69.0336 111.384 69.0621 111.292 69.0834C110.787 69.2186 110.281 69.3467 109.769 69.4677C109.677 69.4891 109.584 69.5104 109.492 69.5318C108.958 69.6598 108.424 69.7879 107.876 69.9018C107.841 69.9089 107.798 69.916 107.762 69.9231C107.229 70.037 106.681 70.1509 106.133 70.2647C106.062 70.2789 105.99 70.2932 105.919 70.3074C105.371 70.4142 104.816 70.5209 104.254 70.6205C104.147 70.6419 104.048 70.6561 103.941 70.6775C103.386 70.7771 102.824 70.8696 102.254 70.9621C102.148 70.9763 102.041 70.9977 101.934 71.0119C101.521 71.076 101.102 71.14 100.675 71.1969C100.568 71.2112 100.461 71.2254 100.354 71.2396C99.8563 71.3108 99.3511 71.3748 98.8458 71.4389C98.7391 71.4531 98.6323 71.4673 98.5185 71.4816C98.0915 71.5314 97.6574 71.5812 97.2234 71.631C97.1095 71.6453 96.9885 71.6595 96.8747 71.6666C96.3623 71.7235 95.8428 71.7733 95.3234 71.8232C95.2451 71.8303 95.1668 71.8374 95.0885 71.8445C94.3627 71.9085 93.6368 71.9726 92.9039 72.0224C92.8398 72.0295 92.7687 72.0295 92.7046 72.0366C91.9646 72.0865 91.2174 72.1363 90.4631 72.1718C90.3919 72.179 90.3207 72.179 90.2425 72.179C89.659 72.2074 89.0825 72.2288 88.4919 72.2501C88.4065 72.2501 88.3211 72.2572 88.2286 72.2572C87.6166 72.2786 86.9975 72.2928 86.3855 72.2999C86.2503 72.2999 86.1222 72.3071 85.987 72.3071C85.4178 72.3142 84.8414 72.3213 84.2649 72.3213C83.6814 72.3213 83.105 72.3142 82.5215 72.3071C82.3792 72.3071 82.2369 72.2999 82.0945 72.2999C81.5751 72.2928 81.0556 72.2786 80.5361 72.2644C80.5148 72.2644 80.4863 72.2644 80.465 72.2644C79.9241 72.2501 79.3904 72.2288 78.8567 72.2003C78.7144 72.1932 78.5721 72.1861 78.4298 72.179C78.0099 72.1576 77.5829 72.1363 77.1631 72.1149C77.0563 72.1078 76.9496 72.1007 76.8429 72.0936C76.3305 72.0651 75.8253 72.0295 75.3129 71.9868C75.1919 71.9797 75.071 71.9655 74.95 71.9584C74.5515 71.9299 74.153 71.8943 73.7545 71.8587C73.6122 71.8445 73.477 71.8374 73.3346 71.8232C72.8365 71.7805 72.3384 71.7306 71.8474 71.6808C71.8402 71.6808 71.826 71.6808 71.8189 71.6808C71.3279 71.631 70.844 71.5741 70.3672 71.5172C70.232 71.5029 70.0968 71.4816 69.9545 71.4673C69.556 71.4175 69.1575 71.3677 68.759 71.3179C68.6594 71.3037 68.5668 71.2894 68.4672 71.2823C67.9762 71.2183 67.4852 71.1471 66.9942 71.0688C66.8803 71.0546 66.7665 71.0333 66.6526 71.019C66.247 70.955 65.8485 70.8909 65.45 70.8269C65.3433 70.8055 65.2365 70.7913 65.1298 70.7771C64.6316 70.6917 64.1335 70.6063 63.6425 70.5138C63.5358 70.4924 63.4361 70.4711 63.3294 70.4569C62.8882 70.3715 62.4541 70.2861 62.0271 70.2007C61.9489 70.1864 61.8706 70.1722 61.7994 70.1509C61.2728 70.0441 60.7534 69.9303 60.241 69.8164C60.1343 69.7951 60.0346 69.7666 59.9279 69.7452C59.4155 69.6314 58.9103 69.5104 58.4122 69.3823C58.3481 69.3681 58.2841 69.3538 58.2272 69.3325C57.6223 69.1831 57.0316 69.0265 56.4481 68.8628C56.4054 68.8486 56.3627 68.8415 56.32 68.8273C55.7223 68.6636 55.1317 68.4928 54.5481 68.3149C54.4983 68.3007 54.4414 68.2793 54.3916 68.2651C54.0856 68.1726 53.7867 68.0801 53.4878 67.9804C53.374 67.9449 53.253 67.9022 53.1391 67.8666C52.9043 67.7883 52.6695 67.71 52.4418 67.6317C52.3137 67.589 52.1927 67.5463 52.0717 67.5037C51.844 67.4254 51.6163 67.34 51.3886 67.2617C51.2747 67.219 51.1609 67.1834 51.0541 67.1407C50.7766 67.0411 50.5062 66.9344 50.2358 66.8347C50.1788 66.8134 50.1219 66.792 50.065 66.7707C49.8657 66.6924 49.6665 66.6141 49.4672 66.5359C49.3747 66.5003 49.2822 66.4647 49.1968 66.4291C48.9122 66.3153 48.6275 66.1943 48.35 66.0804C48.3002 66.0591 48.2433 66.0377 48.1935 66.0093C47.9657 65.9096 47.7451 65.8171 47.5245 65.7175C47.4249 65.6748 47.3253 65.625 47.2328 65.5823C47.062 65.504 46.8912 65.4257 46.7204 65.3475C46.6137 65.2976 46.5069 65.2478 46.4002 65.1909C46.2436 65.1197 46.0942 65.0415 45.9377 64.9703C45.8238 64.9134 45.7171 64.8564 45.6103 64.8066C45.468 64.7355 45.3257 64.6643 45.1833 64.586C45.0695 64.5291 44.9627 64.4722 44.856 64.4152C44.7208 64.3441 44.5856 64.2729 44.4504 64.1946C44.3436 64.1377 44.2298 64.0737 44.1231 64.0096C43.995 63.9385 43.8669 63.8673 43.7388 63.789C43.632 63.725 43.5253 63.6609 43.4186 63.5969C43.2976 63.5257 43.1695 63.4546 43.0485 63.3763C42.9418 63.3122 42.8422 63.2482 42.7354 63.1842C42.6144 63.113 42.5006 63.0347 42.3867 62.9636C42.2871 62.8995 42.1804 62.8283 42.0807 62.7643C41.9669 62.6931 41.853 62.6149 41.7463 62.5437C41.6466 62.4797 41.5541 62.4085 41.4545 62.3444C41.3478 62.2662 41.2339 62.195 41.1272 62.1167C41.0204 62.0456 40.9279 61.9815 40.8354 61.9104C40.7287 61.8321 40.629 61.7538 40.5223 61.6826C40.4298 61.6115 40.3444 61.5474 40.2519 61.4763C40.1523 61.398 40.0526 61.3197 39.9601 61.2414C39.8747 61.1703 39.7893 61.0991 39.704 61.028C39.6114 60.9497 39.5189 60.8714 39.4264 60.7931C39.341 60.722 39.2628 60.6508 39.1774 60.5796C39.0849 60.5014 38.9995 60.4231 38.9141 60.3448C38.8358 60.2737 38.7575 60.2025 38.6792 60.1242C38.5938 60.0459 38.5084 59.9605 38.4302 59.8823C38.3519 59.8111 38.2807 59.7328 38.2096 59.6617C38.1313 59.5834 38.053 59.498 37.9747 59.4197C37.9036 59.3485 37.8324 59.2703 37.7684 59.1991C37.683 59.1066 37.6047 59.0283 37.5335 58.9429C37.4695 58.8647 37.4055 58.7935 37.3414 58.7152C37.2702 58.6298 37.1991 58.5515 37.135 58.4662C37.071 58.3879 37.0141 58.3167 36.95 58.2384C36.886 58.153 36.8219 58.0748 36.7579 57.9894C36.701 57.9111 36.644 57.8399 36.5871 57.7616C36.5231 57.6763 36.4661 57.5909 36.4092 57.5055C36.3594 57.4272 36.3025 57.3489 36.2526 57.2778C36.1957 57.1924 36.1459 57.107 36.089 57.0145C36.0392 56.9362 35.9965 56.8579 35.9467 56.7796C35.8968 56.6942 35.847 56.6017 35.7972 56.5163C35.7545 56.438 35.7118 56.3598 35.6691 56.2815C35.6264 56.189 35.5837 56.1036 35.541 56.0111C35.5055 55.9328 35.4628 55.8545 35.4343 55.7762C35.3916 55.6837 35.356 55.5912 35.3204 55.5058C35.2849 55.4276 35.2564 55.3493 35.2279 55.271C35.1923 55.1785 35.1639 55.086 35.1283 54.9935C35.0998 54.9152 35.0714 54.8369 35.05 54.7586C35.0216 54.6661 34.9931 54.5665 34.9646 54.474C34.9433 54.3957 34.9219 54.3246 34.9006 54.2463C34.8721 54.1467 34.8579 54.047 34.8365 53.9474C34.8223 53.8762 34.801 53.798 34.7867 53.7268C34.7654 53.6201 34.7512 53.5204 34.7369 53.4137C34.7227 53.3425 34.7156 53.2714 34.7013 53.2073C34.6942 53.0792 34.6871 52.9654 34.6729 52.8515C34.6658 52.7946 34.6586 52.7305 34.6586 52.6736C34.6444 52.4957 34.6444 52.3178 34.6444 52.147V64.6145C34.6444 64.7924 34.6515 64.9703 34.6586 65.1411C34.6658 65.198 34.6729 65.2621 34.6729 65.319C34.68 65.4329 34.6942 65.5538 34.7085 65.6677C34.7156 65.7388 34.7298 65.81 34.744 65.8741C34.7583 65.9808 34.7725 66.0804 34.7938 66.1872C34.8081 66.2583 34.8294 66.3366 34.8437 66.4078C34.865 66.5074 34.8864 66.607 34.9077 66.7066C34.9291 66.7849 34.9504 66.8561 34.9717 66.9344C35.0002 67.0269 35.0216 67.1265 35.0571 67.219C35.0785 67.2973 35.107 67.3756 35.1354 67.4538C35.171 67.5463 35.1995 67.6389 35.235 67.7314C35.2635 67.8096 35.2991 67.8879 35.3276 67.9662C35.3631 68.0587 35.3987 68.1512 35.4414 68.2366C35.477 68.3149 35.5126 68.3932 35.5482 68.4714C35.5908 68.564 35.6335 68.6493 35.6762 68.7419C35.7189 68.8201 35.7616 68.8984 35.8043 68.9767C35.8541 69.0621 35.8968 69.1546 35.9538 69.24C35.9965 69.3183 36.0463 69.3965 36.0961 69.4748C36.1459 69.5602 36.2028 69.6527 36.2598 69.7381C36.3096 69.8164 36.3594 69.8947 36.4163 69.9658C36.4732 70.0512 36.5302 70.1366 36.5942 70.222C36.6511 70.3003 36.7081 70.3786 36.765 70.4497C36.8291 70.5351 36.8931 70.6205 36.9571 70.7059C37.0141 70.7842 37.0781 70.8554 37.1422 70.9336C37.2133 71.019 37.2774 71.1044 37.3485 71.1827C37.4126 71.261 37.4766 71.3321 37.5407 71.4104C37.6118 71.4958 37.6901 71.5741 37.7613 71.6595C37.8324 71.7306 37.8965 71.8089 37.9676 71.8801C38.0459 71.9584 38.1242 72.0438 38.2025 72.122C38.2736 72.1932 38.3519 72.2715 38.4231 72.3426C38.5084 72.4209 38.5867 72.5063 38.6721 72.5846C38.7504 72.6557 38.8287 72.7269 38.907 72.8052C38.9923 72.8835 39.0849 72.9617 39.1702 73.04C39.2485 73.1112 39.3339 73.1823 39.4193 73.2535C39.5118 73.3318 39.6043 73.41 39.6968 73.4883C39.7822 73.5595 39.8676 73.6307 39.953 73.7018C40.0526 73.7801 40.1452 73.8584 40.2448 73.9366C40.3373 74.0078 40.4227 74.079 40.5152 74.143C40.6148 74.2213 40.7216 74.2996 40.8283 74.3707C40.9208 74.4419 41.0133 74.5059 41.1058 74.5771C41.2126 74.6554 41.3193 74.7265 41.4332 74.8048C41.5328 74.8689 41.6253 74.94 41.7249 75.0041C41.8388 75.0823 41.9455 75.1535 42.0594 75.2247C42.159 75.2887 42.2586 75.3599 42.3654 75.4239C42.4792 75.4951 42.6002 75.5734 42.7141 75.6445C42.8208 75.7086 42.9204 75.7726 43.0272 75.8367C43.1481 75.9078 43.2691 75.979 43.3972 76.0573C43.5039 76.1213 43.6107 76.1854 43.7174 76.2494C43.8455 76.3206 43.9736 76.3917 44.1017 76.47C44.2084 76.534 44.3152 76.591 44.429 76.655C44.5642 76.7262 44.6995 76.7973 44.8347 76.8756C44.9414 76.9325 45.0553 76.9895 45.162 77.0464C45.3043 77.1176 45.4466 77.1887 45.589 77.267C45.6957 77.3239 45.8096 77.3809 45.9163 77.4307C46.0657 77.5089 46.2223 77.5801 46.3789 77.6513C46.4856 77.7011 46.5923 77.758 46.6991 77.8078C46.8699 77.8861 47.0406 77.9644 47.2114 78.0427C47.3111 78.0854 47.4036 78.1352 47.5032 78.1779C47.7238 78.2775 47.9444 78.37 48.1721 78.4696C48.2219 78.491 48.2788 78.5123 48.3287 78.5408C48.6062 78.6618 48.8908 78.7756 49.1755 78.8895C49.268 78.9251 49.3534 78.9606 49.4459 78.9962C49.6451 79.0745 49.8444 79.1528 50.0436 79.2311C50.0508 79.2311 50.0579 79.2382 50.065 79.2382C50.1148 79.2595 50.1575 79.2738 50.2073 79.2951C50.4777 79.4018 50.7481 79.5015 51.0257 79.6011C51.1395 79.6438 51.2534 79.6794 51.3601 79.7221C51.5878 79.8004 51.8155 79.8857 52.0433 79.964C52.1642 80.0067 52.2923 80.0494 52.4133 80.0921C52.6481 80.1704 52.8758 80.2487 53.1107 80.3269C53.2245 80.3625 53.3455 80.4052 53.4594 80.4408C53.7582 80.5333 54.0571 80.6329 54.3631 80.7255C54.4129 80.7397 54.4556 80.7539 54.5054 80.7681C54.5126 80.7681 54.5197 80.7681 54.5197 80.7753C55.1032 80.9532 55.6938 81.124 56.2916 81.2876C56.3343 81.3019 56.377 81.309 56.4197 81.3232C57.0032 81.4869 57.6009 81.6434 58.1987 81.7929C58.2414 81.8 58.277 81.8142 58.3197 81.8213C58.341 81.8285 58.3695 81.8356 58.3908 81.8356C58.889 81.9565 59.3942 82.0775 59.9066 82.1985C60.0133 82.2198 60.1129 82.2483 60.2197 82.2697C60.732 82.3835 61.2515 82.4974 61.7781 82.6041C61.7994 82.6112 61.8208 82.6112 61.8421 82.6183C61.8991 82.6326 61.956 82.6397 62.0129 82.6539C62.447 82.7393 62.8811 82.8247 63.3152 82.9101C63.4219 82.9315 63.5215 82.9528 63.6283 82.967C64.1193 83.0595 64.6174 83.1449 65.1155 83.2303C65.1511 83.2374 65.1867 83.2446 65.2152 83.2517C65.2863 83.2659 65.3646 83.273 65.4358 83.2873C65.8343 83.3513 66.2399 83.4153 66.6384 83.4794C66.7522 83.4936 66.8661 83.515 66.98 83.5292C67.471 83.6004 67.9549 83.6715 68.453 83.7427C68.4814 83.7427 68.5028 83.7498 68.5313 83.7569C68.6024 83.764 68.6736 83.7783 68.7447 83.7854C69.1432 83.8352 69.5417 83.8921 69.9403 83.9348C70.0755 83.9491 70.2107 83.9704 70.353 83.9846C70.8369 84.0416 71.3208 84.0985 71.8047 84.1483C71.8118 84.1483 71.826 84.1483 71.8331 84.1483C71.8331 84.1483 71.8331 84.1483 71.8402 84.1483C72.3313 84.1981 72.8294 84.2479 73.3275 84.2906C73.4698 84.3049 73.605 84.312 73.7474 84.3262C74.1459 84.3618 74.5444 84.3903 74.9429 84.4258C75.0283 84.433 75.1065 84.4401 75.1919 84.4472C75.2275 84.4472 75.2631 84.4543 75.2987 84.4543C75.8039 84.4899 76.3163 84.5255 76.8286 84.5611C76.9354 84.5682 77.0421 84.5753 77.1489 84.5824C77.5687 84.6037 77.9886 84.6322 78.4155 84.6464C78.4938 84.6536 78.5792 84.6536 78.6575 84.6607C78.7215 84.6607 78.7856 84.6678 78.8425 84.6678C79.3762 84.6891 79.917 84.7105 80.4507 84.7318C80.4721 84.7318 80.5005 84.7318 80.5219 84.7318C81.0414 84.7461 81.5608 84.7603 82.0803 84.7674C82.1515 84.7674 82.2226 84.7745 82.2938 84.7745C82.365 84.7745 82.4361 84.7745 82.5073 84.7745C83.0837 84.7817 83.6672 84.7888 84.2507 84.7888C84.8271 84.7888 85.4035 84.7817 85.9728 84.7745C86.044 84.7745 86.1151 84.7745 86.1863 84.7745C86.2503 84.7745 86.3073 84.7745 86.3713 84.7674C86.9904 84.7603 87.6024 84.739 88.2144 84.7247C88.2998 84.7247 88.3852 84.7176 88.4777 84.7176C89.0612 84.6963 89.6447 84.6749 90.2282 84.6464C90.2781 84.6464 90.335 84.6393 90.3919 84.6393C90.4133 84.6393 90.4275 84.6393 90.4488 84.6393C91.2031 84.6037 91.9503 84.5539 92.6904 84.5041C92.7545 84.497 92.8256 84.497 92.8897 84.4899C93.6226 84.4401 94.3556 84.376 95.0743 84.312C95.1241 84.3049 95.1668 84.3049 95.2166 84.2978C95.2451 84.2978 95.2807 84.2906 95.3091 84.2906C95.8286 84.2408 96.3481 84.191 96.8604 84.1341C96.9743 84.1199 97.0953 84.1056 97.2091 84.0985C97.6432 84.0487 98.0773 83.9989 98.5043 83.9491C98.611 83.9348 98.7177 83.9206 98.8316 83.9064C99.3368 83.8423 99.8421 83.7783 100.34 83.7071C100.447 83.6929 100.554 83.6786 100.66 83.6644C101.08 83.6075 101.5 83.5434 101.92 83.4794C101.991 83.4652 102.062 83.458 102.133 83.4438C102.169 83.4367 102.205 83.4296 102.233 83.4296C102.802 83.3371 103.365 83.2446 103.92 83.1449C104.026 83.1236 104.126 83.1094 104.233 83.088C104.795 82.9884 105.35 82.8816 105.898 82.7749C105.969 82.7607 106.04 82.7464 106.111 82.7322C106.659 82.6255 107.2 82.5116 107.741 82.3906C107.777 82.3835 107.819 82.3764 107.855 82.3693C108.403 82.2483 108.936 82.1273 109.47 81.9992C109.563 81.9779 109.655 81.9565 109.748 81.9352C110.26 81.8071 110.772 81.679 111.271 81.5509C111.363 81.5296 111.456 81.5011 111.548 81.4798C112.06 81.3446 112.566 81.2022 113.057 81.0599C113.106 81.0457 113.156 81.0314 113.206 81.0172C113.69 80.8749 114.174 80.7254 114.644 80.5831C114.693 80.5689 114.75 80.5475 114.8 80.5333C115.277 80.3839 115.747 80.2273 116.216 80.0636C116.266 80.0494 116.316 80.0352 116.359 80.0138C116.401 79.9996 116.437 79.9854 116.48 79.9711C116.899 79.8217 117.319 79.6723 117.732 79.5228C117.796 79.4944 117.867 79.473 117.931 79.4445C118.308 79.3022 118.678 79.1599 119.041 79.0105C119.105 78.982 119.169 78.9606 119.241 78.9322C119.632 78.7756 120.023 78.612 120.4 78.4483C120.486 78.4127 120.564 78.3771 120.65 78.3415C121.034 78.1707 121.418 78 121.788 77.8292C121.788 77.8292 121.788 77.8292 121.795 77.8292C121.824 77.8149 121.859 77.8007 121.888 77.7865C122.123 77.6726 122.365 77.5588 122.592 77.4449C122.685 77.4022 122.777 77.3524 122.863 77.3097C123.033 77.2243 123.204 77.1389 123.368 77.0535C123.468 77.0037 123.567 76.9468 123.674 76.8898C123.823 76.8116 123.98 76.7262 124.129 76.6479C124.236 76.591 124.336 76.534 124.442 76.4771C124.585 76.3988 124.727 76.3206 124.862 76.2423C124.905 76.2209 124.941 76.1996 124.983 76.1711C125.069 76.1213 125.147 76.0715 125.225 76.0288C125.318 75.9719 125.403 75.9221 125.496 75.8651C125.624 75.7868 125.752 75.7086 125.873 75.6303C125.958 75.5805 126.044 75.5235 126.122 75.4737C126.257 75.3883 126.392 75.3029 126.52 75.2104C126.591 75.1677 126.656 75.1179 126.727 75.0752C126.905 74.9543 127.083 74.8333 127.253 74.7123C127.275 74.6981 127.289 74.6838 127.31 74.6767C127.31 74.6767 127.317 74.6767 127.317 74.6696C127.602 74.4632 127.88 74.2569 128.15 74.0505C128.207 74.0078 128.257 73.9651 128.314 73.9224C128.577 73.716 128.826 73.5097 129.075 73.3033C129.089 73.2891 129.111 73.2748 129.125 73.2606C129.16 73.2321 129.189 73.2037 129.217 73.1752C129.409 73.0044 129.602 72.8336 129.787 72.6629C129.829 72.6202 129.872 72.5846 129.915 72.5419C130.121 72.3426 130.327 72.1434 130.52 71.937C130.534 71.9228 130.555 71.9085 130.569 71.8872C130.598 71.8587 130.626 71.8232 130.655 71.7947C130.804 71.6381 130.947 71.4745 131.089 71.3108C131.132 71.261 131.174 71.2183 131.21 71.1685C131.381 70.9692 131.537 70.77 131.687 70.5707C131.694 70.5636 131.701 70.5494 131.715 70.5422C131.736 70.5138 131.758 70.4853 131.779 70.4497C131.9 70.2861 132.014 70.1224 132.128 69.9587C132.163 69.9018 132.206 69.8449 132.242 69.7879C132.37 69.5958 132.491 69.4037 132.597 69.2044C132.605 69.1973 132.605 69.1902 132.612 69.1831C132.612 69.1831 132.612 69.1831 132.612 69.1759C132.726 68.9767 132.832 68.7703 132.932 68.564C132.96 68.507 132.989 68.4501 133.01 68.3932C133.088 68.2295 133.16 68.0658 133.224 67.9022C133.238 67.8666 133.252 67.831 133.266 67.8025C133.274 67.7883 133.274 67.7741 133.281 67.7598C133.359 67.5535 133.437 67.34 133.501 67.1265C133.515 67.0838 133.53 67.034 133.537 66.9913C133.587 66.8205 133.629 66.6426 133.672 66.4647C133.679 66.4291 133.693 66.3935 133.7 66.3651C133.708 66.3437 133.708 66.3153 133.715 66.2939C133.757 66.0733 133.8 65.8456 133.829 65.6179C133.836 65.5894 133.836 65.5538 133.836 65.5254C133.857 65.3261 133.871 65.1197 133.878 64.9205C133.878 64.8849 133.885 64.8564 133.885 64.8209C133.885 64.7497 133.885 64.6785 133.885 64.6145V52.1399C133.893 52.2466 133.893 52.3463 133.885 52.4459Z" fill="#454545"/>
<path d="M84.265 31.9587C111.676 31.9587 133.893 40.9962 133.893 52.1472C133.893 63.2982 111.676 72.3286 84.265 72.3286C56.8538 72.3286 34.6374 63.2911 34.6374 52.1472C34.6445 40.9962 56.861 31.9587 84.265 31.9587Z" fill="url(#paint1_linear)"/>
<g opacity="0.5">
<path opacity="0.5" d="M133.893 52.1399C133.893 63.2909 111.676 72.3213 84.265 72.3213C56.8538 72.3213 34.6374 63.2838 34.6374 52.1399" stroke="url(#paint2_linear)" stroke-width="1.8706" stroke-miterlimit="10"/>
</g>
<g opacity="0.4">
<path d="M141.293 57.9468C141.4 61.6543 129.901 64.9918 115.626 65.3974C103.756 65.7319 93.701 63.9386 90.5771 61.1918L83.4681 59.5835L90.4276 57.5625C93.4377 54.652 103.372 52.2966 115.241 51.955C129.523 51.5565 141.187 54.2393 141.293 57.9468Z" fill="url(#paint3_linear)"/>
</g>
<path d="M86.3714 2.59739C86.713 2.63297 87.0546 2.67567 87.389 2.71837C87.5171 2.7326 87.6381 2.74683 87.7662 2.76818C88.2785 2.84646 88.7767 2.93897 89.2819 3.03859C89.4242 3.06706 89.5594 3.10264 89.7018 3.1311C90.0647 3.2165 90.4347 3.30189 90.7905 3.40152C90.9827 3.45133 91.1819 3.50826 91.3741 3.56519C91.5377 3.615 91.6943 3.66481 91.8579 3.71463C92.0928 3.78579 92.3205 3.86407 92.5553 3.94946C92.7119 3.99927 92.8613 4.0562 93.0179 4.11313C93.2598 4.20564 93.5018 4.29815 93.7366 4.39066C93.8718 4.44759 94.007 4.4974 94.1422 4.55433C94.4269 4.67531 94.7044 4.79628 94.9819 4.93149C95.0673 4.97419 95.1598 5.00977 95.2452 5.05246C95.3164 5.08804 95.3804 5.12362 95.4516 5.15209C95.8216 5.32999 96.1845 5.52213 96.5403 5.71426C96.6827 5.79254 96.8179 5.87082 96.9531 5.9491C97.2377 6.11277 97.5224 6.27644 97.7999 6.45434C97.9422 6.53974 98.0845 6.63225 98.2269 6.72476C98.5115 6.90978 98.7961 7.10191 99.0737 7.29405C99.1875 7.37233 99.3085 7.45772 99.4224 7.536C99.8066 7.81353 100.184 8.10529 100.554 8.40417C100.597 8.43975 100.639 8.48245 100.689 8.51803C101.009 8.78844 101.329 9.05885 101.635 9.3435C101.749 9.45024 101.863 9.55698 101.977 9.66373C102.219 9.89144 102.454 10.1192 102.682 10.354C102.795 10.475 102.916 10.5959 103.03 10.7169C103.258 10.9589 103.486 11.2079 103.706 11.4641C103.799 11.5709 103.898 11.6776 103.991 11.7915C104.297 12.1544 104.596 12.5244 104.888 12.9016C105.129 13.2147 105.357 13.542 105.585 13.8694C105.649 13.969 105.713 14.0615 105.777 14.1611C105.934 14.396 106.09 14.6308 106.24 14.8656C106.318 14.9937 106.396 15.1289 106.474 15.257C106.602 15.4705 106.731 15.684 106.844 15.8975C106.923 16.0398 107.001 16.1892 107.079 16.3316C107.179 16.5166 107.279 16.7087 107.371 16.9008C107.563 17.2851 107.748 17.6694 107.919 18.0608C107.947 18.1248 107.983 18.1889 108.011 18.2529C108.211 18.7083 108.389 19.178 108.559 19.6477C108.616 19.8042 108.666 19.9608 108.723 20.1245C108.816 20.3949 108.908 20.6653 108.986 20.9357C109.043 21.1136 109.093 21.2915 109.143 21.4694C109.214 21.7327 109.285 22.0031 109.356 22.2735C109.406 22.4657 109.449 22.6507 109.492 22.8428C109.541 23.0777 109.591 23.3125 109.634 23.5473C109.67 23.7466 109.712 23.9458 109.741 24.1522C109.783 24.3941 109.819 24.6361 109.847 24.878C109.876 25.0844 109.904 25.2837 109.926 25.49C109.954 25.7249 109.976 25.9668 109.997 26.2016C110.011 26.408 110.032 26.6215 110.047 26.8279C110.061 27.0698 110.068 27.3118 110.075 27.5537C110.082 27.8241 110.097 28.1017 110.097 28.3721V25.9028C110.097 25.7818 110.097 25.6537 110.097 25.5327C110.097 25.3833 110.082 25.2339 110.075 25.0844C110.068 24.8425 110.061 24.6005 110.047 24.3586C110.032 24.1522 110.018 23.9387 109.997 23.7323C109.976 23.4975 109.954 23.2556 109.926 23.0207C109.919 22.9425 109.911 22.8713 109.904 22.793C109.89 22.6649 109.862 22.5368 109.847 22.4087C109.812 22.1668 109.776 21.9248 109.741 21.6829C109.705 21.4836 109.67 21.2773 109.634 21.078C109.591 20.8432 109.541 20.6084 109.492 20.3735C109.47 20.281 109.456 20.1814 109.435 20.0889C109.413 19.9964 109.385 19.8967 109.356 19.8042C109.292 19.5338 109.221 19.2705 109.143 19.0001C109.093 18.8222 109.043 18.6443 108.986 18.4664C108.901 18.1889 108.816 17.9185 108.723 17.648C108.68 17.5342 108.652 17.4132 108.609 17.2922C108.595 17.2495 108.574 17.214 108.559 17.1713C108.389 16.7016 108.204 16.239 108.011 15.7765C107.983 15.7124 107.955 15.6484 107.919 15.5844C107.748 15.193 107.563 14.8016 107.371 14.4244C107.343 14.3675 107.321 14.3106 107.293 14.2536C107.222 14.1184 107.15 13.9903 107.079 13.8623C107.001 13.7199 106.923 13.5705 106.844 13.4282C106.723 13.2147 106.595 13.0012 106.474 12.7877C106.396 12.6596 106.318 12.5244 106.24 12.3963C106.09 12.1544 105.934 11.9267 105.777 11.6918C105.713 11.5922 105.649 11.4926 105.585 11.4001C105.364 11.0798 105.137 10.7596 104.895 10.4465C104.895 10.4394 104.888 10.4394 104.888 10.4323C104.603 10.0551 104.304 9.68507 103.991 9.32215C103.898 9.20829 103.799 9.10155 103.706 8.99481C103.486 8.74574 103.258 8.49668 103.03 8.24761C102.916 8.12664 102.795 8.00566 102.682 7.88469C102.454 7.64986 102.219 7.42214 101.977 7.19442C101.863 7.08768 101.749 6.98094 101.635 6.8742C101.322 6.58955 101.009 6.31914 100.689 6.04872C100.646 6.01314 100.604 5.97045 100.554 5.93487C100.184 5.63599 99.8066 5.34423 99.4224 5.0667C99.3085 4.9813 99.1875 4.90302 99.0737 4.82475C98.7961 4.63261 98.5115 4.44047 98.2269 4.25546C98.0845 4.16295 97.9422 4.07755 97.7999 3.98504C97.5224 3.80002 97.2377 3.62923 96.9531 3.46556C96.8179 3.38729 96.6755 3.30901 96.5403 3.23073C96.1774 3.03859 95.8145 2.84646 95.4445 2.66855C95.3875 2.64009 95.3306 2.61163 95.2737 2.58316C95.2594 2.57604 95.2523 2.57604 95.2381 2.56893C95.1527 2.52623 95.0673 2.49065 94.9748 2.44795C94.6973 2.31986 94.4197 2.19177 94.1351 2.0708C93.9999 2.01387 93.8647 1.96406 93.7295 1.90713C93.4875 1.81462 93.2527 1.71499 93.0108 1.6296C92.8613 1.57267 92.7048 1.52286 92.5482 1.46593C92.3205 1.38765 92.0857 1.30937 91.8508 1.23109C91.6872 1.18128 91.5306 1.13147 91.3669 1.08165C91.2531 1.04607 91.1463 1.01049 91.0325 0.982028C90.9542 0.96068 90.8688 0.946447 90.7834 0.917983C90.4205 0.818357 90.0576 0.732963 89.6947 0.647569C89.5523 0.619105 89.4171 0.583524 89.2748 0.555059C88.7767 0.448317 88.2714 0.355807 87.7591 0.284646C87.7448 0.284646 87.7306 0.27753 87.7164 0.27753C87.6025 0.263297 87.4958 0.256181 87.3819 0.234833C87.0404 0.192136 86.7059 0.149439 86.3643 0.113858C86.1864 0.099626 86.0085 0.0853937 85.8377 0.0711615C85.5389 0.049813 85.2471 0.0284646 84.9411 0.0142323C84.8771 0.0142323 84.813 0.00711615 84.749 0C84.4501 0.00711615 84.137 0 83.8168 0C83.2475 0 82.6782 0.0213484 82.116 0.0569292C82.052 0.0640453 81.9808 0.0569292 81.9096 0.0640453C81.7816 0.0711615 81.6606 0.0925099 81.5396 0.099626C81.2977 0.120974 81.0557 0.142323 80.8138 0.170787C80.6003 0.192136 80.3939 0.220601 80.1875 0.249065C79.9456 0.284646 79.7108 0.320227 79.4759 0.355807C79.3692 0.37004 79.2696 0.384272 79.1628 0.40562C79.0632 0.419853 78.9707 0.448317 78.8711 0.462549C78.6149 0.512362 78.3587 0.562176 78.1025 0.619105C77.9104 0.661802 77.7183 0.704498 77.5261 0.747195C77.2699 0.811241 77.0138 0.875286 76.7576 0.946447C76.6366 0.982028 76.5085 1.01049 76.3804 1.04607C76.3235 1.06031 76.2737 1.08165 76.2168 1.09589C75.861 1.20263 75.5123 1.31649 75.1565 1.43746C75.0497 1.47304 74.943 1.50151 74.8434 1.5442C74.395 1.70788 73.9467 1.87866 73.5127 2.06368C73.4913 2.0708 73.47 2.07791 73.4557 2.08503C73.3988 2.10638 73.349 2.13484 73.2921 2.16331C72.8295 2.36256 72.3812 2.57604 71.9329 2.79665C71.8119 2.86069 71.6909 2.91762 71.57 2.98166C71.0789 3.23785 70.5879 3.50826 70.1112 3.79291C70.0969 3.80002 70.0756 3.81425 70.0613 3.82137C69.9902 3.86407 69.9261 3.91388 69.855 3.95658C69.5134 4.16295 69.1861 4.38355 68.8516 4.60415C68.7235 4.69666 68.5883 4.78205 68.4602 4.87456C68.1685 5.08093 67.8767 5.30153 67.5921 5.51501C67.4924 5.60752 67.3786 5.69292 67.2647 5.78543C66.8804 6.09142 66.5033 6.41165 66.1333 6.73899C66.1048 6.76745 66.0763 6.79592 66.0407 6.82438C65.7063 7.13038 65.379 7.44349 65.0587 7.76371C64.952 7.87046 64.8452 7.98431 64.7385 8.09106C64.4894 8.34724 64.2546 8.61054 64.0198 8.87383C63.9202 8.98769 63.8134 9.10155 63.7138 9.22252C63.4291 9.54987 63.1587 9.88433 62.8954 10.233C62.8599 10.2828 62.8172 10.3255 62.7816 10.3753C62.4827 10.7667 62.1981 11.1652 61.9276 11.5709C61.8494 11.6847 61.7711 11.8057 61.6928 11.9267C61.4936 12.2255 61.3014 12.5315 61.1235 12.8446C61.0452 12.9798 60.9599 13.1222 60.8816 13.2574C60.6894 13.5918 60.5044 13.9405 60.3265 14.2821C60.2767 14.3817 60.2269 14.4742 60.1771 14.5739C59.9565 15.0151 59.7501 15.4634 59.558 15.9259C59.5082 16.0398 59.4655 16.1537 59.4228 16.2604C59.2805 16.6162 59.1381 16.972 59.01 17.3349C58.9531 17.4844 58.9033 17.6409 58.8535 17.7904C58.7325 18.1462 58.6258 18.502 58.5262 18.8578C58.4906 18.993 58.4479 19.1211 58.4123 19.2563C58.2842 19.7402 58.1632 20.2312 58.0636 20.7293C58.0494 20.8147 58.0351 20.9001 58.0209 20.9784C57.9426 21.3982 57.8715 21.8181 57.8074 22.238C57.7861 22.4016 57.7647 22.5582 57.7434 22.7219C57.7007 23.0919 57.658 23.4619 57.6295 23.8391C57.6153 23.9956 57.6011 24.1522 57.5939 24.3088C57.5655 24.8282 57.5441 25.3477 57.5441 25.8814V28.3507C57.5441 27.8241 57.5655 27.2975 57.5939 26.7781C57.6011 26.6215 57.6153 26.4649 57.6295 26.3084C57.658 25.9312 57.6936 25.5612 57.7434 25.1912C57.7647 25.0275 57.7861 24.8638 57.8074 24.7073C57.8715 24.2803 57.9426 23.8604 58.0209 23.4477C58.0351 23.3623 58.0494 23.2769 58.0636 23.1986C58.1632 22.7005 58.2842 22.2095 58.4123 21.7256C58.4479 21.5904 58.4906 21.4623 58.5262 21.3271C58.6258 20.9713 58.7396 20.6084 58.8535 20.2597C58.9033 20.1031 58.9602 19.9537 59.01 19.8042C59.1381 19.4413 59.2733 19.0855 59.4228 18.7297C59.4655 18.6158 59.5082 18.502 59.558 18.3952C59.7501 17.9398 59.9565 17.4915 60.1771 17.0432C60.2269 16.9435 60.2767 16.851 60.3265 16.7514C60.5044 16.4027 60.6894 16.0611 60.8816 15.7267C60.9599 15.5915 61.0381 15.4492 61.1235 15.3139C61.3085 15.0008 61.5007 14.6948 61.6928 14.396C61.7711 14.275 61.8423 14.1611 61.9276 14.0402C62.2052 13.6345 62.4898 13.2289 62.7816 12.8446C62.8172 12.7948 62.8599 12.7521 62.8954 12.7023C63.1587 12.3607 63.4363 12.0263 63.7138 11.6918C63.8134 11.578 63.9202 11.457 64.0198 11.3431C64.2546 11.0798 64.4966 10.8165 64.7385 10.5604C64.8452 10.4536 64.952 10.3398 65.0587 10.233C65.379 9.91279 65.7063 9.59968 66.0407 9.29369C66.0692 9.26522 66.0977 9.23676 66.1333 9.20829C66.4962 8.88095 66.8804 8.56784 67.2647 8.25473C67.3786 8.16222 67.4924 8.07683 67.6063 7.99143C67.8909 7.77083 68.1827 7.55735 68.4745 7.35098C68.6025 7.25847 68.7306 7.16596 68.8658 7.08056C69.1932 6.85996 69.5276 6.63936 69.8692 6.433C69.9546 6.38318 70.04 6.32625 70.1254 6.27644C70.6022 5.99179 71.0861 5.72138 71.5842 5.4652C71.7052 5.40115 71.8261 5.34423 71.9471 5.28018C72.3954 5.05958 72.8437 4.8461 73.3063 4.64684C73.3774 4.61838 73.4557 4.5828 73.5269 4.54722C73.9681 4.3622 74.4093 4.19141 74.8576 4.02774C74.9643 3.99216 75.064 3.95658 75.1707 3.921C75.5194 3.80002 75.8752 3.68616 76.231 3.57942C76.4089 3.52961 76.5868 3.4798 76.7718 3.42998C77.028 3.35882 77.2842 3.29478 77.5404 3.23073C77.7325 3.18092 77.9246 3.14534 78.1168 3.10264C78.3729 3.04571 78.6291 2.9959 78.8853 2.94608C79.0846 2.9105 79.2909 2.87492 79.4902 2.83934C79.725 2.80376 79.9669 2.76818 80.2018 2.7326C80.4081 2.70414 80.6216 2.67567 80.828 2.65432C81.0699 2.62586 81.3119 2.60451 81.5538 2.58316C81.746 2.56893 81.9381 2.5547 82.1302 2.54046C82.6924 2.50488 83.2617 2.48353 83.831 2.48353C84.2081 2.48353 84.5853 2.49777 84.9625 2.512C85.2613 2.52623 85.5602 2.54758 85.8591 2.56893C86.0156 2.56893 86.1935 2.57604 86.3714 2.59739Z" fill="#888888"/>
<path d="M83.8167 1.75806C98.3264 1.75806 110.096 13.3431 110.096 27.6324C110.096 39.5092 101.97 49.5074 90.8972 52.5531L83.8167 59.6123L76.6935 52.5958C65.6635 49.5074 57.5369 39.5092 57.5369 27.6324C57.544 13.3431 69.307 1.75806 83.8167 1.75806Z" fill="url(#paint4_linear)"/>
<path d="M83.8167 50.6525C96.5542 50.6525 106.88 40.3266 106.88 27.5891C106.88 14.8515 96.5542 4.52563 83.8167 4.52563C71.0793 4.52563 60.7535 14.8515 60.7535 27.5891C60.7535 40.3266 71.0793 50.6525 83.8167 50.6525Z" fill="url(#paint5_linear)"/>
<path d="M92.4249 18.9106H91.64V18.3803C91.64 17.62 91.0215 17.0015 90.2612 17.0015C89.5009 17.0015 88.8824 17.62 88.8824 18.3803V18.9106H88.8823H87.8217V18.3803C87.8217 17.62 87.2032 17.0015 86.4429 17.0015C85.6826 17.0015 85.0641 17.62 85.0641 18.3803V18.9106H85.064H84.0034V18.3803C84.0034 17.62 83.3849 17.0015 82.6246 17.0015C81.8644 17.0015 81.2458 17.62 81.2458 18.3803V18.9106H80.1852V18.3803C80.1852 17.62 79.5667 17.0015 78.8064 17.0015C78.0461 17.0015 77.4276 17.62 77.4276 18.3803V18.9106H76.6426C75.0051 18.9106 73.6729 20.2429 73.6729 21.8804V35.7537C73.6729 37.3912 75.0051 38.7234 76.6426 38.7234H92.4249C94.0624 38.7234 95.3946 37.3912 95.3946 35.7537V21.8804C95.3946 20.2429 94.0624 18.9106 92.4249 18.9106ZM89.7309 18.3803C89.7309 18.0879 89.9687 17.85 90.2612 17.85C90.5536 17.85 90.7915 18.0879 90.7915 18.3803V20.2894C90.7915 20.5819 90.5536 20.8198 90.2612 20.8198C89.9687 20.8198 89.7309 20.5819 89.7309 20.2894V18.3803ZM85.9126 18.3803C85.9126 18.0879 86.1505 17.85 86.4429 17.85C86.7353 17.85 86.9732 18.0879 86.9732 18.3803V20.2894C86.9732 20.5819 86.7353 20.8198 86.4429 20.8198C86.1505 20.8198 85.9126 20.5819 85.9126 20.2894V18.3803ZM82.0943 18.3803C82.0943 18.0879 82.3322 17.85 82.6246 17.85C82.9171 17.85 83.1549 18.0879 83.1549 18.3803V20.2894C83.1549 20.5819 82.9171 20.8198 82.6246 20.8198C82.3322 20.8198 82.0943 20.5819 82.0943 20.2894V18.3803ZM78.276 18.3803C78.276 18.0879 78.5139 17.85 78.8064 17.85C79.0988 17.85 79.3367 18.0879 79.3367 18.3803V20.2894C79.3367 20.5819 79.0988 20.8198 78.8064 20.8198C78.5139 20.8198 78.276 20.5819 78.276 20.2894V18.3803ZM94.5461 35.7537C94.5461 36.9233 93.5945 37.8749 92.4249 37.8749H76.6426C75.473 37.8749 74.5214 36.9233 74.5214 35.7537V21.8804C74.5214 20.7107 75.473 19.7591 76.6426 19.7591H77.4275V20.2894C77.4275 21.0497 78.046 21.6683 78.8063 21.6683C79.5666 21.6683 80.1851 21.0497 80.1851 20.2894V19.7591H81.2458V20.2894C81.2458 21.0497 81.8643 21.6683 82.6246 21.6683C83.3848 21.6683 84.0034 21.0497 84.0034 20.2894V19.7591H85.064H85.0641V20.2894C85.0641 21.0497 85.6826 21.6683 86.4429 21.6683C87.2032 21.6683 87.8217 21.0497 87.8217 20.2894V19.7591H88.8823H88.8824V20.2894C88.8824 21.0497 89.5009 21.6683 90.2612 21.6683C91.0215 21.6683 91.64 21.0497 91.64 20.2894V19.7591H92.4249C93.5945 19.7591 94.5461 20.7107 94.5461 21.8804V35.7537Z" fill="#888888"/>
<path d="M92.4249 22.7292H82.6246C82.3903 22.7292 82.2004 22.9192 82.2004 23.1535C82.2004 23.3878 82.3903 23.5778 82.6246 23.5778H92.4249C92.5359 23.5778 92.637 23.6789 92.637 23.7899V35.754C92.637 35.865 92.5359 35.9661 92.4249 35.9661H76.6426C76.5316 35.9661 76.4305 35.865 76.4305 35.754V23.7899C76.4305 23.6789 76.5316 23.5778 76.6426 23.5778H78.8063C79.0406 23.5778 79.2306 23.3878 79.2306 23.1535C79.2306 22.9192 79.0406 22.7292 78.8063 22.7292H76.6426C76.0578 22.7292 75.582 23.2051 75.582 23.7899V35.754C75.582 36.3388 76.0578 36.8146 76.6426 36.8146H92.4249C93.0097 36.8146 93.4855 36.3388 93.4855 35.754V23.7899C93.4855 23.205 93.0098 22.7292 92.4249 22.7292Z" fill="#888888"/>
<path d="M80.5997 28.8084C80.5086 29.0836 80.5759 29.3851 80.7752 29.5951L82.0361 30.9262L81.7869 32.6861C81.7438 32.9747 81.8619 33.2615 82.0953 33.4347C82.2334 33.5372 82.3975 33.5896 82.5629 33.5896C82.677 33.5896 82.7917 33.5646 82.8989 33.5138L84.5571 32.7248L86.1409 33.4992C86.399 33.6349 86.7079 33.6165 86.9498 33.4505C87.1938 33.2831 87.3216 32.9967 87.2832 32.7031L87.0455 30.8843L88.2859 29.6023C88.488 29.395 88.5588 29.0938 88.4706 28.8163C88.3829 28.5403 88.1511 28.3361 87.8665 28.2835L86.0645 27.9478L85.2287 26.372C85.0941 26.116 84.8301 25.9555 84.5397 25.9534C84.2494 25.9516 83.9838 26.1079 83.8453 26.3623L82.969 27.9727L81.2097 28.2812C80.9248 28.3306 80.691 28.5327 80.5997 28.8084ZM83.3172 28.7731C83.4445 28.7508 83.5548 28.6716 83.6166 28.558L84.5337 26.8725L85.4109 28.5263C85.4715 28.6405 85.5809 28.7208 85.708 28.7445L87.5951 29.0961L86.2935 30.4413C86.2036 30.5343 86.1609 30.6632 86.1777 30.7914L86.4264 32.6943L84.7459 31.8727C84.6298 31.8159 84.4941 31.8152 84.3773 31.8707L82.6425 32.6962L82.9049 30.8425C82.923 30.7144 82.8818 30.5852 82.7928 30.4913L81.4719 29.0967L83.3172 28.7731Z" fill="#888888"/>
<path d="M80.7156 23.5778C80.95 23.5778 81.1399 23.3878 81.1399 23.1535C81.1399 22.9192 80.95 22.7292 80.7156 22.7292H80.7153C80.481 22.7292 80.2913 22.9192 80.2913 23.1535C80.2913 23.3878 80.4813 23.5778 80.7156 23.5778Z" fill="#888888"/>
<defs>
<radialGradient id="paint0_radial" cx="0" cy="0" r="1" gradientUnits="userSpaceOnUse" gradientTransform="translate(84.11 71.9009) rotate(90) scale(26.9351 79.5222)">
<stop stop-color="#4D8903"/>
<stop offset="0.0001" stop-opacity="0.78"/>
<stop offset="1" stop-color="white" stop-opacity="0"/>
</radialGradient>
<linearGradient id="paint1_linear" x1="34.6374" y1="52.7948" x2="137.13" y2="62.3898" gradientUnits="userSpaceOnUse">
<stop stop-color="#DEDEDE"/>
<stop offset="1" stop-color="#888888"/>
</linearGradient>
<linearGradient id="paint2_linear" x1="33.9756" y1="62.5668" x2="134.562" y2="62.5668" gradientUnits="userSpaceOnUse">
<stop offset="0.00744902" stop-color="#E7E7E7" stop-opacity="0"/>
<stop offset="0.4302" stop-color="white"/>
<stop offset="0.5508" stop-color="#F5F5F5" stop-opacity="0.7883"/>
<stop offset="0.7594" stop-color="#EAEAEA" stop-opacity="0.4223"/>
<stop offset="1" stop-color="#E7E7E7" stop-opacity="0"/>
</linearGradient>
<linearGradient id="paint3_linear" x1="89.0363" y1="61.4664" x2="101.034" y2="46.5088" gradientUnits="userSpaceOnUse">
<stop stop-color="#939393"/>
<stop offset="0.3296" stop-color="#969696" stop-opacity="0.6629"/>
<stop offset="0.5748" stop-color="#989898" stop-opacity="0.4122"/>
<stop offset="0.792" stop-color="#989898" stop-opacity="0.19"/>
<stop offset="0.9778" stop-color="#C8C8C8" stop-opacity="0"/>
</linearGradient>
<linearGradient id="paint4_linear" x1="57.541" y1="30.6851" x2="110.096" y2="30.6851" gradientUnits="userSpaceOnUse">
<stop stop-color="#EEEFEF"/>
<stop offset="1" stop-color="white"/>
</linearGradient>
<linearGradient id="paint5_linear" x1="82.899" y1="121.426" x2="84.1714" y2="-8.36662" gradientUnits="userSpaceOnUse">
<stop offset="0.5089" stop-color="#CFD0D2"/>
<stop offset="0.7253" stop-color="#F8F8F8"/>
</linearGradient>
</defs>
</svg>
