<svg width="169" height="101" viewBox="0 0 169 101" fill="none" xmlns="http://www.w3.org/2000/svg">
<ellipse cx="84.11" cy="71.9009" rx="84.11" ry="28.4891" fill="url(#paint0_radial)"/>
<path d="M131.807 52.4459C131.8 52.6451 131.785 52.8515 131.764 53.0508C131.764 53.0792 131.757 53.1148 131.757 53.1433C131.729 53.371 131.693 53.5916 131.643 53.8193C131.629 53.8762 131.622 53.9332 131.608 53.9901C131.565 54.168 131.522 54.3388 131.472 54.5167C131.458 54.5594 131.451 54.6092 131.437 54.6519C131.373 54.8654 131.302 55.0717 131.216 55.2852C131.195 55.335 131.173 55.3849 131.159 55.4347C131.095 55.5983 131.024 55.762 130.946 55.9257C130.917 55.9826 130.896 56.0395 130.867 56.0965C130.768 56.3028 130.661 56.5092 130.547 56.7085C130.54 56.7156 130.533 56.7298 130.533 56.7369C130.419 56.9291 130.298 57.1283 130.177 57.3205C130.142 57.3774 130.099 57.4343 130.063 57.4912C129.95 57.6549 129.836 57.8186 129.715 57.9823C129.686 58.0249 129.658 58.0605 129.629 58.1032C129.48 58.3025 129.316 58.5017 129.153 58.701C129.11 58.7508 129.067 58.7935 129.032 58.8433C128.889 59.007 128.747 59.1635 128.597 59.3272C128.555 59.377 128.512 59.4197 128.462 59.4695C128.27 59.6688 128.071 59.8751 127.857 60.0744C127.815 60.1171 127.772 60.1527 127.729 60.1954C127.544 60.3662 127.359 60.5369 127.16 60.7077C127.11 60.7504 127.067 60.7931 127.018 60.8287C126.776 61.0351 126.52 61.2414 126.256 61.4478C126.199 61.4905 126.15 61.5332 126.093 61.5759C125.822 61.7823 125.545 61.9886 125.26 62.195L125.253 62.2021C125.232 62.2164 125.217 62.2306 125.196 62.2377C125.025 62.3587 124.847 62.4797 124.669 62.6006C124.598 62.6433 124.534 62.6931 124.463 62.7358C124.328 62.8212 124.2 62.9066 124.065 62.9991C123.979 63.0489 123.901 63.1059 123.815 63.1557C123.687 63.234 123.566 63.3122 123.438 63.3905C123.346 63.4475 123.26 63.4973 123.168 63.5542C123.047 63.6254 122.926 63.6965 122.805 63.7677C122.67 63.846 122.527 63.9242 122.385 64.0025C122.278 64.0594 122.179 64.1164 122.072 64.1733C121.923 64.2516 121.773 64.337 121.617 64.4152C121.517 64.4722 121.417 64.522 121.311 64.5789C121.147 64.6643 120.976 64.7497 120.805 64.8351C120.713 64.8778 120.627 64.9276 120.535 64.9703C120.3 65.0842 120.065 65.198 119.83 65.3119C119.795 65.3261 119.766 65.3403 119.731 65.3617C119.361 65.5396 118.976 65.7104 118.592 65.8741C118.507 65.9096 118.429 65.9452 118.343 65.9808C117.966 66.1445 117.575 66.3081 117.183 66.4647C117.119 66.4932 117.055 66.5145 116.984 66.543C116.621 66.6924 116.251 66.8347 115.874 66.9771C115.81 67.0055 115.739 67.0269 115.675 67.0553C115.262 67.2048 114.849 67.3542 114.422 67.5037C114.337 67.5321 114.244 67.5606 114.159 67.5962C113.696 67.7527 113.227 67.9093 112.743 68.0658C112.693 68.0801 112.636 68.1014 112.586 68.1156C112.117 68.2651 111.633 68.4074 111.149 68.5497C111.099 68.564 111.049 68.5782 110.999 68.5924C110.501 68.7347 109.996 68.8771 109.491 69.0123C109.398 69.0336 109.306 69.0621 109.213 69.0834C108.708 69.2186 108.203 69.3467 107.69 69.4677C107.598 69.4891 107.505 69.5104 107.413 69.5318C106.879 69.6598 106.345 69.7879 105.797 69.9018C105.762 69.9089 105.719 69.916 105.684 69.9231C105.15 70.037 104.602 70.1509 104.054 70.2647C103.983 70.2789 103.912 70.2932 103.841 70.3074C103.293 70.4142 102.738 70.5209 102.175 70.6205C102.069 70.6419 101.969 70.6561 101.862 70.6775C101.307 70.7771 100.745 70.8696 100.176 70.9621C100.069 70.9763 99.9623 70.9977 99.8555 71.0119C99.4428 71.076 99.023 71.14 98.596 71.1969C98.4893 71.2112 98.3825 71.2254 98.2758 71.2396C97.7776 71.3108 97.2724 71.3748 96.7672 71.4389C96.6604 71.4531 96.5537 71.4673 96.4398 71.4816C96.0128 71.5314 95.5788 71.5812 95.1447 71.631C95.0308 71.6453 94.9099 71.6595 94.796 71.6666C94.2836 71.7235 93.7642 71.7733 93.2447 71.8232C93.1664 71.8303 93.0881 71.8374 93.0099 71.8445C92.284 71.9085 91.5582 71.9726 90.8252 72.0224C90.7612 72.0295 90.69 72.0295 90.626 72.0366C89.8859 72.0865 89.1387 72.1363 88.3844 72.1718C88.3132 72.179 88.2421 72.179 88.1638 72.179C87.5803 72.2074 87.0039 72.2288 86.4132 72.2501C86.3278 72.2501 86.2424 72.2572 86.1499 72.2572C85.538 72.2786 84.9189 72.2928 84.3069 72.2999C84.1717 72.2999 84.0436 72.3071 83.9084 72.3071C83.3391 72.3142 82.7627 72.3213 82.1863 72.3213C81.6028 72.3213 81.0264 72.3142 80.4428 72.3071C80.3005 72.3071 80.1582 72.2999 80.0159 72.2999C79.4964 72.2928 78.9769 72.2786 78.4574 72.2644C78.4361 72.2644 78.4076 72.2644 78.3863 72.2644C77.8455 72.2501 77.3118 72.2288 76.778 72.2003C76.6357 72.1932 76.4934 72.1861 76.3511 72.179C75.9312 72.1576 75.5043 72.1363 75.0844 72.1149C74.9777 72.1078 74.8709 72.1007 74.7642 72.0936C74.2518 72.0651 73.7466 72.0295 73.2342 71.9868C73.1133 71.9797 72.9923 71.9655 72.8713 71.9584C72.4728 71.9299 72.0743 71.8943 71.6758 71.8587C71.5335 71.8445 71.3983 71.8374 71.256 71.8232C70.7578 71.7805 70.2597 71.7306 69.7687 71.6808C69.7616 71.6808 69.7473 71.6808 69.7402 71.6808C69.2492 71.631 68.7653 71.5741 68.2885 71.5172C68.1533 71.5029 68.0181 71.4816 67.8758 71.4673C67.4773 71.4175 67.0788 71.3677 66.6803 71.3179C66.5807 71.3037 66.4882 71.2894 66.3885 71.2823C65.8975 71.2183 65.4065 71.1471 64.9155 71.0688C64.8017 71.0546 64.6878 71.0333 64.5739 71.019C64.1683 70.955 63.7698 70.8909 63.3713 70.8269C63.2646 70.8055 63.1578 70.7913 63.0511 70.7771C62.553 70.6917 62.0548 70.6063 61.5638 70.5138C61.4571 70.4924 61.3575 70.4711 61.2507 70.4569C60.8095 70.3715 60.3754 70.2861 59.9485 70.2007C59.8702 70.1864 59.7919 70.1722 59.7208 70.1509C59.1942 70.0441 58.6747 69.9303 58.1623 69.8164C58.0556 69.7951 57.956 69.7666 57.8492 69.7452C57.3369 69.6314 56.8316 69.5104 56.3335 69.3823C56.2695 69.3681 56.2054 69.3538 56.1485 69.3325C55.5436 69.1831 54.953 69.0265 54.3695 68.8628C54.3268 68.8486 54.2841 68.8415 54.2414 68.8273C53.6436 68.6636 53.053 68.4928 52.4695 68.3149C52.4196 68.3007 52.3627 68.2793 52.3129 68.2651C52.0069 68.1726 51.708 68.0801 51.4092 67.9804C51.2953 67.9449 51.1743 67.9022 51.0605 67.8666C50.8256 67.7883 50.5908 67.71 50.3631 67.6317C50.235 67.589 50.114 67.5463 49.9931 67.5037C49.7653 67.4254 49.5376 67.34 49.3099 67.2617C49.1961 67.219 49.0822 67.1834 48.9755 67.1407C48.6979 67.0411 48.4275 66.9344 48.1571 66.8347C48.1002 66.8134 48.0432 66.792 47.9863 66.7707C47.7871 66.6924 47.5878 66.6141 47.3886 66.5359C47.2961 66.5003 47.2035 66.4647 47.1182 66.4291C46.8335 66.3153 46.5489 66.1943 46.2713 66.0804C46.2215 66.0591 46.1646 66.0377 46.1148 66.0093C45.8871 65.9096 45.6665 65.8171 45.4459 65.7175C45.3462 65.6748 45.2466 65.625 45.1541 65.5823C44.9833 65.504 44.8125 65.4257 44.6418 65.3475C44.535 65.2976 44.4283 65.2478 44.3215 65.1909C44.165 65.1197 44.0155 65.0415 43.859 64.9703C43.7451 64.9134 43.6384 64.8564 43.5316 64.8066C43.3893 64.7355 43.247 64.6643 43.1047 64.586C42.9908 64.5291 42.8841 64.4722 42.7773 64.4152C42.6421 64.3441 42.5069 64.2729 42.3717 64.1946C42.265 64.1377 42.1511 64.0737 42.0444 64.0096C41.9163 63.9385 41.7882 63.8673 41.6601 63.789C41.5534 63.725 41.4466 63.6609 41.3399 63.5969C41.2189 63.5257 41.0908 63.4546 40.9698 63.3763C40.8631 63.3122 40.7635 63.2482 40.6567 63.1842C40.5358 63.113 40.4219 63.0347 40.308 62.9636C40.2084 62.8995 40.1017 62.8283 40.0021 62.7643C39.8882 62.6931 39.7743 62.6149 39.6676 62.5437C39.568 62.4797 39.4755 62.4085 39.3758 62.3444C39.2691 62.2662 39.1552 62.195 39.0485 62.1167C38.9418 62.0456 38.8492 61.9815 38.7567 61.9104C38.65 61.8321 38.5504 61.7538 38.4436 61.6826C38.3511 61.6115 38.2657 61.5474 38.1732 61.4763C38.0736 61.398 37.974 61.3197 37.8815 61.2414C37.7961 61.1703 37.7107 61.0991 37.6253 61.028C37.5328 60.9497 37.4403 60.8714 37.3478 60.7931C37.2624 60.722 37.1841 60.6508 37.0987 60.5796C37.0062 60.5014 36.9208 60.4231 36.8354 60.3448C36.7571 60.2737 36.6788 60.2025 36.6006 60.1242C36.5152 60.0459 36.4298 59.9605 36.3515 59.8823C36.2732 59.8111 36.2021 59.7328 36.1309 59.6617C36.0526 59.5834 35.9743 59.498 35.8961 59.4197C35.8249 59.3485 35.7537 59.2703 35.6897 59.1991C35.6043 59.1066 35.526 59.0283 35.4549 58.9429C35.3908 58.8647 35.3268 58.7935 35.2627 58.7152C35.1916 58.6298 35.1204 58.5515 35.0564 58.4662C34.9923 58.3879 34.9354 58.3167 34.8714 58.2384C34.8073 58.153 34.7433 58.0748 34.6792 57.9894C34.6223 57.9111 34.5654 57.8399 34.5084 57.7616C34.4444 57.6763 34.3875 57.5909 34.3305 57.5055C34.2807 57.4272 34.2238 57.3489 34.174 57.2778C34.117 57.1924 34.0672 57.107 34.0103 57.0145C33.9605 56.9362 33.9178 56.8579 33.868 56.7796C33.8182 56.6942 33.7684 56.6017 33.7185 56.5163C33.6758 56.438 33.6331 56.3598 33.5905 56.2815C33.5478 56.189 33.5051 56.1036 33.4624 56.0111C33.4268 55.9328 33.3841 55.8545 33.3556 55.7762C33.3129 55.6837 33.2773 55.5912 33.2418 55.5058C33.2062 55.4276 33.1777 55.3493 33.1493 55.271C33.1137 55.1785 33.0852 55.086 33.0496 54.9935C33.0212 54.9152 32.9927 54.8369 32.9714 54.7586C32.9429 54.6661 32.9144 54.5665 32.886 54.474C32.8646 54.3957 32.8433 54.3246 32.8219 54.2463C32.7934 54.1467 32.7792 54.047 32.7579 53.9474C32.7436 53.8762 32.7223 53.798 32.7081 53.7268C32.6867 53.6201 32.6725 53.5204 32.6582 53.4137C32.644 53.3425 32.6369 53.2714 32.6227 53.2073C32.6155 53.0792 32.6084 52.9654 32.5942 52.8515C32.5871 52.7946 32.58 52.7305 32.58 52.6736C32.5657 52.4957 32.5657 52.3178 32.5657 52.147V64.6145C32.5657 64.7924 32.5729 64.9703 32.58 65.1411C32.5871 65.198 32.5942 65.2621 32.5942 65.319C32.6013 65.4329 32.6155 65.5538 32.6298 65.6677C32.6369 65.7388 32.6511 65.81 32.6654 65.8741C32.6796 65.9808 32.6938 66.0804 32.7152 66.1872C32.7294 66.2583 32.7508 66.3366 32.765 66.4078C32.7863 66.5074 32.8077 66.607 32.829 66.7066C32.8504 66.7849 32.8717 66.8561 32.8931 66.9344C32.9215 67.0269 32.9429 67.1265 32.9785 67.219C32.9998 67.2973 33.0283 67.3756 33.0567 67.4538C33.0923 67.5463 33.1208 67.6389 33.1564 67.7314C33.1848 67.8096 33.2204 67.8879 33.2489 67.9662C33.2845 68.0587 33.32 68.1512 33.3627 68.2366C33.3983 68.3149 33.4339 68.3932 33.4695 68.4714C33.5122 68.564 33.5549 68.6493 33.5976 68.7419C33.6403 68.8201 33.683 68.8984 33.7257 68.9767C33.7755 69.0621 33.8182 69.1546 33.8751 69.24C33.9178 69.3183 33.9676 69.3965 34.0174 69.4748C34.0672 69.5602 34.1242 69.6527 34.1811 69.7381C34.2309 69.8164 34.2807 69.8947 34.3376 69.9658C34.3946 70.0512 34.4515 70.1366 34.5155 70.222C34.5725 70.3003 34.6294 70.3786 34.6863 70.4497C34.7504 70.5351 34.8144 70.6205 34.8785 70.7059C34.9354 70.7842 34.9994 70.8554 35.0635 70.9336C35.1346 71.019 35.1987 71.1044 35.2699 71.1827C35.3339 71.261 35.3979 71.3321 35.462 71.4104C35.5331 71.4958 35.6114 71.5741 35.6826 71.6595C35.7537 71.7306 35.8178 71.8089 35.889 71.8801C35.9672 71.9584 36.0455 72.0438 36.1238 72.122C36.1949 72.1932 36.2732 72.2715 36.3444 72.3426C36.4298 72.4209 36.5081 72.5063 36.5934 72.5846C36.6717 72.6557 36.75 72.7269 36.8283 72.8052C36.9137 72.8835 37.0062 72.9617 37.0916 73.04C37.1698 73.1112 37.2552 73.1823 37.3406 73.2535C37.4331 73.3318 37.5257 73.41 37.6182 73.4883C37.7036 73.5595 37.7889 73.6307 37.8743 73.7018C37.974 73.7801 38.0665 73.8584 38.1661 73.9366C38.2586 74.0078 38.344 74.079 38.4365 74.143C38.5361 74.2213 38.6429 74.2996 38.7496 74.3707C38.8421 74.4419 38.9346 74.5059 39.0272 74.5771C39.1339 74.6554 39.2406 74.7265 39.3545 74.8048C39.4541 74.8689 39.5466 74.94 39.6463 75.0041C39.7601 75.0823 39.8668 75.1535 39.9807 75.2247C40.0803 75.2887 40.18 75.3599 40.2867 75.4239C40.4006 75.4951 40.5215 75.5734 40.6354 75.6445C40.7421 75.7086 40.8418 75.7726 40.9485 75.8367C41.0695 75.9078 41.1904 75.979 41.3185 76.0573C41.4253 76.1213 41.532 76.1854 41.6388 76.2494C41.7668 76.3206 41.8949 76.3917 42.023 76.47C42.1298 76.534 42.2365 76.591 42.3504 76.655C42.4856 76.7262 42.6208 76.7973 42.756 76.8756C42.8627 76.9325 42.9766 76.9895 43.0833 77.0464C43.2256 77.1176 43.368 77.1887 43.5103 77.267C43.617 77.3239 43.7309 77.3809 43.8376 77.4307C43.9871 77.5089 44.1436 77.5801 44.3002 77.6513C44.4069 77.7011 44.5137 77.758 44.6204 77.8078C44.7912 77.8861 44.962 77.9644 45.1328 78.0427C45.2324 78.0854 45.3249 78.1352 45.4245 78.1779C45.6451 78.2775 45.8657 78.37 46.0934 78.4696C46.1432 78.491 46.2002 78.5123 46.25 78.5408C46.5275 78.6618 46.8122 78.7756 47.0968 78.8895C47.1893 78.9251 47.2747 78.9606 47.3672 78.9962C47.5665 79.0745 47.7657 79.1528 47.965 79.2311C47.9721 79.2311 47.9792 79.2382 47.9863 79.2382C48.0361 79.2595 48.0788 79.2738 48.1286 79.2951C48.399 79.4018 48.6695 79.5015 48.947 79.6011C49.0608 79.6438 49.1747 79.6794 49.2814 79.7221C49.5092 79.8004 49.7369 79.8857 49.9646 79.964C50.0856 80.0067 50.2137 80.0494 50.3346 80.0921C50.5695 80.1704 50.7972 80.2487 51.032 80.3269C51.1459 80.3625 51.2668 80.4052 51.3807 80.4408C51.6796 80.5333 51.9784 80.6329 52.2844 80.7255C52.3343 80.7397 52.3769 80.7539 52.4268 80.7681C52.4339 80.7681 52.441 80.7681 52.441 80.7753C53.0245 80.9532 53.6151 81.124 54.2129 81.2876C54.2556 81.3019 54.2983 81.309 54.341 81.3232C54.9245 81.4869 55.5223 81.6434 56.12 81.7929C56.1627 81.8 56.1983 81.8142 56.241 81.8213C56.2623 81.8285 56.2908 81.8356 56.3122 81.8356C56.8103 81.9565 57.3155 82.0775 57.8279 82.1985C57.9346 82.2198 58.0342 82.2483 58.141 82.2697C58.6533 82.3835 59.1728 82.4974 59.6994 82.6041C59.7208 82.6112 59.7421 82.6112 59.7635 82.6183C59.8204 82.6326 59.8773 82.6397 59.9342 82.6539C60.3683 82.7393 60.8024 82.8247 61.2365 82.9101C61.3432 82.9315 61.4429 82.9528 61.5496 82.967C62.0406 83.0595 62.5387 83.1449 63.0369 83.2303C63.0724 83.2374 63.108 83.2446 63.1365 83.2517C63.2076 83.2659 63.2859 83.273 63.3571 83.2873C63.7556 83.3513 64.1612 83.4153 64.5597 83.4794C64.6736 83.4936 64.7874 83.515 64.9013 83.5292C65.3923 83.6004 65.8762 83.6715 66.3743 83.7427C66.4028 83.7427 66.4241 83.7498 66.4526 83.7569C66.5238 83.764 66.5949 83.7783 66.6661 83.7854C67.0646 83.8352 67.4631 83.8921 67.8616 83.9348C67.9968 83.9491 68.132 83.9704 68.2743 83.9846C68.7582 84.0416 69.2421 84.0985 69.726 84.1483C69.7331 84.1483 69.7473 84.1483 69.7545 84.1483C69.7545 84.1483 69.7545 84.1483 69.7616 84.1483C70.2526 84.1981 70.7507 84.2479 71.2488 84.2906C71.3912 84.3049 71.5264 84.312 71.6687 84.3262C72.0672 84.3618 72.4657 84.3903 72.8642 84.4258C72.9496 84.433 73.0279 84.4401 73.1133 84.4472C73.1488 84.4472 73.1844 84.4543 73.22 84.4543C73.7252 84.4899 74.2376 84.5255 74.75 84.5611C74.8567 84.5682 74.9634 84.5753 75.0702 84.5824C75.49 84.6037 75.9099 84.6322 76.3368 84.6464C76.4151 84.6536 76.5005 84.6536 76.5788 84.6607C76.6428 84.6607 76.7069 84.6678 76.7638 84.6678C77.2975 84.6891 77.8383 84.7105 78.372 84.7318C78.3934 84.7318 78.4219 84.7318 78.4432 84.7318C78.9627 84.7461 79.4822 84.7603 80.0016 84.7674C80.0728 84.7674 80.144 84.7745 80.2151 84.7745C80.2863 84.7745 80.3574 84.7745 80.4286 84.7745C81.005 84.7817 81.5885 84.7888 82.172 84.7888C82.7484 84.7888 83.3248 84.7817 83.8941 84.7745C83.9653 84.7745 84.0365 84.7745 84.1076 84.7745C84.1717 84.7745 84.2286 84.7745 84.2926 84.7674C84.9117 84.7603 85.5237 84.739 86.1357 84.7247C86.2211 84.7247 86.3065 84.7176 86.399 84.7176C86.9825 84.6963 87.566 84.6749 88.1496 84.6464C88.1994 84.6464 88.2563 84.6393 88.3132 84.6393C88.3346 84.6393 88.3488 84.6393 88.3702 84.6393C89.1245 84.6037 89.8717 84.5539 90.6117 84.5041C90.6758 84.497 90.7469 84.497 90.811 84.4899C91.5439 84.4401 92.2769 84.376 92.9956 84.312C93.0454 84.3049 93.0881 84.3049 93.1379 84.2978C93.1664 84.2978 93.202 84.2906 93.2305 84.2906C93.7499 84.2408 94.2694 84.191 94.7818 84.1341C94.8956 84.1199 95.0166 84.1056 95.1305 84.0985C95.5645 84.0487 95.9986 83.9989 96.4256 83.9491C96.5323 83.9348 96.6391 83.9206 96.7529 83.9064C97.2582 83.8423 97.7634 83.7783 98.2615 83.7071C98.3683 83.6929 98.475 83.6786 98.5818 83.6644C99.0016 83.6075 99.4215 83.5434 99.8413 83.4794C99.9125 83.4652 99.9836 83.458 100.055 83.4438C100.09 83.4367 100.126 83.4296 100.154 83.4296C100.724 83.3371 101.286 83.2446 101.841 83.1449C101.948 83.1236 102.047 83.1094 102.154 83.088C102.716 82.9884 103.271 82.8816 103.819 82.7749C103.89 82.7607 103.962 82.7464 104.033 82.7322C104.581 82.6255 105.121 82.5116 105.662 82.3906C105.698 82.3835 105.741 82.3764 105.776 82.3693C106.324 82.2483 106.858 82.1273 107.391 81.9992C107.484 81.9779 107.577 81.9565 107.669 81.9352C108.181 81.8071 108.694 81.679 109.192 81.5509C109.284 81.5296 109.377 81.5011 109.469 81.4798C109.982 81.3446 110.487 81.2022 110.978 81.0599C111.028 81.0457 111.078 81.0314 111.127 81.0172C111.611 80.8749 112.095 80.7254 112.565 80.5831C112.615 80.5689 112.672 80.5475 112.721 80.5333C113.198 80.3839 113.668 80.2273 114.138 80.0636C114.187 80.0494 114.237 80.0352 114.28 80.0138C114.323 79.9996 114.358 79.9854 114.401 79.9711C114.821 79.8217 115.241 79.6723 115.653 79.5228C115.717 79.4944 115.788 79.473 115.853 79.4445C116.23 79.3022 116.6 79.1599 116.963 79.0105C117.027 78.982 117.091 78.9606 117.162 78.9322C117.553 78.7756 117.945 78.612 118.322 78.4483C118.407 78.4127 118.485 78.3771 118.571 78.3415C118.955 78.1707 119.339 78 119.709 77.8292C119.709 77.8292 119.709 77.8292 119.717 77.8292C119.745 77.8149 119.781 77.8007 119.809 77.7865C120.044 77.6726 120.286 77.5588 120.514 77.4449C120.606 77.4022 120.699 77.3524 120.784 77.3097C120.955 77.2243 121.126 77.1389 121.289 77.0535C121.389 77.0037 121.488 76.9468 121.595 76.8898C121.745 76.8116 121.901 76.7262 122.051 76.6479C122.157 76.591 122.257 76.534 122.364 76.4771C122.506 76.3988 122.648 76.3206 122.784 76.2423C122.826 76.2209 122.862 76.1996 122.905 76.1711C122.99 76.1213 123.068 76.0715 123.147 76.0288C123.239 75.9719 123.324 75.9221 123.417 75.8651C123.545 75.7868 123.673 75.7086 123.794 75.6303C123.879 75.5805 123.965 75.5235 124.043 75.4737C124.178 75.3883 124.314 75.3029 124.442 75.2104C124.513 75.1677 124.577 75.1179 124.648 75.0752C124.826 74.9543 125.004 74.8333 125.175 74.7123C125.196 74.6981 125.21 74.6838 125.232 74.6767C125.232 74.6767 125.239 74.6767 125.239 74.6696C125.523 74.4632 125.801 74.2569 126.071 74.0505C126.128 74.0078 126.178 73.9651 126.235 73.9224C126.498 73.716 126.747 73.5097 126.996 73.3033C127.011 73.2891 127.032 73.2748 127.046 73.2606C127.082 73.2321 127.11 73.2037 127.139 73.1752C127.331 73.0044 127.523 72.8336 127.708 72.6629C127.751 72.6202 127.793 72.5846 127.836 72.5419C128.042 72.3426 128.249 72.1434 128.441 71.937C128.455 71.9228 128.476 71.9085 128.491 71.8872C128.519 71.8587 128.548 71.8232 128.576 71.7947C128.726 71.6381 128.868 71.4745 129.01 71.3108C129.053 71.261 129.096 71.2183 129.131 71.1685C129.302 70.9692 129.459 70.77 129.608 70.5707C129.615 70.5636 129.622 70.5494 129.636 70.5422C129.658 70.5138 129.679 70.4853 129.7 70.4497C129.821 70.2861 129.935 70.1224 130.049 69.9587C130.085 69.9018 130.127 69.8449 130.163 69.7879C130.291 69.5958 130.412 69.4037 130.519 69.2044C130.526 69.1973 130.526 69.1902 130.533 69.1831C130.533 69.1831 130.533 69.1831 130.533 69.1759C130.647 68.9767 130.754 68.7703 130.853 68.564C130.882 68.507 130.91 68.4501 130.932 68.3932C131.01 68.2295 131.081 68.0658 131.145 67.9022C131.159 67.8666 131.173 67.831 131.188 67.8025C131.195 67.7883 131.195 67.7741 131.202 67.7598C131.28 67.5535 131.359 67.34 131.423 67.1265C131.437 67.0838 131.451 67.034 131.458 66.9913C131.508 66.8205 131.551 66.6426 131.593 66.4647C131.6 66.4291 131.615 66.3935 131.622 66.3651C131.629 66.3437 131.629 66.3153 131.636 66.2939C131.679 66.0733 131.721 65.8456 131.75 65.6179C131.757 65.5894 131.757 65.5538 131.757 65.5254C131.778 65.3261 131.793 65.1197 131.8 64.9205C131.8 64.8849 131.807 64.8564 131.807 64.8209C131.807 64.7497 131.807 64.6785 131.807 64.6145V52.1399C131.814 52.2466 131.814 52.3463 131.807 52.4459Z" fill="#454545"/>
<path d="M82.1863 31.9587C109.598 31.9587 131.814 40.9962 131.814 52.1472C131.814 63.2982 109.598 72.3286 82.1863 72.3286C54.7751 72.3286 32.5587 63.2911 32.5587 52.1472C32.5658 40.9962 54.7823 31.9587 82.1863 31.9587Z" fill="url(#paint1_linear)"/>
<g opacity="0.5">
<path opacity="0.5" d="M131.814 52.1399C131.814 63.2909 109.598 72.3213 82.1863 72.3213C54.7751 72.3213 32.5587 63.2838 32.5587 52.1399" stroke="url(#paint2_linear)" stroke-width="1.8706" stroke-miterlimit="10"/>
</g>
<g opacity="0.4">
<path d="M139.215 57.9468C139.321 61.6543 127.822 64.9918 113.547 65.3974C101.677 65.7319 91.6223 63.9386 88.4983 61.1918L81.3893 59.5835L88.3489 57.5625C91.359 54.652 101.293 52.2966 113.163 51.955C127.445 51.5565 139.108 54.2393 139.215 57.9468Z" fill="url(#paint3_linear)"/>
</g>
<path d="M84.2927 2.59739C84.6342 2.63297 84.9758 2.67567 85.3103 2.71837C85.4384 2.7326 85.5593 2.74683 85.6874 2.76818C86.1998 2.84646 86.6979 2.93897 87.2032 3.03859C87.3455 3.06706 87.4807 3.10264 87.623 3.1311C87.9859 3.2165 88.356 3.30189 88.7118 3.40152C88.9039 3.45133 89.1032 3.50826 89.2953 3.56519C89.459 3.615 89.6155 3.66481 89.7792 3.71463C90.014 3.78579 90.2417 3.86407 90.4766 3.94946C90.6331 3.99927 90.7826 4.0562 90.9391 4.11313C91.1811 4.20564 91.423 4.29815 91.6578 4.39066C91.793 4.44759 91.9282 4.4974 92.0634 4.55433C92.3481 4.67531 92.6256 4.79628 92.9031 4.93149C92.9885 4.97419 93.081 5.00977 93.1664 5.05246C93.2376 5.08804 93.3016 5.12362 93.3728 5.15209C93.7428 5.32999 94.1058 5.52213 94.4616 5.71426C94.6039 5.79254 94.7391 5.87082 94.8743 5.9491C95.159 6.11277 95.4436 6.27644 95.7211 6.45434C95.8634 6.53974 96.0058 6.63225 96.1481 6.72476C96.4327 6.90978 96.7174 7.10191 96.9949 7.29405C97.1088 7.37233 97.2297 7.45772 97.3436 7.536C97.7279 7.81353 98.105 8.10529 98.475 8.40417C98.5177 8.43975 98.5604 8.48245 98.6103 8.51803C98.9305 8.78844 99.2507 9.05885 99.5567 9.3435C99.6706 9.45024 99.7844 9.55698 99.8983 9.66373C100.14 9.89144 100.375 10.1192 100.603 10.354C100.717 10.475 100.838 10.5959 100.951 10.7169C101.179 10.9589 101.407 11.2079 101.627 11.4641C101.72 11.5709 101.82 11.6776 101.912 11.7915C102.218 12.1544 102.517 12.5244 102.809 12.9016C103.051 13.2147 103.278 13.542 103.506 13.8694C103.57 13.969 103.634 14.0615 103.698 14.1611C103.855 14.396 104.011 14.6308 104.161 14.8656C104.239 14.9937 104.317 15.1289 104.396 15.257C104.524 15.4705 104.652 15.684 104.766 15.8975C104.844 16.0398 104.922 16.1892 105.001 16.3316C105.1 16.5166 105.2 16.7087 105.292 16.9008C105.484 17.2851 105.669 17.6694 105.84 18.0608C105.869 18.1248 105.904 18.1889 105.933 18.2529C106.132 18.7083 106.31 19.178 106.481 19.6477C106.538 19.8042 106.587 19.9608 106.644 20.1245C106.737 20.3949 106.829 20.6653 106.908 20.9357C106.965 21.1136 107.014 21.2915 107.064 21.4694C107.135 21.7327 107.207 22.0031 107.278 22.2735C107.327 22.4657 107.37 22.6507 107.413 22.8428C107.463 23.0777 107.512 23.3125 107.555 23.5473C107.591 23.7466 107.633 23.9458 107.662 24.1522C107.705 24.3941 107.74 24.6361 107.769 24.878C107.797 25.0844 107.826 25.2837 107.847 25.49C107.875 25.7249 107.897 25.9668 107.918 26.2016C107.932 26.408 107.954 26.6215 107.968 26.8279C107.982 27.0698 107.989 27.3118 107.996 27.5537C108.004 27.8241 108.018 28.1017 108.018 28.3721V25.9028C108.018 25.7818 108.018 25.6537 108.018 25.5327C108.018 25.3833 108.004 25.2339 107.996 25.0844C107.989 24.8425 107.982 24.6005 107.968 24.3586C107.954 24.1522 107.939 23.9387 107.918 23.7323C107.897 23.4975 107.875 23.2556 107.847 23.0207C107.84 22.9425 107.833 22.8713 107.826 22.793C107.811 22.6649 107.783 22.5368 107.769 22.4087C107.733 22.1668 107.698 21.9248 107.662 21.6829C107.626 21.4836 107.591 21.2773 107.555 21.078C107.512 20.8432 107.463 20.6084 107.413 20.3735C107.392 20.281 107.377 20.1814 107.356 20.0889C107.335 19.9964 107.306 19.8967 107.278 19.8042C107.214 19.5338 107.142 19.2705 107.064 19.0001C107.014 18.8222 106.965 18.6443 106.908 18.4664C106.822 18.1889 106.737 17.9185 106.644 17.648C106.602 17.5342 106.573 17.4132 106.53 17.2922C106.516 17.2495 106.495 17.214 106.481 17.1713C106.31 16.7016 106.125 16.239 105.933 15.7765C105.904 15.7124 105.876 15.6484 105.84 15.5844C105.669 15.193 105.484 14.8016 105.292 14.4244C105.264 14.3675 105.242 14.3106 105.214 14.2536C105.143 14.1184 105.072 13.9903 105.001 13.8623C104.922 13.7199 104.844 13.5705 104.766 13.4282C104.645 13.2147 104.517 13.0012 104.396 12.7877C104.317 12.6596 104.239 12.5244 104.161 12.3963C104.011 12.1544 103.855 11.9267 103.698 11.6918C103.634 11.5922 103.57 11.4926 103.506 11.4001C103.286 11.0798 103.058 10.7596 102.816 10.4465C102.816 10.4394 102.809 10.4394 102.809 10.4323C102.524 10.0551 102.225 9.68507 101.912 9.32215C101.82 9.20829 101.72 9.10155 101.627 8.99481C101.407 8.74574 101.179 8.49668 100.951 8.24761C100.838 8.12664 100.717 8.00566 100.603 7.88469C100.375 7.64986 100.14 7.42214 99.8983 7.19442C99.7844 7.08768 99.6706 6.98094 99.5567 6.8742C99.2436 6.58955 98.9305 6.31914 98.6103 6.04872C98.5676 6.01314 98.5249 5.97045 98.475 5.93487C98.105 5.63599 97.7279 5.34423 97.3436 5.0667C97.2297 4.9813 97.1088 4.90302 96.9949 4.82475C96.7174 4.63261 96.4327 4.44047 96.1481 4.25546C96.0058 4.16295 95.8634 4.07755 95.7211 3.98504C95.4436 3.80002 95.159 3.62923 94.8743 3.46556C94.7391 3.38729 94.5968 3.30901 94.4616 3.23073C94.0987 3.03859 93.7357 2.84646 93.3657 2.66855C93.3088 2.64009 93.2518 2.61163 93.1949 2.58316C93.1807 2.57604 93.1736 2.57604 93.1593 2.56893C93.0739 2.52623 92.9885 2.49065 92.896 2.44795C92.6185 2.31986 92.341 2.19177 92.0563 2.0708C91.9211 2.01387 91.7859 1.96406 91.6507 1.90713C91.4088 1.81462 91.1739 1.71499 90.932 1.6296C90.7826 1.57267 90.626 1.52286 90.4694 1.46593C90.2417 1.38765 90.0069 1.30937 89.7721 1.23109C89.6084 1.18128 89.4518 1.13147 89.2882 1.08165C89.1743 1.04607 89.0676 1.01049 88.9537 0.982028C88.8754 0.96068 88.79 0.946447 88.7047 0.917983C88.3417 0.818357 87.9788 0.732963 87.6159 0.647569C87.4736 0.619105 87.3384 0.583524 87.196 0.555059C86.6979 0.448317 86.1927 0.355807 85.6803 0.284646C85.6661 0.284646 85.6518 0.27753 85.6376 0.27753C85.5238 0.263297 85.417 0.256181 85.3032 0.234833C84.9616 0.192136 84.6271 0.149439 84.2856 0.113858C84.1077 0.099626 83.9297 0.0853937 83.759 0.0711615C83.4601 0.049813 83.1683 0.0284646 82.8623 0.0142323C82.7983 0.0142323 82.7342 0.00711615 82.6702 0C82.3713 0.00711615 82.0582 0 81.738 0C81.1687 0 80.5994 0.0213484 80.0372 0.0569292C79.9732 0.0640453 79.902 0.0569292 79.8309 0.0640453C79.7028 0.0711615 79.5818 0.0925099 79.4608 0.099626C79.2189 0.120974 78.9769 0.142323 78.735 0.170787C78.5215 0.192136 78.3152 0.220601 78.1088 0.249065C77.8668 0.284646 77.632 0.320227 77.3972 0.355807C77.2904 0.37004 77.1908 0.384272 77.0841 0.40562C76.9844 0.419853 76.8919 0.448317 76.7923 0.462549C76.5361 0.512362 76.2799 0.562176 76.0238 0.619105C75.8316 0.661802 75.6395 0.704498 75.4474 0.747195C75.1912 0.811241 74.935 0.875286 74.6788 0.946447C74.5578 0.982028 74.4298 1.01049 74.3017 1.04607C74.2447 1.06031 74.1949 1.08165 74.138 1.09589C73.7822 1.20263 73.4335 1.31649 73.0777 1.43746C72.971 1.47304 72.8642 1.50151 72.7646 1.5442C72.3163 1.70788 71.868 1.87866 71.4339 2.06368C71.4125 2.0708 71.3912 2.07791 71.377 2.08503C71.32 2.10638 71.2702 2.13484 71.2133 2.16331C70.7507 2.36256 70.3024 2.57604 69.8541 2.79665C69.7331 2.86069 69.6122 2.91762 69.4912 2.98166C69.0002 3.23785 68.5092 3.50826 68.0324 3.79291C68.0182 3.80002 67.9968 3.81425 67.9826 3.82137C67.9114 3.86407 67.8474 3.91388 67.7762 3.95658C67.4346 4.16295 67.1073 4.38355 66.7728 4.60415C66.6447 4.69666 66.5095 4.78205 66.3815 4.87456C66.0897 5.08093 65.7979 5.30153 65.5133 5.51501C65.4137 5.60752 65.2998 5.69292 65.186 5.78543C64.8017 6.09142 64.4245 6.41165 64.0545 6.73899C64.026 6.76745 63.9976 6.79592 63.962 6.82438C63.6275 7.13038 63.3002 7.44349 62.98 7.76371C62.8732 7.87046 62.7665 7.98431 62.6597 8.09106C62.4107 8.34724 62.1758 8.61054 61.941 8.87383C61.8414 8.98769 61.7346 9.10155 61.635 9.22252C61.3504 9.54987 61.08 9.88433 60.8167 10.233C60.7811 10.2828 60.7384 10.3255 60.7028 10.3753C60.4039 10.7667 60.1193 11.1652 59.8489 11.5709C59.7706 11.6847 59.6923 11.8057 59.614 11.9267C59.4148 12.2255 59.2227 12.5315 59.0448 12.8446C58.9665 12.9798 58.8811 13.1222 58.8028 13.2574C58.6107 13.5918 58.4257 13.9405 58.2478 14.2821C58.1979 14.3817 58.1481 14.4742 58.0983 14.5739C57.8777 15.0151 57.6714 15.4634 57.4792 15.9259C57.4294 16.0398 57.3867 16.1537 57.344 16.2604C57.2017 16.6162 57.0594 16.972 56.9313 17.3349C56.8744 17.4844 56.8245 17.6409 56.7747 17.7904C56.6538 18.1462 56.547 18.502 56.4474 18.8578C56.4118 18.993 56.3691 19.1211 56.3335 19.2563C56.2054 19.7402 56.0845 20.2312 55.9848 20.7293C55.9706 20.8147 55.9564 20.9001 55.9421 20.9784C55.8639 21.3982 55.7927 21.8181 55.7287 22.238C55.7073 22.4016 55.686 22.5582 55.6646 22.7219C55.6219 23.0919 55.5792 23.4619 55.5508 23.8391C55.5365 23.9956 55.5223 24.1522 55.5152 24.3088C55.4867 24.8282 55.4654 25.3477 55.4654 25.8814V28.3507C55.4654 27.8241 55.4867 27.2975 55.5152 26.7781C55.5223 26.6215 55.5365 26.4649 55.5508 26.3084C55.5792 25.9312 55.6148 25.5612 55.6646 25.1912C55.686 25.0275 55.7073 24.8638 55.7287 24.7073C55.7927 24.2803 55.8639 23.8604 55.9421 23.4477C55.9564 23.3623 55.9706 23.2769 55.9848 23.1986C56.0845 22.7005 56.2054 22.2095 56.3335 21.7256C56.3691 21.5904 56.4118 21.4623 56.4474 21.3271C56.547 20.9713 56.6609 20.6084 56.7747 20.2597C56.8245 20.1031 56.8815 19.9537 56.9313 19.8042C57.0594 19.4413 57.1946 19.0855 57.344 18.7297C57.3867 18.6158 57.4294 18.502 57.4792 18.3952C57.6714 17.9398 57.8777 17.4915 58.0983 17.0432C58.1481 16.9435 58.1979 16.851 58.2478 16.7514C58.4257 16.4027 58.6107 16.0611 58.8028 15.7267C58.8811 15.5915 58.9594 15.4492 59.0448 15.3139C59.2298 15.0008 59.4219 14.6948 59.614 14.396C59.6923 14.275 59.7635 14.1611 59.8489 14.0402C60.1264 13.6345 60.4111 13.2289 60.7028 12.8446C60.7384 12.7948 60.7811 12.7521 60.8167 12.7023C61.08 12.3607 61.3575 12.0263 61.635 11.6918C61.7346 11.578 61.8414 11.457 61.941 11.3431C62.1758 11.0798 62.4178 10.8165 62.6597 10.5604C62.7665 10.4536 62.8732 10.3398 62.98 10.233C63.3002 9.91279 63.6275 9.59968 63.962 9.29369C63.9904 9.26522 64.0189 9.23676 64.0545 9.20829C64.4174 8.88095 64.8017 8.56784 65.186 8.25473C65.2998 8.16222 65.4137 8.07683 65.5275 7.99143C65.8122 7.77083 66.1039 7.55735 66.3957 7.35098C66.5238 7.25847 66.6519 7.16596 66.7871 7.08056C67.1144 6.85996 67.4489 6.63936 67.7904 6.433C67.8758 6.38318 67.9612 6.32625 68.0466 6.27644C68.5234 5.99179 69.0073 5.72138 69.5054 5.4652C69.6264 5.40115 69.7474 5.34423 69.8683 5.28018C70.3167 5.05958 70.765 4.8461 71.2275 4.64684C71.2987 4.61838 71.377 4.5828 71.4481 4.54722C71.8893 4.3622 72.3305 4.19141 72.7788 4.02774C72.8856 3.99216 72.9852 3.95658 73.0919 3.921C73.4406 3.80002 73.7964 3.68616 74.1522 3.57942C74.3301 3.52961 74.508 3.4798 74.6931 3.42998C74.9492 3.35882 75.2054 3.29478 75.4616 3.23073C75.6537 3.18092 75.8459 3.14534 76.038 3.10264C76.2942 3.04571 76.5504 2.9959 76.8065 2.94608C77.0058 2.9105 77.2122 2.87492 77.4114 2.83934C77.6462 2.80376 77.8882 2.76818 78.123 2.7326C78.3294 2.70414 78.5429 2.67567 78.7492 2.65432C78.9912 2.62586 79.2331 2.60451 79.4751 2.58316C79.6672 2.56893 79.8593 2.5547 80.0515 2.54046C80.6136 2.50488 81.1829 2.48353 81.7522 2.48353C82.1294 2.48353 82.5065 2.49777 82.8837 2.512C83.1826 2.52623 83.4814 2.54758 83.7803 2.56893C83.9369 2.56893 84.1148 2.57604 84.2927 2.59739Z" fill="#888888"/>
<path d="M81.738 1.75806C96.2477 1.75806 108.018 13.3431 108.018 27.6324C108.018 39.5092 99.8911 49.5074 88.8185 52.5531L81.738 59.6123L74.6148 52.5958C63.5848 49.5074 55.4582 39.5092 55.4582 27.6324C55.4653 13.3431 67.2282 1.75806 81.738 1.75806Z" fill="url(#paint4_linear)"/>
<path d="M81.738 50.6525C94.4755 50.6525 104.801 40.3266 104.801 27.5891C104.801 14.8515 94.4755 4.52563 81.738 4.52563C69.0005 4.52563 58.6747 14.8515 58.6747 27.5891C58.6747 40.3266 69.0005 50.6525 81.738 50.6525Z" fill="url(#paint5_linear)"/>
<path fill-rule="evenodd" clip-rule="evenodd" d="M91.8193 23.9048H75.6439L91.1805 19.404C91.3013 19.369 91.4032 19.2874 91.4639 19.1773C91.5247 19.0672 91.5391 18.9375 91.5041 18.8168L90.6911 16.01C90.3662 14.889 89.3224 14.106 88.1527 14.106C87.9062 14.106 87.6606 14.141 87.4225 14.2099L72.8351 18.4356C72.1604 18.631 71.6013 19.0796 71.2603 19.6983C70.9196 20.3171 70.8396 21.0296 71.035 21.7041L71.8293 24.4462V35.7422C71.8293 37.1971 73.0129 38.3808 74.4677 38.3808H80.1648C80.4267 38.3808 80.6389 38.1685 80.6389 37.9066C80.6389 37.6448 80.4267 37.4325 80.1648 37.4325H74.4678C73.5357 37.4325 72.7775 36.6743 72.7775 35.7422V29.2901H75.2064H75.2075H75.2085H78.9214H78.9225H78.9236H82.6365H82.6376H82.6387H86.3516H86.3527H86.3537H91.3452V35.7422C91.3452 36.6743 90.587 37.4325 89.6549 37.4325H83.9577C83.696 37.4325 83.4836 37.6448 83.4836 37.9066C83.4836 38.1685 83.696 38.3808 83.9577 38.3808H89.6549C91.1098 38.3808 92.2934 37.1971 92.2934 35.7422V24.3789C92.2934 24.1171 92.0812 23.9048 91.8193 23.9048ZM83.4592 28.3419L85.4736 24.853H88.0936L86.0794 28.3419H83.4592ZM79.744 28.3419L81.7585 24.853H84.3785L82.3642 28.3419H79.744ZM76.0291 28.3419L78.0433 24.853H80.6636L78.6491 28.3419H76.0291ZM77.7918 22.2041L74.4186 18.9642L76.946 18.2321C76.9638 18.258 76.9845 18.2824 77.0082 18.3052L80.3815 21.5452L77.8541 22.2773C77.8363 22.2513 77.8153 22.2267 77.7918 22.2041ZM84.145 16.2378L87.5182 19.4777L84.9908 20.2098C84.973 20.1839 84.9522 20.1593 84.9285 20.1367L81.5553 16.8968L84.0827 16.1647C84.1005 16.1906 84.1212 16.215 84.145 16.2378ZM80.5765 17.2716L83.9498 20.5114L81.4223 21.2436C81.4045 21.2177 81.3838 21.1931 81.3601 21.1705L77.9868 17.9306L80.5143 17.1985C80.5322 17.2242 80.553 17.2488 80.5765 17.2716ZM87.6864 15.1207C87.8386 15.0766 87.9955 15.0542 88.1527 15.0542C88.9029 15.0542 89.5721 15.5557 89.7802 16.2739L90.4614 18.6251L88.5592 19.176C88.5413 19.1501 88.5205 19.1257 88.4968 19.1029L85.1237 15.8632L87.6864 15.1207ZM72.091 20.1558C72.3095 19.7589 72.6675 19.4714 73.099 19.3464L73.3776 19.2657C73.3955 19.2916 73.4163 19.3162 73.4398 19.3388L76.813 22.5788L72.6269 23.7915L71.9458 21.4403C71.8208 21.009 71.8724 20.5528 72.091 20.1558ZM72.7775 24.853H76.9484L74.9342 28.3419H72.7775V24.853ZM87.1743 28.3419L89.1885 24.853H91.3452V28.3419H87.1743Z" fill="#888888"/>
<path fill-rule="evenodd" clip-rule="evenodd" d="M85.3397 33.313C85.3397 33.1435 85.2493 32.987 85.1027 32.9024L80.9373 30.4976C80.7906 30.4129 80.6099 30.4129 80.4632 30.4976C80.3165 30.5822 80.2261 30.7387 80.2261 30.9082V35.7179C80.2261 35.8871 80.3165 36.0436 80.4632 36.1283C80.5365 36.1707 80.6184 36.192 80.7002 36.192C80.7821 36.192 80.864 36.1707 80.9373 36.1283L85.1027 33.7236C85.2493 33.639 85.3397 33.4825 85.3397 33.313ZM81.1744 34.8967V31.7293L83.9174 33.313L81.1744 34.8967Z" fill="#888888"/>
<path fill-rule="evenodd" clip-rule="evenodd" d="M82.0612 37.4324C81.8001 37.4324 81.5871 37.6454 81.5871 37.9065C81.5871 38.1676 81.8001 38.3806 82.0612 38.3806C82.3226 38.3806 82.5354 38.1676 82.5354 37.9065C82.5354 37.6454 82.3226 37.4324 82.0612 37.4324Z" fill="#888888"/>
<defs>
<radialGradient id="paint0_radial" cx="0" cy="0" r="1" gradientUnits="userSpaceOnUse" gradientTransform="translate(84.11 71.9009) rotate(90) scale(26.9351 79.5222)">
<stop stop-color="#4D8903"/>
<stop offset="0.0001" stop-opacity="0.78"/>
<stop offset="1" stop-color="white" stop-opacity="0"/>
</radialGradient>
<linearGradient id="paint1_linear" x1="32.5587" y1="52.7948" x2="135.051" y2="62.3898" gradientUnits="userSpaceOnUse">
<stop stop-color="#DEDEDE"/>
<stop offset="1" stop-color="#888888"/>
</linearGradient>
<linearGradient id="paint2_linear" x1="31.8969" y1="62.5668" x2="132.483" y2="62.5668" gradientUnits="userSpaceOnUse">
<stop offset="0.00744902" stop-color="#E7E7E7" stop-opacity="0"/>
<stop offset="0.4302" stop-color="white"/>
<stop offset="0.5508" stop-color="#F5F5F5" stop-opacity="0.7883"/>
<stop offset="0.7594" stop-color="#EAEAEA" stop-opacity="0.4223"/>
<stop offset="1" stop-color="#E7E7E7" stop-opacity="0"/>
</linearGradient>
<linearGradient id="paint3_linear" x1="86.9576" y1="61.4664" x2="98.9555" y2="46.5088" gradientUnits="userSpaceOnUse">
<stop stop-color="#939393"/>
<stop offset="0.3296" stop-color="#969696" stop-opacity="0.6629"/>
<stop offset="0.5748" stop-color="#989898" stop-opacity="0.4122"/>
<stop offset="0.792" stop-color="#989898" stop-opacity="0.19"/>
<stop offset="0.9778" stop-color="#C8C8C8" stop-opacity="0"/>
</linearGradient>
<linearGradient id="paint4_linear" x1="55.4623" y1="30.6851" x2="108.017" y2="30.6851" gradientUnits="userSpaceOnUse">
<stop stop-color="#EEEFEF"/>
<stop offset="1" stop-color="white"/>
</linearGradient>
<linearGradient id="paint5_linear" x1="80.8203" y1="121.426" x2="82.0927" y2="-8.36662" gradientUnits="userSpaceOnUse">
<stop offset="0.5089" stop-color="#CFD0D2"/>
<stop offset="0.7253" stop-color="#F8F8F8"/>
</linearGradient>
</defs>
</svg>
