<svg width="169" height="101" viewBox="0 0 169 101" fill="none" xmlns="http://www.w3.org/2000/svg">
<ellipse cx="84.11" cy="71.9009" rx="84.11" ry="28.4891" fill="url(#paint0_radial)"/>
<path d="M130.932 52.4459C130.925 52.6451 130.91 52.8515 130.889 53.0508C130.889 53.0792 130.882 53.1148 130.882 53.1433C130.853 53.371 130.818 53.5916 130.768 53.8193C130.754 53.8762 130.747 53.9332 130.732 53.9901C130.69 54.168 130.647 54.3388 130.597 54.5167C130.583 54.5594 130.576 54.6092 130.562 54.6519C130.498 54.8654 130.426 55.0717 130.341 55.2852C130.32 55.335 130.298 55.3849 130.284 55.4347C130.22 55.5983 130.149 55.762 130.071 55.9257C130.042 55.9826 130.021 56.0395 129.992 56.0965C129.893 56.3028 129.786 56.5092 129.672 56.7085C129.665 56.7156 129.658 56.7298 129.658 56.7369C129.544 56.9291 129.423 57.1283 129.302 57.3205C129.266 57.3774 129.224 57.4343 129.188 57.4912C129.074 57.6549 128.96 57.8186 128.84 57.9823C128.811 58.0249 128.783 58.0605 128.754 58.1032C128.605 58.3025 128.441 58.5017 128.277 58.701C128.235 58.7508 128.192 58.7935 128.156 58.8433C128.014 59.007 127.872 59.1635 127.722 59.3272C127.68 59.377 127.637 59.4197 127.587 59.4695C127.395 59.6688 127.196 59.8751 126.982 60.0744C126.94 60.1171 126.897 60.1527 126.854 60.1954C126.669 60.3662 126.484 60.5369 126.285 60.7077C126.235 60.7504 126.192 60.7931 126.143 60.8287C125.901 61.0351 125.644 61.2414 125.381 61.4478C125.324 61.4905 125.274 61.5332 125.217 61.5759C124.947 61.7823 124.669 61.9886 124.385 62.195L124.378 62.2021C124.356 62.2164 124.342 62.2306 124.321 62.2377C124.15 62.3587 123.972 62.4797 123.794 62.6006C123.723 62.6433 123.659 62.6931 123.588 62.7358C123.453 62.8212 123.325 62.9066 123.189 62.9991C123.104 63.0489 123.026 63.1059 122.94 63.1557C122.812 63.234 122.691 63.3122 122.563 63.3905C122.471 63.4475 122.385 63.4973 122.293 63.5542C122.172 63.6254 122.051 63.6965 121.93 63.7677C121.795 63.846 121.652 63.9242 121.51 64.0025C121.403 64.0594 121.304 64.1164 121.197 64.1733C121.047 64.2516 120.898 64.337 120.741 64.4152C120.642 64.4722 120.542 64.522 120.435 64.5789C120.272 64.6643 120.101 64.7497 119.93 64.8351C119.838 64.8778 119.752 64.9276 119.66 64.9703C119.425 65.0842 119.19 65.198 118.955 65.3119C118.92 65.3261 118.891 65.3403 118.856 65.3617C118.486 65.5396 118.101 65.7104 117.717 65.8741C117.632 65.9096 117.553 65.9452 117.468 65.9808C117.091 66.1445 116.699 66.3081 116.308 66.4647C116.244 66.4932 116.18 66.5145 116.109 66.543C115.746 66.6924 115.376 66.8347 114.999 66.9771C114.935 67.0055 114.863 67.0269 114.799 67.0553C114.387 67.2048 113.974 67.3542 113.547 67.5037C113.462 67.5321 113.369 67.5606 113.284 67.5962C112.821 67.7527 112.352 67.9093 111.868 68.0658C111.818 68.0801 111.761 68.1014 111.711 68.1156C111.241 68.2651 110.757 68.4074 110.274 68.5497C110.224 68.564 110.174 68.5782 110.124 68.5924C109.626 68.7347 109.121 68.8771 108.616 69.0123C108.523 69.0336 108.431 69.0621 108.338 69.0834C107.833 69.2186 107.328 69.3467 106.815 69.4677C106.723 69.4891 106.63 69.5104 106.538 69.5318C106.004 69.6598 105.47 69.7879 104.922 69.9018C104.887 69.9089 104.844 69.916 104.808 69.9231C104.275 70.037 103.727 70.1509 103.179 70.2647C103.108 70.2789 103.037 70.2932 102.965 70.3074C102.417 70.4142 101.862 70.5209 101.3 70.6205C101.193 70.6419 101.094 70.6561 100.987 70.6775C100.432 70.7771 99.8699 70.8696 99.3006 70.9621C99.1938 70.9763 99.0871 70.9977 98.9804 71.0119C98.5676 71.076 98.1478 71.14 97.7208 71.1969C97.6141 71.2112 97.5073 71.2254 97.4006 71.2396C96.9025 71.3108 96.3972 71.3748 95.892 71.4389C95.7852 71.4531 95.6785 71.4673 95.5646 71.4816C95.1377 71.5314 94.7036 71.5812 94.2695 71.631C94.1556 71.6453 94.0347 71.6595 93.9208 71.6666C93.4085 71.7235 92.889 71.7733 92.3695 71.8232C92.2912 71.8303 92.213 71.8374 92.1347 71.8445C91.4088 71.9085 90.683 71.9726 89.95 72.0224C89.886 72.0295 89.8148 72.0295 89.7508 72.0366C89.0107 72.0865 88.2635 72.1363 87.5092 72.1718C87.438 72.179 87.3669 72.179 87.2886 72.179C86.7051 72.2074 86.1287 72.2288 85.5381 72.2501C85.4527 72.2501 85.3673 72.2572 85.2748 72.2572C84.6628 72.2786 84.0437 72.2928 83.4317 72.2999C83.2965 72.2999 83.1684 72.3071 83.0332 72.3071C82.4639 72.3142 81.8875 72.3213 81.3111 72.3213C80.7276 72.3213 80.1512 72.3142 79.5676 72.3071C79.4253 72.3071 79.283 72.2999 79.1407 72.2999C78.6212 72.2928 78.1017 72.2786 77.5823 72.2644C77.5609 72.2644 77.5324 72.2644 77.5111 72.2644C76.9703 72.2501 76.4366 72.2288 75.9029 72.2003C75.7605 72.1932 75.6182 72.1861 75.4759 72.179C75.056 72.1576 74.6291 72.1363 74.2092 72.1149C74.1025 72.1078 73.9957 72.1007 73.889 72.0936C73.3766 72.0651 72.8714 72.0295 72.359 71.9868C72.2381 71.9797 72.1171 71.9655 71.9961 71.9584C71.5976 71.9299 71.1991 71.8943 70.8006 71.8587C70.6583 71.8445 70.5231 71.8374 70.3808 71.8232C69.8826 71.7805 69.3845 71.7306 68.8935 71.6808C68.8864 71.6808 68.8722 71.6808 68.865 71.6808C68.374 71.631 67.8901 71.5741 67.4134 71.5172C67.2782 71.5029 67.1429 71.4816 67.0006 71.4673C66.6021 71.4175 66.2036 71.3677 65.8051 71.3179C65.7055 71.3037 65.613 71.2894 65.5134 71.2823C65.0224 71.2183 64.5313 71.1471 64.0403 71.0688C63.9265 71.0546 63.8126 71.0333 63.6988 71.019C63.2931 70.955 62.8946 70.8909 62.4961 70.8269C62.3894 70.8055 62.2827 70.7913 62.1759 70.7771C61.6778 70.6917 61.1797 70.6063 60.6886 70.5138C60.5819 70.4924 60.4823 70.4711 60.3755 70.4569C59.9343 70.3715 59.5003 70.2861 59.0733 70.2007C58.995 70.1864 58.9167 70.1722 58.8456 70.1509C58.319 70.0441 57.7995 69.9303 57.2872 69.8164C57.1804 69.7951 57.0808 69.7666 56.974 69.7452C56.4617 69.6314 55.9564 69.5104 55.4583 69.3823C55.3943 69.3681 55.3302 69.3538 55.2733 69.3325C54.6684 69.1831 54.0778 69.0265 53.4943 68.8628C53.4516 68.8486 53.4089 68.8415 53.3662 68.8273C52.7684 68.6636 52.1778 68.4928 51.5943 68.3149C51.5445 68.3007 51.4875 68.2793 51.4377 68.2651C51.1317 68.1726 50.8329 68.0801 50.534 67.9804C50.4201 67.9449 50.2991 67.9022 50.1853 67.8666C49.9505 67.7883 49.7156 67.71 49.4879 67.6317C49.3598 67.589 49.2388 67.5463 49.1179 67.5037C48.8902 67.4254 48.6624 67.34 48.4347 67.2617C48.3209 67.219 48.207 67.1834 48.1003 67.1407C47.8227 67.0411 47.5523 66.9344 47.2819 66.8347C47.225 66.8134 47.1681 66.792 47.1111 66.7707C46.9119 66.6924 46.7126 66.6141 46.5134 66.5359C46.4209 66.5003 46.3284 66.4647 46.243 66.4291C45.9583 66.3153 45.6737 66.1943 45.3962 66.0804C45.3463 66.0591 45.2894 66.0377 45.2396 66.0093C45.0119 65.9096 44.7913 65.8171 44.5707 65.7175C44.4711 65.6748 44.3714 65.625 44.2789 65.5823C44.1081 65.504 43.9374 65.4257 43.7666 65.3475C43.6598 65.2976 43.5531 65.2478 43.4463 65.1909C43.2898 65.1197 43.1404 65.0415 42.9838 64.9703C42.8699 64.9134 42.7632 64.8564 42.6565 64.8066C42.5141 64.7355 42.3718 64.6643 42.2295 64.586C42.1156 64.5291 42.0089 64.4722 41.9022 64.4152C41.7669 64.3441 41.6317 64.2729 41.4965 64.1946C41.3898 64.1377 41.2759 64.0737 41.1692 64.0096C41.0411 63.9385 40.913 63.8673 40.7849 63.789C40.6782 63.725 40.5714 63.6609 40.4647 63.5969C40.3437 63.5257 40.2156 63.4546 40.0947 63.3763C39.9879 63.3122 39.8883 63.2482 39.7816 63.1842C39.6606 63.113 39.5467 63.0347 39.4329 62.9636C39.3332 62.8995 39.2265 62.8283 39.1269 62.7643C39.013 62.6931 38.8992 62.6149 38.7924 62.5437C38.6928 62.4797 38.6003 62.4085 38.5007 62.3444C38.3939 62.2662 38.2801 62.195 38.1733 62.1167C38.0666 62.0456 37.9741 61.9815 37.8816 61.9104C37.7748 61.8321 37.6752 61.7538 37.5684 61.6826C37.4759 61.6115 37.3905 61.5474 37.298 61.4763C37.1984 61.398 37.0988 61.3197 37.0063 61.2414C36.9209 61.1703 36.8355 61.0991 36.7501 61.028C36.6576 60.9497 36.5651 60.8714 36.4726 60.7931C36.3872 60.722 36.3089 60.6508 36.2235 60.5796C36.131 60.5014 36.0456 60.4231 35.9602 60.3448C35.8819 60.2737 35.8037 60.2025 35.7254 60.1242C35.64 60.0459 35.5546 59.9605 35.4763 59.8823C35.398 59.8111 35.3269 59.7328 35.2557 59.6617C35.1774 59.5834 35.0992 59.498 35.0209 59.4197C34.9497 59.3485 34.8786 59.2703 34.8145 59.1991C34.7291 59.1066 34.6508 59.0283 34.5797 58.9429C34.5156 58.8647 34.4516 58.7935 34.3876 58.7152C34.3164 58.6298 34.2452 58.5515 34.1812 58.4662C34.1171 58.3879 34.0602 58.3167 33.9962 58.2384C33.9321 58.153 33.8681 58.0748 33.804 57.9894C33.7471 57.9111 33.6902 57.8399 33.6332 57.7616C33.5692 57.6763 33.5123 57.5909 33.4553 57.5055C33.4055 57.4272 33.3486 57.3489 33.2988 57.2778C33.2419 57.1924 33.192 57.107 33.1351 57.0145C33.0853 56.9362 33.0426 56.8579 32.9928 56.7796C32.943 56.6942 32.8932 56.6017 32.8434 56.5163C32.8007 56.438 32.758 56.3598 32.7153 56.2815C32.6726 56.189 32.6299 56.1036 32.5872 56.0111C32.5516 55.9328 32.5089 55.8545 32.4804 55.7762C32.4377 55.6837 32.4022 55.5912 32.3666 55.5058C32.331 55.4276 32.3025 55.3493 32.2741 55.271C32.2385 55.1785 32.21 55.086 32.1744 54.9935C32.146 54.9152 32.1175 54.8369 32.0962 54.7586C32.0677 54.6661 32.0392 54.5665 32.0108 54.474C31.9894 54.3957 31.9681 54.3246 31.9467 54.2463C31.9183 54.1467 31.904 54.047 31.8827 53.9474C31.8685 53.8762 31.8471 53.798 31.8329 53.7268C31.8115 53.6201 31.7973 53.5204 31.7831 53.4137C31.7688 53.3425 31.7617 53.2714 31.7475 53.2073C31.7404 53.0792 31.7332 52.9654 31.719 52.8515C31.7119 52.7946 31.7048 52.7305 31.7048 52.6736C31.6906 52.4957 31.6906 52.3178 31.6906 52.147V64.6145C31.6906 64.7924 31.6977 64.9703 31.7048 65.1411C31.7119 65.198 31.719 65.2621 31.719 65.319C31.7261 65.4329 31.7404 65.5538 31.7546 65.6677C31.7617 65.7388 31.7759 65.81 31.7902 65.8741C31.8044 65.9808 31.8186 66.0804 31.84 66.1872C31.8542 66.2583 31.8756 66.3366 31.8898 66.4078C31.9112 66.5074 31.9325 66.607 31.9538 66.7066C31.9752 66.7849 31.9965 66.8561 32.0179 66.9344C32.0464 67.0269 32.0677 67.1265 32.1033 67.219C32.1246 67.2973 32.1531 67.3756 32.1816 67.4538C32.2171 67.5463 32.2456 67.6389 32.2812 67.7314C32.3097 67.8096 32.3452 67.8879 32.3737 67.9662C32.4093 68.0587 32.4449 68.1512 32.4876 68.2366C32.5231 68.3149 32.5587 68.3932 32.5943 68.4714C32.637 68.564 32.6797 68.6493 32.7224 68.7419C32.7651 68.8201 32.8078 68.8984 32.8505 68.9767C32.9003 69.0621 32.943 69.1546 32.9999 69.24C33.0426 69.3183 33.0924 69.3965 33.1422 69.4748C33.192 69.5602 33.249 69.6527 33.3059 69.7381C33.3557 69.8164 33.4055 69.8947 33.4625 69.9658C33.5194 70.0512 33.5763 70.1366 33.6404 70.222C33.6973 70.3003 33.7542 70.3786 33.8111 70.4497C33.8752 70.5351 33.9392 70.6205 34.0033 70.7059C34.0602 70.7842 34.1243 70.8554 34.1883 70.9336C34.2595 71.019 34.3235 71.1044 34.3947 71.1827C34.4587 71.261 34.5228 71.3321 34.5868 71.4104C34.658 71.4958 34.7362 71.5741 34.8074 71.6595C34.8786 71.7306 34.9426 71.8089 35.0138 71.8801C35.092 71.9584 35.1703 72.0438 35.2486 72.122C35.3198 72.1932 35.398 72.2715 35.4692 72.3426C35.5546 72.4209 35.6329 72.5063 35.7183 72.5846C35.7965 72.6557 35.8748 72.7269 35.9531 72.8052C36.0385 72.8835 36.131 72.9617 36.2164 73.04C36.2947 73.1112 36.3801 73.1823 36.4655 73.2535C36.558 73.3318 36.6505 73.41 36.743 73.4883C36.8284 73.5595 36.9138 73.6307 36.9992 73.7018C37.0988 73.7801 37.1913 73.8584 37.2909 73.9366C37.3834 74.0078 37.4688 74.079 37.5613 74.143C37.661 74.2213 37.7677 74.2996 37.8744 74.3707C37.9669 74.4419 38.0595 74.5059 38.152 74.5771C38.2587 74.6554 38.3655 74.7265 38.4793 74.8048C38.5789 74.8689 38.6714 74.94 38.7711 75.0041C38.8849 75.0823 38.9917 75.1535 39.1055 75.2247C39.2051 75.2887 39.3048 75.3599 39.4115 75.4239C39.5254 75.4951 39.6463 75.5734 39.7602 75.6445C39.8669 75.7086 39.9666 75.7726 40.0733 75.8367C40.1943 75.9078 40.3153 75.979 40.4434 76.0573C40.5501 76.1213 40.6568 76.1854 40.7636 76.2494C40.8917 76.3206 41.0198 76.3917 41.1478 76.47C41.2546 76.534 41.3613 76.591 41.4752 76.655C41.6104 76.7262 41.7456 76.7973 41.8808 76.8756C41.9875 76.9325 42.1014 76.9895 42.2081 77.0464C42.3505 77.1176 42.4928 77.1887 42.6351 77.267C42.7418 77.3239 42.8557 77.3809 42.9625 77.4307C43.1119 77.5089 43.2684 77.5801 43.425 77.6513C43.5317 77.7011 43.6385 77.758 43.7452 77.8078C43.916 77.8861 44.0868 77.9644 44.2576 78.0427C44.3572 78.0854 44.4497 78.1352 44.5493 78.1779C44.7699 78.2775 44.9905 78.37 45.2183 78.4696C45.2681 78.491 45.325 78.5123 45.3748 78.5408C45.6523 78.6618 45.937 78.7756 46.2216 78.8895C46.3141 78.9251 46.3995 78.9606 46.492 78.9962C46.6913 79.0745 46.8905 79.1528 47.0898 79.2311C47.0969 79.2311 47.104 79.2382 47.1111 79.2382C47.1609 79.2595 47.2036 79.2738 47.2535 79.2951C47.5239 79.4018 47.7943 79.5015 48.0718 79.6011C48.1857 79.6438 48.2995 79.6794 48.4063 79.7221C48.634 79.8004 48.8617 79.8857 49.0894 79.964C49.2104 80.0067 49.3385 80.0494 49.4594 80.0921C49.6943 80.1704 49.922 80.2487 50.1568 80.3269C50.2707 80.3625 50.3917 80.4052 50.5055 80.4408C50.8044 80.5333 51.1033 80.6329 51.4093 80.7255C51.4591 80.7397 51.5018 80.7539 51.5516 80.7681C51.5587 80.7681 51.5658 80.7681 51.5658 80.7753C52.1493 80.9532 52.74 81.124 53.3377 81.2876C53.3804 81.3019 53.4231 81.309 53.4658 81.3232C54.0493 81.4869 54.6471 81.6434 55.2448 81.7929C55.2875 81.8 55.3231 81.8142 55.3658 81.8213C55.3872 81.8285 55.4156 81.8356 55.437 81.8356C55.9351 81.9565 56.4403 82.0775 56.9527 82.1985C57.0594 82.2198 57.1591 82.2483 57.2658 82.2697C57.7782 82.3835 58.2976 82.4974 58.8242 82.6041C58.8456 82.6112 58.8669 82.6112 58.8883 82.6183C58.9452 82.6326 59.0021 82.6397 59.0591 82.6539C59.4931 82.7393 59.9272 82.8247 60.3613 82.9101C60.468 82.9315 60.5677 82.9528 60.6744 82.967C61.1654 83.0595 61.6636 83.1449 62.1617 83.2303C62.1973 83.2374 62.2328 83.2446 62.2613 83.2517C62.3325 83.2659 62.4107 83.273 62.4819 83.2873C62.8804 83.3513 63.286 83.4153 63.6845 83.4794C63.7984 83.4936 63.9122 83.515 64.0261 83.5292C64.5171 83.6004 65.001 83.6715 65.4991 83.7427C65.5276 83.7427 65.5489 83.7498 65.5774 83.7569C65.6486 83.764 65.7197 83.7783 65.7909 83.7854C66.1894 83.8352 66.5879 83.8921 66.9864 83.9348C67.1216 83.9491 67.2568 83.9704 67.3991 83.9846C67.883 84.0416 68.3669 84.0985 68.8508 84.1483C68.8579 84.1483 68.8722 84.1483 68.8793 84.1483C68.8793 84.1483 68.8793 84.1483 68.8864 84.1483C69.3774 84.1981 69.8755 84.2479 70.3737 84.2906C70.516 84.3049 70.6512 84.312 70.7935 84.3262C71.192 84.3618 71.5905 84.3903 71.989 84.4258C72.0744 84.433 72.1527 84.4401 72.2381 84.4472C72.2737 84.4472 72.3092 84.4543 72.3448 84.4543C72.8501 84.4899 73.3624 84.5255 73.8748 84.5611C73.9815 84.5682 74.0883 84.5753 74.195 84.5824C74.6148 84.6037 75.0347 84.6322 75.4617 84.6464C75.5399 84.6536 75.6253 84.6536 75.7036 84.6607C75.7677 84.6607 75.8317 84.6678 75.8886 84.6678C76.4223 84.6891 76.9632 84.7105 77.4969 84.7318C77.5182 84.7318 77.5467 84.7318 77.568 84.7318C78.0875 84.7461 78.607 84.7603 79.1264 84.7674C79.1976 84.7674 79.2688 84.7745 79.3399 84.7745C79.4111 84.7745 79.4823 84.7745 79.5534 84.7745C80.1298 84.7817 80.7133 84.7888 81.2969 84.7888C81.8733 84.7888 82.4497 84.7817 83.019 84.7745C83.0901 84.7745 83.1613 84.7745 83.2324 84.7745C83.2965 84.7745 83.3534 84.7745 83.4175 84.7674C84.0366 84.7603 84.6485 84.739 85.2605 84.7247C85.3459 84.7247 85.4313 84.7176 85.5238 84.7176C86.1073 84.6963 86.6909 84.6749 87.2744 84.6464C87.3242 84.6464 87.3811 84.6393 87.438 84.6393C87.4594 84.6393 87.4736 84.6393 87.495 84.6393C88.2493 84.6037 88.9965 84.5539 89.7366 84.5041C89.8006 84.497 89.8718 84.497 89.9358 84.4899C90.6688 84.4401 91.4017 84.376 92.1204 84.312C92.1703 84.3049 92.213 84.3049 92.2628 84.2978C92.2912 84.2978 92.3268 84.2906 92.3553 84.2906C92.8748 84.2408 93.3942 84.191 93.9066 84.1341C94.0204 84.1199 94.1414 84.1056 94.2553 84.0985C94.6894 84.0487 95.1234 83.9989 95.5504 83.9491C95.6571 83.9348 95.7639 83.9206 95.8777 83.9064C96.383 83.8423 96.8882 83.7783 97.3864 83.7071C97.4931 83.6929 97.5998 83.6786 97.7066 83.6644C98.1264 83.6075 98.5463 83.5434 98.9661 83.4794C99.0373 83.4652 99.1085 83.458 99.1796 83.4438C99.2152 83.4367 99.2508 83.4296 99.2792 83.4296C99.8485 83.3371 100.411 83.2446 100.966 83.1449C101.072 83.1236 101.172 83.1094 101.279 83.088C101.841 82.9884 102.396 82.8816 102.944 82.7749C103.015 82.7607 103.086 82.7464 103.158 82.7322C103.705 82.6255 104.246 82.5116 104.787 82.3906C104.823 82.3835 104.865 82.3764 104.901 82.3693C105.449 82.2483 105.983 82.1273 106.516 81.9992C106.609 81.9779 106.701 81.9565 106.794 81.9352C107.306 81.8071 107.819 81.679 108.317 81.5509C108.409 81.5296 108.502 81.5011 108.594 81.4798C109.107 81.3446 109.612 81.2022 110.103 81.0599C110.153 81.0457 110.202 81.0314 110.252 81.0172C110.736 80.8749 111.22 80.7254 111.69 80.5831C111.74 80.5689 111.796 80.5475 111.846 80.5333C112.323 80.3839 112.793 80.2273 113.262 80.0636C113.312 80.0494 113.362 80.0352 113.405 80.0138C113.447 79.9996 113.483 79.9854 113.526 79.9711C113.946 79.8217 114.365 79.6723 114.778 79.5228C114.842 79.4944 114.913 79.473 114.977 79.4445C115.354 79.3022 115.725 79.1599 116.087 79.0105C116.152 78.982 116.216 78.9606 116.287 78.9322C116.678 78.7756 117.069 78.612 117.447 78.4483C117.532 78.4127 117.61 78.3771 117.696 78.3415C118.08 78.1707 118.464 78 118.834 77.8292C118.834 77.8292 118.834 77.8292 118.841 77.8292C118.87 77.8149 118.905 77.8007 118.934 77.7865C119.169 77.6726 119.411 77.5588 119.638 77.4449C119.731 77.4022 119.823 77.3524 119.909 77.3097C120.08 77.2243 120.25 77.1389 120.414 77.0535C120.514 77.0037 120.613 76.9468 120.72 76.8898C120.869 76.8116 121.026 76.7262 121.175 76.6479C121.282 76.591 121.382 76.534 121.489 76.4771C121.631 76.3988 121.773 76.3206 121.908 76.2423C121.951 76.2209 121.987 76.1996 122.029 76.1711C122.115 76.1213 122.193 76.0715 122.271 76.0288C122.364 75.9719 122.449 75.9221 122.542 75.8651C122.67 75.7868 122.798 75.7086 122.919 75.6303C123.004 75.5805 123.09 75.5235 123.168 75.4737C123.303 75.3883 123.438 75.3029 123.566 75.2104C123.638 75.1677 123.702 75.1179 123.773 75.0752C123.951 74.9543 124.129 74.8333 124.299 74.7123C124.321 74.6981 124.335 74.6838 124.356 74.6767C124.356 74.6767 124.363 74.6767 124.363 74.6696C124.648 74.4632 124.926 74.2569 125.196 74.0505C125.253 74.0078 125.303 73.9651 125.36 73.9224C125.623 73.716 125.872 73.5097 126.121 73.3033C126.135 73.2891 126.157 73.2748 126.171 73.2606C126.207 73.2321 126.235 73.2037 126.263 73.1752C126.456 73.0044 126.648 72.8336 126.833 72.6629C126.875 72.6202 126.918 72.5846 126.961 72.5419C127.167 72.3426 127.374 72.1434 127.566 71.937C127.58 71.9228 127.601 71.9085 127.616 71.8872C127.644 71.8587 127.672 71.8232 127.701 71.7947C127.85 71.6381 127.993 71.4745 128.135 71.3108C128.178 71.261 128.22 71.2183 128.256 71.1685C128.427 70.9692 128.583 70.77 128.733 70.5707C128.74 70.5636 128.747 70.5494 128.761 70.5422C128.783 70.5138 128.804 70.4853 128.825 70.4497C128.946 70.2861 129.06 70.1224 129.174 69.9587C129.21 69.9018 129.252 69.8449 129.288 69.7879C129.416 69.5958 129.537 69.4037 129.644 69.2044C129.651 69.1973 129.651 69.1902 129.658 69.1831C129.658 69.1831 129.658 69.1831 129.658 69.1759C129.772 68.9767 129.878 68.7703 129.978 68.564C130.007 68.507 130.035 68.4501 130.056 68.3932C130.135 68.2295 130.206 68.0658 130.27 67.9022C130.284 67.8666 130.298 67.831 130.313 67.8025C130.32 67.7883 130.32 67.7741 130.327 67.7598C130.405 67.5535 130.483 67.34 130.547 67.1265C130.562 67.0838 130.576 67.034 130.583 66.9913C130.633 66.8205 130.675 66.6426 130.718 66.4647C130.725 66.4291 130.74 66.3935 130.747 66.3651C130.754 66.3437 130.754 66.3153 130.761 66.2939C130.804 66.0733 130.846 65.8456 130.875 65.6179C130.882 65.5894 130.882 65.5538 130.882 65.5254C130.903 65.3261 130.917 65.1197 130.925 64.9205C130.925 64.8849 130.932 64.8564 130.932 64.8209C130.932 64.7497 130.932 64.6785 130.932 64.6145V52.1399C130.939 52.2466 130.939 52.3463 130.932 52.4459Z" fill="#454545"/>
<path d="M81.3112 31.9587C108.722 31.9587 130.939 40.9962 130.939 52.1472C130.939 63.2982 108.722 72.3286 81.3112 72.3286C53.9 72.3286 31.6836 63.2911 31.6836 52.1472C31.6907 40.9962 53.9072 31.9587 81.3112 31.9587Z" fill="url(#paint1_linear)"/>
<g opacity="0.5">
<path opacity="0.5" d="M130.939 52.1399C130.939 63.2909 108.722 72.3213 81.3112 72.3213C53.9 72.3213 31.6836 63.2838 31.6836 52.1399" stroke="url(#paint2_linear)" stroke-width="1.8706" stroke-miterlimit="10"/>
</g>
<g opacity="0.4">
<path d="M138.34 57.9468C138.446 61.6543 126.947 64.9918 112.672 65.3974C100.802 65.7319 90.7472 63.9386 87.6233 61.1918L80.5143 59.5835L87.4738 57.5625C90.4839 54.652 100.418 52.2966 112.288 51.955C126.57 51.5565 138.233 54.2393 138.34 57.9468Z" fill="url(#paint3_linear)"/>
</g>
<path d="M83.4175 2.59739C83.7591 2.63297 84.1007 2.67567 84.4351 2.71837C84.5632 2.7326 84.6842 2.74683 84.8123 2.76818C85.3246 2.84646 85.8228 2.93897 86.328 3.03859C86.4703 3.06706 86.6055 3.10264 86.7478 3.1311C87.1108 3.2165 87.4808 3.30189 87.8366 3.40152C88.0287 3.45133 88.228 3.50826 88.4201 3.56519C88.5838 3.615 88.7404 3.66481 88.904 3.71463C89.1389 3.78579 89.3666 3.86407 89.6014 3.94946C89.758 3.99927 89.9074 4.0562 90.064 4.11313C90.3059 4.20564 90.5478 4.29815 90.7827 4.39066C90.9179 4.44759 91.0531 4.4974 91.1883 4.55433C91.4729 4.67531 91.7505 4.79628 92.028 4.93149C92.1134 4.97419 92.2059 5.00977 92.2913 5.05246C92.3624 5.08804 92.4265 5.12362 92.4977 5.15209C92.8677 5.32999 93.2306 5.52213 93.5864 5.71426C93.7287 5.79254 93.8639 5.87082 93.9992 5.9491C94.2838 6.11277 94.5684 6.27644 94.846 6.45434C94.9883 6.53974 95.1306 6.63225 95.2729 6.72476C95.5576 6.90978 95.8422 7.10191 96.1198 7.29405C96.2336 7.37233 96.3546 7.45772 96.4684 7.536C96.8527 7.81353 97.2299 8.10529 97.5999 8.40417C97.6426 8.43975 97.6853 8.48245 97.7351 8.51803C98.0553 8.78844 98.3756 9.05885 98.6815 9.3435C98.7954 9.45024 98.9093 9.55698 99.0231 9.66373C99.2651 9.89144 99.4999 10.1192 99.7276 10.354C99.8415 10.475 99.9624 10.5959 100.076 10.7169C100.304 10.9589 100.532 11.2079 100.752 11.4641C100.845 11.5709 100.944 11.6776 101.037 11.7915C101.343 12.1544 101.642 12.5244 101.934 12.9016C102.176 13.2147 102.403 13.542 102.631 13.8694C102.695 13.969 102.759 14.0615 102.823 14.1611C102.98 14.396 103.136 14.6308 103.286 14.8656C103.364 14.9937 103.442 15.1289 103.52 15.257C103.649 15.4705 103.777 15.684 103.891 15.8975C103.969 16.0398 104.047 16.1892 104.125 16.3316C104.225 16.5166 104.325 16.7087 104.417 16.9008C104.609 17.2851 104.794 17.6694 104.965 18.0608C104.994 18.1248 105.029 18.1889 105.058 18.2529C105.257 18.7083 105.435 19.178 105.606 19.6477C105.662 19.8042 105.712 19.9608 105.769 20.1245C105.862 20.3949 105.954 20.6653 106.032 20.9357C106.089 21.1136 106.139 21.2915 106.189 21.4694C106.26 21.7327 106.331 22.0031 106.403 22.2735C106.452 22.4657 106.495 22.6507 106.538 22.8428C106.588 23.0777 106.637 23.3125 106.68 23.5473C106.716 23.7466 106.758 23.9458 106.787 24.1522C106.829 24.3941 106.865 24.6361 106.894 24.878C106.922 25.0844 106.95 25.2837 106.972 25.49C107 25.7249 107.022 25.9668 107.043 26.2016C107.057 26.408 107.079 26.6215 107.093 26.8279C107.107 27.0698 107.114 27.3118 107.121 27.5537C107.128 27.8241 107.143 28.1017 107.143 28.3721V25.9028C107.143 25.7818 107.143 25.6537 107.143 25.5327C107.143 25.3833 107.128 25.2339 107.121 25.0844C107.114 24.8425 107.107 24.6005 107.093 24.3586C107.079 24.1522 107.064 23.9387 107.043 23.7323C107.022 23.4975 107 23.2556 106.972 23.0207C106.965 22.9425 106.958 22.8713 106.95 22.793C106.936 22.6649 106.908 22.5368 106.894 22.4087C106.858 22.1668 106.822 21.9248 106.787 21.6829C106.751 21.4836 106.716 21.2773 106.68 21.078C106.637 20.8432 106.588 20.6084 106.538 20.3735C106.516 20.281 106.502 20.1814 106.481 20.0889C106.459 19.9964 106.431 19.8967 106.403 19.8042C106.338 19.5338 106.267 19.2705 106.189 19.0001C106.139 18.8222 106.089 18.6443 106.032 18.4664C105.947 18.1889 105.862 17.9185 105.769 17.648C105.726 17.5342 105.698 17.4132 105.655 17.2922C105.641 17.2495 105.62 17.214 105.606 17.1713C105.435 16.7016 105.25 16.239 105.058 15.7765C105.029 15.7124 105.001 15.6484 104.965 15.5844C104.794 15.193 104.609 14.8016 104.417 14.4244C104.389 14.3675 104.367 14.3106 104.339 14.2536C104.268 14.1184 104.197 13.9903 104.125 13.8623C104.047 13.7199 103.969 13.5705 103.891 13.4282C103.77 13.2147 103.641 13.0012 103.52 12.7877C103.442 12.6596 103.364 12.5244 103.286 12.3963C103.136 12.1544 102.98 11.9267 102.823 11.6918C102.759 11.5922 102.695 11.4926 102.631 11.4001C102.41 11.0798 102.183 10.7596 101.941 10.4465C101.941 10.4394 101.934 10.4394 101.934 10.4323C101.649 10.0551 101.35 9.68507 101.037 9.32215C100.944 9.20829 100.845 9.10155 100.752 8.99481C100.532 8.74574 100.304 8.49668 100.076 8.24761C99.9624 8.12664 99.8415 8.00566 99.7276 7.88469C99.4999 7.64986 99.2651 7.42214 99.0231 7.19442C98.9093 7.08768 98.7954 6.98094 98.6815 6.8742C98.3684 6.58955 98.0553 6.31914 97.7351 6.04872C97.6924 6.01314 97.6497 5.97045 97.5999 5.93487C97.2299 5.63599 96.8527 5.34423 96.4684 5.0667C96.3546 4.9813 96.2336 4.90302 96.1198 4.82475C95.8422 4.63261 95.5576 4.44047 95.2729 4.25546C95.1306 4.16295 94.9883 4.07755 94.846 3.98504C94.5684 3.80002 94.2838 3.62923 93.9992 3.46556C93.8639 3.38729 93.7216 3.30901 93.5864 3.23073C93.2235 3.03859 92.8606 2.84646 92.4905 2.66855C92.4336 2.64009 92.3767 2.61163 92.3198 2.58316C92.3055 2.57604 92.2984 2.57604 92.2842 2.56893C92.1988 2.52623 92.1134 2.49065 92.0209 2.44795C91.7434 2.31986 91.4658 2.19177 91.1812 2.0708C91.046 2.01387 90.9108 1.96406 90.7756 1.90713C90.5336 1.81462 90.2988 1.71499 90.0568 1.6296C89.9074 1.57267 89.7508 1.52286 89.5943 1.46593C89.3666 1.38765 89.1317 1.30937 88.8969 1.23109C88.7332 1.18128 88.5767 1.13147 88.413 1.08165C88.2992 1.04607 88.1924 1.01049 88.0786 0.982028C88.0003 0.96068 87.9149 0.946447 87.8295 0.917983C87.4666 0.818357 87.1037 0.732963 86.7407 0.647569C86.5984 0.619105 86.4632 0.583524 86.3209 0.555059C85.8228 0.448317 85.3175 0.355807 84.8052 0.284646C84.7909 0.284646 84.7767 0.27753 84.7625 0.27753C84.6486 0.263297 84.5419 0.256181 84.428 0.234833C84.0864 0.192136 83.752 0.149439 83.4104 0.113858C83.2325 0.099626 83.0546 0.0853937 82.8838 0.0711615C82.5849 0.049813 82.2932 0.0284646 81.9872 0.0142323C81.9231 0.0142323 81.8591 0.00711615 81.795 0C81.4962 0.00711615 81.1831 0 80.8628 0C80.2936 0 79.7243 0.0213484 79.1621 0.0569292C79.098 0.0640453 79.0269 0.0569292 78.9557 0.0640453C78.8276 0.0711615 78.7067 0.0925099 78.5857 0.099626C78.3437 0.120974 78.1018 0.142323 77.8598 0.170787C77.6464 0.192136 77.44 0.220601 77.2336 0.249065C76.9917 0.284646 76.7569 0.320227 76.522 0.355807C76.4153 0.37004 76.3157 0.384272 76.2089 0.40562C76.1093 0.419853 76.0168 0.448317 75.9172 0.462549C75.661 0.512362 75.4048 0.562176 75.1486 0.619105C74.9565 0.661802 74.7643 0.704498 74.5722 0.747195C74.316 0.811241 74.0599 0.875286 73.8037 0.946447C73.6827 0.982028 73.5546 1.01049 73.4265 1.04607C73.3696 1.06031 73.3198 1.08165 73.2628 1.09589C72.907 1.20263 72.5584 1.31649 72.2025 1.43746C72.0958 1.47304 71.9891 1.50151 71.8894 1.5442C71.4411 1.70788 70.9928 1.87866 70.5587 2.06368C70.5374 2.0708 70.516 2.07791 70.5018 2.08503C70.4449 2.10638 70.3951 2.13484 70.3381 2.16331C69.8756 2.36256 69.4273 2.57604 68.979 2.79665C68.858 2.86069 68.737 2.91762 68.616 2.98166C68.125 3.23785 67.634 3.50826 67.1572 3.79291C67.143 3.80002 67.1217 3.81425 67.1074 3.82137C67.0363 3.86407 66.9722 3.91388 66.9011 3.95658C66.5595 4.16295 66.2321 4.38355 65.8977 4.60415C65.7696 4.69666 65.6344 4.78205 65.5063 4.87456C65.2145 5.08093 64.9228 5.30153 64.6381 5.51501C64.5385 5.60752 64.4247 5.69292 64.3108 5.78543C63.9265 6.09142 63.5494 6.41165 63.1793 6.73899C63.1509 6.76745 63.1224 6.79592 63.0868 6.82438C62.7524 7.13038 62.425 7.44349 62.1048 7.76371C61.9981 7.87046 61.8913 7.98431 61.7846 8.09106C61.5355 8.34724 61.3007 8.61054 61.0659 8.87383C60.9662 8.98769 60.8595 9.10155 60.7599 9.22252C60.4752 9.54987 60.2048 9.88433 59.9415 10.233C59.9059 10.2828 59.8632 10.3255 59.8277 10.3753C59.5288 10.7667 59.2441 11.1652 58.9737 11.5709C58.8954 11.6847 58.8172 11.8057 58.7389 11.9267C58.5396 12.2255 58.3475 12.5315 58.1696 12.8446C58.0913 12.9798 58.0059 13.1222 57.9277 13.2574C57.7355 13.5918 57.5505 13.9405 57.3726 14.2821C57.3228 14.3817 57.273 14.4742 57.2232 14.5739C57.0026 15.0151 56.7962 15.4634 56.6041 15.9259C56.5543 16.0398 56.5116 16.1537 56.4689 16.2604C56.3265 16.6162 56.1842 16.972 56.0561 17.3349C55.9992 17.4844 55.9494 17.6409 55.8996 17.7904C55.7786 18.1462 55.6719 18.502 55.5722 18.8578C55.5367 18.993 55.494 19.1211 55.4584 19.2563C55.3303 19.7402 55.2093 20.2312 55.1097 20.7293C55.0955 20.8147 55.0812 20.9001 55.067 20.9784C54.9887 21.3982 54.9176 21.8181 54.8535 22.238C54.8322 22.4016 54.8108 22.5582 54.7895 22.7219C54.7468 23.0919 54.7041 23.4619 54.6756 23.8391C54.6614 23.9956 54.6471 24.1522 54.64 24.3088C54.6116 24.8282 54.5902 25.3477 54.5902 25.8814V28.3507C54.5902 27.8241 54.6116 27.2975 54.64 26.7781C54.6471 26.6215 54.6614 26.4649 54.6756 26.3084C54.7041 25.9312 54.7396 25.5612 54.7895 25.1912C54.8108 25.0275 54.8322 24.8638 54.8535 24.7073C54.9176 24.2803 54.9887 23.8604 55.067 23.4477C55.0812 23.3623 55.0955 23.2769 55.1097 23.1986C55.2093 22.7005 55.3303 22.2095 55.4584 21.7256C55.494 21.5904 55.5367 21.4623 55.5722 21.3271C55.6719 20.9713 55.7857 20.6084 55.8996 20.2597C55.9494 20.1031 56.0063 19.9537 56.0561 19.8042C56.1842 19.4413 56.3194 19.0855 56.4689 18.7297C56.5116 18.6158 56.5543 18.502 56.6041 18.3952C56.7962 17.9398 57.0026 17.4915 57.2232 17.0432C57.273 16.9435 57.3228 16.851 57.3726 16.7514C57.5505 16.4027 57.7355 16.0611 57.9277 15.7267C58.0059 15.5915 58.0842 15.4492 58.1696 15.3139C58.3546 15.0008 58.5468 14.6948 58.7389 14.396C58.8172 14.275 58.8883 14.1611 58.9737 14.0402C59.2513 13.6345 59.5359 13.2289 59.8277 12.8446C59.8632 12.7948 59.9059 12.7521 59.9415 12.7023C60.2048 12.3607 60.4823 12.0263 60.7599 11.6918C60.8595 11.578 60.9662 11.457 61.0659 11.3431C61.3007 11.0798 61.5426 10.8165 61.7846 10.5604C61.8913 10.4536 61.9981 10.3398 62.1048 10.233C62.425 9.91279 62.7524 9.59968 63.0868 9.29369C63.1153 9.26522 63.1438 9.23676 63.1793 9.20829C63.5423 8.88095 63.9265 8.56784 64.3108 8.25473C64.4247 8.16222 64.5385 8.07683 64.6524 7.99143C64.937 7.77083 65.2288 7.55735 65.5205 7.35098C65.6486 7.25847 65.7767 7.16596 65.9119 7.08056C66.2393 6.85996 66.5737 6.63936 66.9153 6.433C67.0007 6.38318 67.0861 6.32625 67.1715 6.27644C67.6482 5.99179 68.1321 5.72138 68.6303 5.4652C68.7512 5.40115 68.8722 5.34423 68.9932 5.28018C69.4415 5.05958 69.8898 4.8461 70.3524 4.64684C70.4235 4.61838 70.5018 4.5828 70.573 4.54722C71.0142 4.3622 71.4554 4.19141 71.9037 4.02774C72.0104 3.99216 72.11 3.95658 72.2168 3.921C72.5655 3.80002 72.9213 3.68616 73.2771 3.57942C73.455 3.52961 73.6329 3.4798 73.8179 3.42998C74.0741 3.35882 74.3303 3.29478 74.5864 3.23073C74.7786 3.18092 74.9707 3.14534 75.1628 3.10264C75.419 3.04571 75.6752 2.9959 75.9314 2.94608C76.1306 2.9105 76.337 2.87492 76.5363 2.83934C76.7711 2.80376 77.013 2.76818 77.2479 2.7326C77.4542 2.70414 77.6677 2.67567 77.8741 2.65432C78.116 2.62586 78.358 2.60451 78.5999 2.58316C78.7921 2.56893 78.9842 2.5547 79.1763 2.54046C79.7385 2.50488 80.3078 2.48353 80.8771 2.48353C81.2542 2.48353 81.6314 2.49777 82.0085 2.512C82.3074 2.52623 82.6063 2.54758 82.9052 2.56893C83.0617 2.56893 83.2396 2.57604 83.4175 2.59739Z" fill="#888888"/>
<path d="M80.8629 1.75806C95.3726 1.75806 107.143 13.3431 107.143 27.6324C107.143 39.5092 99.016 49.5074 87.9434 52.5531L80.8629 59.6123L73.7397 52.5958C62.7097 49.5074 54.5831 39.5092 54.5831 27.6324C54.5902 13.3431 66.3532 1.75806 80.8629 1.75806Z" fill="url(#paint4_linear)"/>
<path d="M80.8628 50.6525C93.6003 50.6525 103.926 40.3266 103.926 27.5891C103.926 14.8515 93.6003 4.52563 80.8628 4.52563C68.1253 4.52563 57.7996 14.8515 57.7996 27.5891C57.7996 40.3266 68.1253 50.6525 80.8628 50.6525Z" fill="url(#paint5_linear)"/>
<path d="M89.5604 25.2625H84.0739C83.8982 25.2625 83.7557 25.4049 83.7557 25.5806C83.7557 25.7563 83.8982 25.8988 84.0739 25.8988H89.5605C89.7362 25.8988 89.8786 25.7563 89.8786 25.5806C89.8786 25.4049 89.7362 25.2625 89.5604 25.2625Z" fill="#888888"/>
<path d="M89.5604 27.1807H84.0739C83.8982 27.1807 83.7557 27.3231 83.7557 27.4988C83.7557 27.6745 83.8982 27.817 84.0739 27.817H89.5605C89.7362 27.817 89.8786 27.6745 89.8786 27.4988C89.8786 27.3231 89.7362 27.1807 89.5604 27.1807Z" fill="#888888"/>
<path d="M89.8786 29.4168C89.8786 29.2411 89.7362 29.0986 89.5605 29.0986H84.0739C83.8982 29.0986 83.7557 29.2411 83.7557 29.4168C83.7557 29.5925 83.8982 29.7349 84.0739 29.7349H89.5605C89.7362 29.735 89.8786 29.5925 89.8786 29.4168Z" fill="#888888"/>
<path d="M84.0739 31.0168C83.8982 31.0168 83.7557 31.1593 83.7557 31.335C83.7557 31.5107 83.8982 31.6531 84.0739 31.6531H86.8172C86.9929 31.6531 87.1353 31.5107 87.1353 31.335C87.1353 31.1593 86.9928 31.0168 86.8172 31.0168H84.0739Z" fill="#888888"/>
<path d="M91.482 20.743L88.2016 17.4626C87.9102 17.171 87.5108 17.0015 87.0884 17.0015H76.2937C75.4257 17.0015 74.7195 17.7077 74.7195 18.5757V21.8332C74.7195 22.0089 74.862 22.1514 75.0377 22.1514C75.2133 22.1514 75.3558 22.0089 75.3558 21.8332V18.5757C75.3558 18.0585 75.7765 17.6378 76.2937 17.6378H87.0884C87.157 17.6378 87.2245 17.6451 87.2905 17.6597V20.5572C87.2905 21.162 87.7826 21.6541 88.3874 21.6541H91.2845C91.2992 21.7205 91.3067 21.7885 91.3067 21.8562V37.1492C91.3067 37.6664 90.886 38.0872 90.3688 38.0872H86.0945C86.4666 37.5309 86.4073 36.7696 85.9166 36.2788L83.0238 33.386C82.8131 33.1754 82.5064 33.1188 82.2433 33.2147L81.6205 32.5919C83.3776 30.1519 83.1185 26.7759 80.9697 24.627C78.5848 22.2422 74.6719 22.1947 72.2396 24.627C69.8327 27.0339 69.8327 30.9502 72.2396 33.3571C74.3866 35.5042 77.7658 35.7594 80.2042 34.0078L80.8272 34.6308C80.7313 34.8939 80.7879 35.2006 80.9986 35.4113L83.6745 38.0872H76.2937C75.7766 38.0872 75.3558 37.6664 75.3558 37.1492V36.1295C75.3558 35.9538 75.2133 35.8114 75.0377 35.8114C74.862 35.8114 74.7195 35.9539 74.7195 36.1295V37.1492C74.7195 38.0173 75.4257 38.7235 76.2937 38.7235H90.3689C91.2369 38.7235 91.9431 38.0172 91.9431 37.1492V21.8562C91.9431 21.4433 91.7793 21.0401 91.482 20.743ZM72.6896 32.9072C70.5308 30.7484 70.5308 27.2358 72.6896 25.077C74.8759 22.8907 78.3848 22.942 80.5198 25.077C82.5076 27.0648 82.6928 30.2232 80.9505 32.4237C80.683 32.7614 80.3744 33.0702 80.0363 33.3379C77.8499 35.069 74.6837 34.9013 72.6896 32.9072ZM80.7053 33.6065C80.8852 33.4464 81.0569 33.2751 81.2202 33.0915L81.7442 33.6155L81.228 34.1317L80.7041 33.6077C80.7045 33.6073 80.7049 33.6069 80.7053 33.6065ZM84.3413 37.8541L81.4486 34.9613C81.4071 34.9199 81.407 34.8525 81.4486 34.811L81.4528 34.8068C81.4529 34.8067 81.4529 34.8066 81.453 34.8065L82.4235 33.836C82.465 33.7945 82.5325 33.7945 82.5739 33.836L85.4666 36.7288C85.7769 37.039 85.7769 37.5438 85.4666 37.8541C85.1556 38.165 84.6523 38.165 84.3413 37.8541ZM87.9269 20.5572V18.0877L90.8568 21.0177H88.3874C88.1334 21.0177 87.9269 20.8111 87.9269 20.5572Z" fill="#888888"/>
<path d="M83.7077 19.0662H77.3954C77.0181 19.0662 76.7111 19.3732 76.7111 19.7505V20.9699C76.7111 21.3473 77.0181 21.6543 77.3954 21.6543H83.7077C84.0851 21.6543 84.3921 21.3473 84.3921 20.9699V19.7505C84.392 19.3732 84.085 19.0662 83.7077 19.0662ZM83.7557 20.9699C83.7557 20.9963 83.7342 21.0179 83.7077 21.0179H77.3954C77.369 21.0179 77.3474 20.9964 77.3474 20.9699V19.7505C77.3474 19.7241 77.3689 19.7025 77.3954 19.7025H83.7077C83.7342 19.7025 83.7557 19.724 83.7557 19.7505V20.9699H83.7557Z" fill="#888888"/>
<path d="M80.0726 32.4602C81.9848 30.548 81.9848 27.4367 80.0726 25.5245C78.1604 23.6123 75.0491 23.6123 73.1369 25.5245C72.3929 26.2685 71.9158 27.2099 71.7571 28.247C71.7306 28.4206 71.8498 28.583 72.0235 28.6096C72.1973 28.6363 72.3596 28.5169 72.3861 28.3432C72.5242 27.441 72.9393 26.6219 73.5868 25.9744C75.2509 24.3104 77.9585 24.3104 79.6226 25.9744C81.2192 27.5711 81.2836 30.1283 79.8163 31.8028C79.6766 31.5184 79.4389 31.2869 79.128 31.15C78.7511 30.9841 78.1013 30.8786 77.7016 30.8259L77.6999 30.4242C78.0862 30.1398 78.3603 29.7106 78.4391 29.214C78.507 29.1858 78.5693 29.1441 78.6227 29.0904C78.7292 28.9831 78.7873 28.8409 78.7863 28.6898C78.7835 28.2681 78.7839 27.5692 78.7839 27.1621C78.7839 26.7771 78.5034 26.4563 78.136 26.3934C78.0655 26.0354 77.7492 25.7646 77.3708 25.7646H75.8349C75.0431 25.7646 74.3989 26.4087 74.3989 27.2005V28.6957C74.3989 28.9278 74.5406 29.1275 74.742 29.2128C74.819 29.6942 75.0795 30.1125 75.4474 30.397L75.4492 30.8354C75.05 30.8914 74.4012 31.0024 74.0256 31.1715C73.74 31.3002 73.5168 31.5184 73.3794 31.787C72.8707 31.2015 72.5339 30.4956 72.4003 29.7279C72.3702 29.5548 72.2054 29.4389 72.0323 29.469C71.8592 29.4991 71.7433 29.6639 71.7734 29.837C71.947 30.8346 72.4185 31.7416 73.1369 32.4601C75.0575 34.3808 78.1688 34.364 80.0726 32.4602ZM75.8349 26.401H77.3708C77.45 26.401 77.5144 26.4654 77.5144 26.5445C77.5144 26.806 77.7271 27.0186 77.9885 27.0186H78.0041C78.0832 27.0186 78.1476 27.083 78.1476 27.1622V27.333L77.763 27.2969C77.3863 27.2617 77.001 27.351 76.6782 27.5487C76.5012 27.6571 76.2979 27.7144 76.0903 27.7144H75.0353V27.2006C75.0353 26.7597 75.394 26.401 75.8349 26.401ZM75.0353 28.6278V28.3506H76.0902C76.4152 28.3506 76.7334 28.2609 77.0105 28.0912C77.2167 27.9649 77.4629 27.9078 77.7036 27.9304L78.1478 27.972C78.148 28.168 78.1485 28.4265 78.1496 28.6266C77.9725 28.6577 77.8347 28.807 77.8238 28.992C77.7859 29.6425 77.2446 30.1521 76.5914 30.1521C75.9396 30.1521 75.3974 29.643 75.3571 28.9929C75.3457 28.8097 75.21 28.6614 75.0353 28.6278ZM76.5914 30.7885C76.7548 30.7885 76.9134 30.767 77.0649 30.7274L77.0656 30.9048C77.066 30.9871 77.0849 31.0657 77.1183 31.1363C76.9601 31.243 76.7727 31.3019 76.5762 31.3025C76.5753 31.3025 76.5743 31.3025 76.5733 31.3025C76.3787 31.3025 76.1927 31.2452 76.035 31.1407C76.0678 31.0698 76.0863 30.9912 76.0859 30.9089L76.0851 30.7187C76.2464 30.7641 76.4163 30.7885 76.5914 30.7885ZM73.8776 32.2752C73.9238 32.0424 74.0724 31.8484 74.2868 31.7517C74.5033 31.6543 74.9202 31.5564 75.4453 31.4789C75.7452 31.7733 76.1468 31.9388 76.5732 31.9388H76.578C77.0075 31.9375 77.4113 31.7684 77.7109 31.4693C78.2367 31.5425 78.6544 31.6368 78.8717 31.7324C79.1151 31.8396 79.2725 32.0438 79.3111 32.2925C77.7366 33.5858 75.4458 33.5799 73.8776 32.2752Z" fill="#888888"/>
<defs>
<radialGradient id="paint0_radial" cx="0" cy="0" r="1" gradientUnits="userSpaceOnUse" gradientTransform="translate(84.11 71.9009) rotate(90) scale(26.9351 79.5222)">
<stop stop-color="#4D8903"/>
<stop offset="0.0001" stop-opacity="0.78"/>
<stop offset="1" stop-color="white" stop-opacity="0"/>
</radialGradient>
<linearGradient id="paint1_linear" x1="31.6836" y1="52.7948" x2="134.176" y2="62.3898" gradientUnits="userSpaceOnUse">
<stop stop-color="#DEDEDE"/>
<stop offset="1" stop-color="#888888"/>
</linearGradient>
<linearGradient id="paint2_linear" x1="31.0218" y1="62.5668" x2="131.608" y2="62.5668" gradientUnits="userSpaceOnUse">
<stop offset="0.00744902" stop-color="#E7E7E7" stop-opacity="0"/>
<stop offset="0.4302" stop-color="white"/>
<stop offset="0.5508" stop-color="#F5F5F5" stop-opacity="0.7883"/>
<stop offset="0.7594" stop-color="#EAEAEA" stop-opacity="0.4223"/>
<stop offset="1" stop-color="#E7E7E7" stop-opacity="0"/>
</linearGradient>
<linearGradient id="paint3_linear" x1="86.0825" y1="61.4664" x2="98.0805" y2="46.5088" gradientUnits="userSpaceOnUse">
<stop stop-color="#939393"/>
<stop offset="0.3296" stop-color="#969696" stop-opacity="0.6629"/>
<stop offset="0.5748" stop-color="#989898" stop-opacity="0.4122"/>
<stop offset="0.792" stop-color="#989898" stop-opacity="0.19"/>
<stop offset="0.9778" stop-color="#C8C8C8" stop-opacity="0"/>
</linearGradient>
<linearGradient id="paint4_linear" x1="54.5872" y1="30.6851" x2="107.142" y2="30.6851" gradientUnits="userSpaceOnUse">
<stop stop-color="#EEEFEF"/>
<stop offset="1" stop-color="white"/>
</linearGradient>
<linearGradient id="paint5_linear" x1="79.9451" y1="121.426" x2="81.2175" y2="-8.36662" gradientUnits="userSpaceOnUse">
<stop offset="0.5089" stop-color="#CFD0D2"/>
<stop offset="0.7253" stop-color="#F8F8F8"/>
</linearGradient>
</defs>
</svg>
