<svg width="169" height="101" viewBox="0 0 169 101" fill="none" xmlns="http://www.w3.org/2000/svg">
<ellipse cx="84.11" cy="71.9009" rx="84.11" ry="28.4891" fill="url(#paint0_radial)"/>
<path d="M135.155 52.4459C135.148 52.6451 135.133 52.8515 135.112 53.0508C135.112 53.0792 135.105 53.1148 135.105 53.1433C135.076 53.371 135.041 53.5916 134.991 53.8193C134.977 53.8762 134.97 53.9332 134.955 53.9901C134.913 54.168 134.87 54.3388 134.82 54.5167C134.806 54.5594 134.799 54.6092 134.785 54.6519C134.721 54.8654 134.649 55.0717 134.564 55.2852C134.543 55.335 134.521 55.3849 134.507 55.4347C134.443 55.5983 134.372 55.762 134.294 55.9257C134.265 55.9826 134.244 56.0395 134.215 56.0965C134.116 56.3028 134.009 56.5092 133.895 56.7085C133.888 56.7156 133.881 56.7298 133.881 56.7369C133.767 56.9291 133.646 57.1283 133.525 57.3205C133.489 57.3774 133.447 57.4343 133.411 57.4912C133.297 57.6549 133.184 57.8186 133.063 57.9823C133.034 58.0249 133.006 58.0605 132.977 58.1032C132.828 58.3025 132.664 58.5017 132.5 58.701C132.458 58.7508 132.415 58.7935 132.379 58.8433C132.237 59.007 132.095 59.1635 131.945 59.3272C131.903 59.377 131.86 59.4197 131.81 59.4695C131.618 59.6688 131.419 59.8751 131.205 60.0744C131.163 60.1171 131.12 60.1527 131.077 60.1954C130.892 60.3662 130.707 60.5369 130.508 60.7077C130.458 60.7504 130.415 60.7931 130.366 60.8287C130.124 61.0351 129.867 61.2414 129.604 61.4478C129.547 61.4905 129.497 61.5332 129.44 61.5759C129.17 61.7823 128.892 61.9886 128.608 62.195L128.601 62.2021C128.579 62.2164 128.565 62.2306 128.544 62.2377C128.373 62.3587 128.195 62.4797 128.017 62.6006C127.946 62.6433 127.882 62.6931 127.811 62.7358C127.676 62.8212 127.548 62.9066 127.412 62.9991C127.327 63.0489 127.249 63.1059 127.163 63.1557C127.035 63.234 126.914 63.3122 126.786 63.3905C126.694 63.4475 126.608 63.4973 126.516 63.5542C126.395 63.6254 126.274 63.6965 126.153 63.7677C126.018 63.846 125.875 63.9242 125.733 64.0025C125.626 64.0594 125.527 64.1164 125.42 64.1733C125.27 64.2516 125.121 64.337 124.964 64.4152C124.865 64.4722 124.765 64.522 124.658 64.5789C124.495 64.6643 124.324 64.7497 124.153 64.8351C124.061 64.8778 123.975 64.9276 123.883 64.9703C123.648 65.0842 123.413 65.198 123.178 65.3119C123.143 65.3261 123.114 65.3403 123.079 65.3617C122.709 65.5396 122.324 65.7104 121.94 65.8741C121.855 65.9096 121.776 65.9452 121.691 65.9808C121.314 66.1445 120.922 66.3081 120.531 66.4647C120.467 66.4932 120.403 66.5145 120.332 66.543C119.969 66.6924 119.599 66.8347 119.222 66.9771C119.158 67.0055 119.087 67.0269 119.022 67.0553C118.61 67.2048 118.197 67.3542 117.77 67.5037C117.685 67.5321 117.592 67.5606 117.507 67.5962C117.044 67.7527 116.575 67.9093 116.091 68.0658C116.041 68.0801 115.984 68.1014 115.934 68.1156C115.464 68.2651 114.981 68.4074 114.497 68.5497C114.447 68.564 114.397 68.5782 114.347 68.5924C113.849 68.7347 113.344 68.8771 112.839 69.0123C112.746 69.0336 112.654 69.0621 112.561 69.0834C112.056 69.2186 111.551 69.3467 111.038 69.4677C110.946 69.4891 110.853 69.5104 110.761 69.5318C110.227 69.6598 109.693 69.7879 109.145 69.9018C109.11 69.9089 109.067 69.916 109.031 69.9231C108.498 70.037 107.95 70.1509 107.402 70.2647C107.331 70.2789 107.26 70.2932 107.188 70.3074C106.64 70.4142 106.085 70.5209 105.523 70.6205C105.416 70.6419 105.317 70.6561 105.21 70.6775C104.655 70.7771 104.093 70.8696 103.524 70.9621C103.417 70.9763 103.31 70.9977 103.203 71.0119C102.791 71.076 102.371 71.14 101.944 71.1969C101.837 71.2112 101.73 71.2254 101.624 71.2396C101.125 71.3108 100.62 71.3748 100.115 71.4389C100.008 71.4531 99.9015 71.4673 99.7877 71.4816C99.3607 71.5314 98.9266 71.5812 98.4925 71.631C98.3787 71.6453 98.2577 71.6595 98.1438 71.6666C97.6315 71.7235 97.112 71.7733 96.5925 71.8232C96.5143 71.8303 96.436 71.8374 96.3577 71.8445C95.6319 71.9085 94.906 71.9726 94.1731 72.0224C94.109 72.0295 94.0378 72.0295 93.9738 72.0366C93.2337 72.0865 92.4865 72.1363 91.7322 72.1718C91.6611 72.179 91.5899 72.179 91.5116 72.179C90.9281 72.2074 90.3517 72.2288 89.7611 72.2501C89.6757 72.2501 89.5903 72.2572 89.4978 72.2572C88.8858 72.2786 88.2667 72.2928 87.6547 72.2999C87.5195 72.2999 87.3914 72.3071 87.2562 72.3071C86.6869 72.3142 86.1105 72.3213 85.5341 72.3213C84.9506 72.3213 84.3742 72.3142 83.7907 72.3071C83.6483 72.3071 83.506 72.2999 83.3637 72.2999C82.8442 72.2928 82.3248 72.2786 81.8053 72.2644C81.7839 72.2644 81.7555 72.2644 81.7341 72.2644C81.1933 72.2501 80.6596 72.2288 80.1259 72.2003C79.9836 72.1932 79.8412 72.1861 79.6989 72.179C79.2791 72.1576 78.8521 72.1363 78.4323 72.1149C78.3255 72.1078 78.2188 72.1007 78.112 72.0936C77.5997 72.0651 77.0944 72.0295 76.5821 71.9868C76.4611 71.9797 76.3401 71.9655 76.2191 71.9584C75.8206 71.9299 75.4221 71.8943 75.0236 71.8587C74.8813 71.8445 74.7461 71.8374 74.6038 71.8232C74.1057 71.7805 73.6075 71.7306 73.1165 71.6808C73.1094 71.6808 73.0952 71.6808 73.0881 71.6808C72.5971 71.631 72.1132 71.5741 71.6364 71.5172C71.5012 71.5029 71.366 71.4816 71.2236 71.4673C70.8251 71.4175 70.4266 71.3677 70.0281 71.3179C69.9285 71.3037 69.836 71.2894 69.7364 71.2823C69.2454 71.2183 68.7544 71.1471 68.2634 71.0688C68.1495 71.0546 68.0356 71.0333 67.9218 71.019C67.5162 70.955 67.1177 70.8909 66.7192 70.8269C66.6124 70.8055 66.5057 70.7913 66.3989 70.7771C65.9008 70.6917 65.4027 70.6063 64.9117 70.5138C64.8049 70.4924 64.7053 70.4711 64.5986 70.4569C64.1574 70.3715 63.7233 70.2861 63.2963 70.2007C63.218 70.1864 63.1398 70.1722 63.0686 70.1509C62.542 70.0441 62.0225 69.9303 61.5102 69.8164C61.4034 69.7951 61.3038 69.7666 61.1971 69.7452C60.6847 69.6314 60.1795 69.5104 59.6813 69.3823C59.6173 69.3681 59.5532 69.3538 59.4963 69.3325C58.8915 69.1831 58.3008 69.0265 57.7173 68.8628C57.6746 68.8486 57.6319 68.8415 57.5892 68.8273C56.9915 68.6636 56.4008 68.4928 55.8173 68.3149C55.7675 68.3007 55.7106 68.2793 55.6607 68.2651C55.3547 68.1726 55.0559 68.0801 54.757 67.9804C54.6431 67.9449 54.5222 67.9022 54.4083 67.8666C54.1735 67.7883 53.9386 67.71 53.7109 67.6317C53.5828 67.589 53.4619 67.5463 53.3409 67.5037C53.1132 67.4254 52.8855 67.34 52.6577 67.2617C52.5439 67.219 52.43 67.1834 52.3233 67.1407C52.0458 67.0411 51.7754 66.9344 51.5049 66.8347C51.448 66.8134 51.3911 66.792 51.3342 66.7707C51.1349 66.6924 50.9357 66.6141 50.7364 66.5359C50.6439 66.5003 50.5514 66.4647 50.466 66.4291C50.1813 66.3153 49.8967 66.1943 49.6192 66.0804C49.5694 66.0591 49.5124 66.0377 49.4626 66.0093C49.2349 65.9096 49.0143 65.8171 48.7937 65.7175C48.6941 65.6748 48.5945 65.625 48.5019 65.5823C48.3312 65.504 48.1604 65.4257 47.9896 65.3475C47.8828 65.2976 47.7761 65.2478 47.6694 65.1909C47.5128 65.1197 47.3634 65.0415 47.2068 64.9703C47.093 64.9134 46.9862 64.8564 46.8795 64.8066C46.7372 64.7355 46.5948 64.6643 46.4525 64.586C46.3387 64.5291 46.2319 64.4722 46.1252 64.4152C45.99 64.3441 45.8548 64.2729 45.7196 64.1946C45.6128 64.1377 45.499 64.0737 45.3922 64.0096C45.2641 63.9385 45.136 63.8673 45.0079 63.789C44.9012 63.725 44.7945 63.6609 44.6877 63.5969C44.5667 63.5257 44.4387 63.4546 44.3177 63.3763C44.2109 63.3122 44.1113 63.2482 44.0046 63.1842C43.8836 63.113 43.7697 63.0347 43.6559 62.9636C43.5563 62.8995 43.4495 62.8283 43.3499 62.7643C43.236 62.6931 43.1222 62.6149 43.0154 62.5437C42.9158 62.4797 42.8233 62.4085 42.7237 62.3444C42.6169 62.2662 42.5031 62.195 42.3963 62.1167C42.2896 62.0456 42.1971 61.9815 42.1046 61.9104C41.9978 61.8321 41.8982 61.7538 41.7915 61.6826C41.699 61.6115 41.6136 61.5474 41.5211 61.4763C41.4214 61.398 41.3218 61.3197 41.2293 61.2414C41.1439 61.1703 41.0585 61.0991 40.9731 61.028C40.8806 60.9497 40.7881 60.8714 40.6956 60.7931C40.6102 60.722 40.5319 60.6508 40.4465 60.5796C40.354 60.5014 40.2686 60.4231 40.1832 60.3448C40.105 60.2737 40.0267 60.2025 39.9484 60.1242C39.863 60.0459 39.7776 59.9605 39.6993 59.8823C39.6211 59.8111 39.5499 59.7328 39.4787 59.6617C39.4005 59.5834 39.3222 59.498 39.2439 59.4197C39.1727 59.3485 39.1016 59.2703 39.0375 59.1991C38.9521 59.1066 38.8739 59.0283 38.8027 58.9429C38.7387 58.8647 38.6746 58.7935 38.6106 58.7152C38.5394 58.6298 38.4683 58.5515 38.4042 58.4662C38.3402 58.3879 38.2832 58.3167 38.2192 58.2384C38.1551 58.153 38.0911 58.0748 38.0271 57.9894C37.9701 57.9111 37.9132 57.8399 37.8563 57.7616C37.7922 57.6763 37.7353 57.5909 37.6784 57.5055C37.6286 57.4272 37.5716 57.3489 37.5218 57.2778C37.4649 57.1924 37.4151 57.107 37.3581 57.0145C37.3083 56.9362 37.2656 56.8579 37.2158 56.7796C37.166 56.6942 37.1162 56.6017 37.0664 56.5163C37.0237 56.438 36.981 56.3598 36.9383 56.2815C36.8956 56.189 36.8529 56.1036 36.8102 56.0111C36.7746 55.9328 36.7319 55.8545 36.7035 55.7762C36.6608 55.6837 36.6252 55.5912 36.5896 55.5058C36.554 55.4276 36.5256 55.3493 36.4971 55.271C36.4615 55.1785 36.433 55.086 36.3975 54.9935C36.369 54.9152 36.3405 54.8369 36.3192 54.7586C36.2907 54.6661 36.2623 54.5665 36.2338 54.474C36.2125 54.3957 36.1911 54.3246 36.1698 54.2463C36.1413 54.1467 36.1271 54.047 36.1057 53.9474C36.0915 53.8762 36.0701 53.798 36.0559 53.7268C36.0345 53.6201 36.0203 53.5204 36.0061 53.4137C35.9919 53.3425 35.9847 53.2714 35.9705 53.2073C35.9634 53.0792 35.9563 52.9654 35.942 52.8515C35.9349 52.7946 35.9278 52.7305 35.9278 52.6736C35.9136 52.4957 35.9136 52.3178 35.9136 52.147V64.6145C35.9136 64.7924 35.9207 64.9703 35.9278 65.1411C35.9349 65.198 35.942 65.2621 35.942 65.319C35.9492 65.4329 35.9634 65.5538 35.9776 65.6677C35.9847 65.7388 35.999 65.81 36.0132 65.8741C36.0274 65.9808 36.0417 66.0804 36.063 66.1872C36.0772 66.2583 36.0986 66.3366 36.1128 66.4078C36.1342 66.5074 36.1555 66.607 36.1769 66.7066C36.1982 66.7849 36.2196 66.8561 36.2409 66.9344C36.2694 67.0269 36.2907 67.1265 36.3263 67.219C36.3477 67.2973 36.3761 67.3756 36.4046 67.4538C36.4402 67.5463 36.4686 67.6389 36.5042 67.7314C36.5327 67.8096 36.5683 67.8879 36.5967 67.9662C36.6323 68.0587 36.6679 68.1512 36.7106 68.2366C36.7462 68.3149 36.7817 68.3932 36.8173 68.4714C36.86 68.564 36.9027 68.6493 36.9454 68.7419C36.9881 68.8201 37.0308 68.8984 37.0735 68.9767C37.1233 69.0621 37.166 69.1546 37.2229 69.24C37.2656 69.3183 37.3154 69.3965 37.3653 69.4748C37.4151 69.5602 37.472 69.6527 37.5289 69.7381C37.5787 69.8164 37.6286 69.8947 37.6855 69.9658C37.7424 70.0512 37.7993 70.1366 37.8634 70.222C37.9203 70.3003 37.9772 70.3786 38.0342 70.4497C38.0982 70.5351 38.1623 70.6205 38.2263 70.7059C38.2832 70.7842 38.3473 70.8554 38.4113 70.9336C38.4825 71.019 38.5465 71.1044 38.6177 71.1827C38.6817 71.261 38.7458 71.3321 38.8098 71.4104C38.881 71.4958 38.9593 71.5741 39.0304 71.6595C39.1016 71.7306 39.1656 71.8089 39.2368 71.8801C39.3151 71.9584 39.3933 72.0438 39.4716 72.122C39.5428 72.1932 39.6211 72.2715 39.6922 72.3426C39.7776 72.4209 39.8559 72.5063 39.9413 72.5846C40.0196 72.6557 40.0978 72.7269 40.1761 72.8052C40.2615 72.8835 40.354 72.9617 40.4394 73.04C40.5177 73.1112 40.6031 73.1823 40.6885 73.2535C40.781 73.3318 40.8735 73.41 40.966 73.4883C41.0514 73.5595 41.1368 73.6307 41.2222 73.7018C41.3218 73.7801 41.4143 73.8584 41.5139 73.9366C41.6065 74.0078 41.6918 74.079 41.7844 74.143C41.884 74.2213 41.9907 74.2996 42.0975 74.3707C42.19 74.4419 42.2825 74.5059 42.375 74.5771C42.4817 74.6554 42.5885 74.7265 42.7023 74.8048C42.802 74.8689 42.8945 74.94 42.9941 75.0041C43.1079 75.0823 43.2147 75.1535 43.3285 75.2247C43.4282 75.2887 43.5278 75.3599 43.6345 75.4239C43.7484 75.4951 43.8694 75.5734 43.9832 75.6445C44.09 75.7086 44.1896 75.7726 44.2963 75.8367C44.4173 75.9078 44.5383 75.979 44.6664 76.0573C44.7731 76.1213 44.8799 76.1854 44.9866 76.2494C45.1147 76.3206 45.2428 76.3917 45.3709 76.47C45.4776 76.534 45.5843 76.591 45.6982 76.655C45.8334 76.7262 45.9686 76.7973 46.1038 76.8756C46.2106 76.9325 46.3244 76.9895 46.4312 77.0464C46.5735 77.1176 46.7158 77.1887 46.8581 77.267C46.9649 77.3239 47.0787 77.3809 47.1855 77.4307C47.3349 77.5089 47.4915 77.5801 47.648 77.6513C47.7548 77.7011 47.8615 77.758 47.9682 77.8078C48.139 77.8861 48.3098 77.9644 48.4806 78.0427C48.5802 78.0854 48.6727 78.1352 48.7724 78.1779C48.993 78.2775 49.2136 78.37 49.4413 78.4696C49.4911 78.491 49.548 78.5123 49.5978 78.5408C49.8754 78.6618 50.16 78.7756 50.4446 78.8895C50.5372 78.9251 50.6225 78.9606 50.7151 78.9962C50.9143 79.0745 51.1136 79.1528 51.3128 79.2311C51.3199 79.2311 51.327 79.2382 51.3342 79.2382C51.384 79.2595 51.4267 79.2738 51.4765 79.2951C51.7469 79.4018 52.0173 79.5015 52.2948 79.6011C52.4087 79.6438 52.5225 79.6794 52.6293 79.7221C52.857 79.8004 53.0847 79.8857 53.3124 79.964C53.4334 80.0067 53.5615 80.0494 53.6825 80.0921C53.9173 80.1704 54.145 80.2487 54.3798 80.3269C54.4937 80.3625 54.6147 80.4052 54.7285 80.4408C55.0274 80.5333 55.3263 80.6329 55.6323 80.7255C55.6821 80.7397 55.7248 80.7539 55.7746 80.7681C55.7817 80.7681 55.7888 80.7681 55.7888 80.7753C56.3724 80.9532 56.963 81.124 57.5607 81.2876C57.6034 81.3019 57.6461 81.309 57.6888 81.3232C58.2724 81.4869 58.8701 81.6434 59.4679 81.7929C59.5106 81.8 59.5461 81.8142 59.5888 81.8213C59.6102 81.8285 59.6386 81.8356 59.66 81.8356C60.1581 81.9565 60.6634 82.0775 61.1757 82.1985C61.2825 82.2198 61.3821 82.2483 61.4888 82.2697C62.0012 82.3835 62.5207 82.4974 63.0473 82.6041C63.0686 82.6112 63.0899 82.6112 63.1113 82.6183C63.1682 82.6326 63.2252 82.6397 63.2821 82.6539C63.7162 82.7393 64.1502 82.8247 64.5843 82.9101C64.6911 82.9315 64.7907 82.9528 64.8974 82.967C65.3884 83.0595 65.8866 83.1449 66.3847 83.2303C66.4203 83.2374 66.4559 83.2446 66.4843 83.2517C66.5555 83.2659 66.6338 83.273 66.7049 83.2873C67.1034 83.3513 67.509 83.4153 67.9075 83.4794C68.0214 83.4936 68.1353 83.515 68.2491 83.5292C68.7401 83.6004 69.224 83.6715 69.7221 83.7427C69.7506 83.7427 69.772 83.7498 69.8004 83.7569C69.8716 83.764 69.9427 83.7783 70.0139 83.7854C70.4124 83.8352 70.8109 83.8921 71.2094 83.9348C71.3446 83.9491 71.4798 83.9704 71.6221 83.9846C72.106 84.0416 72.5899 84.0985 73.0738 84.1483C73.0809 84.1483 73.0952 84.1483 73.1023 84.1483C73.1023 84.1483 73.1023 84.1483 73.1094 84.1483C73.6004 84.1981 74.0985 84.2479 74.5967 84.2906C74.739 84.3049 74.8742 84.312 75.0165 84.3262C75.415 84.3618 75.8135 84.3903 76.212 84.4258C76.2974 84.433 76.3757 84.4401 76.4611 84.4472C76.4967 84.4472 76.5323 84.4543 76.5678 84.4543C77.0731 84.4899 77.5854 84.5255 78.0978 84.5611C78.2045 84.5682 78.3113 84.5753 78.418 84.5824C78.8379 84.6037 79.2577 84.6322 79.6847 84.6464C79.763 84.6536 79.8484 84.6536 79.9266 84.6607C79.9907 84.6607 80.0547 84.6678 80.1117 84.6678C80.6454 84.6891 81.1862 84.7105 81.7199 84.7318C81.7412 84.7318 81.7697 84.7318 81.791 84.7318C82.3105 84.7461 82.83 84.7603 83.3495 84.7674C83.4206 84.7674 83.4918 84.7745 83.563 84.7745C83.6341 84.7745 83.7053 84.7745 83.7764 84.7745C84.3528 84.7817 84.9364 84.7888 85.5199 84.7888C86.0963 84.7888 86.6727 84.7817 87.242 84.7745C87.3131 84.7745 87.3843 84.7745 87.4555 84.7745C87.5195 84.7745 87.5764 84.7745 87.6405 84.7674C88.2596 84.7603 88.8716 84.739 89.4835 84.7247C89.5689 84.7247 89.6543 84.7176 89.7468 84.7176C90.3304 84.6963 90.9139 84.6749 91.4974 84.6464C91.5472 84.6464 91.6041 84.6393 91.6611 84.6393C91.6824 84.6393 91.6967 84.6393 91.718 84.6393C92.4723 84.6037 93.2195 84.5539 93.9596 84.5041C94.0236 84.497 94.0948 84.497 94.1588 84.4899C94.8918 84.4401 95.6247 84.376 96.3435 84.312C96.3933 84.3049 96.436 84.3049 96.4858 84.2978C96.5142 84.2978 96.5498 84.2906 96.5783 84.2906C97.0978 84.2408 97.6172 84.191 98.1296 84.1341C98.2435 84.1199 98.3644 84.1056 98.4783 84.0985C98.9124 84.0487 99.3465 83.9989 99.7734 83.9491C99.8802 83.9348 99.9869 83.9206 100.101 83.9064C100.606 83.8423 101.111 83.7783 101.609 83.7071C101.716 83.6929 101.823 83.6786 101.93 83.6644C102.349 83.6075 102.769 83.5434 103.189 83.4794C103.26 83.4652 103.331 83.458 103.403 83.4438C103.438 83.4367 103.474 83.4296 103.502 83.4296C104.072 83.3371 104.634 83.2446 105.189 83.1449C105.296 83.1236 105.395 83.1094 105.502 83.088C106.064 82.9884 106.619 82.8816 107.167 82.7749C107.238 82.7607 107.309 82.7464 107.381 82.7322C107.928 82.6255 108.469 82.5116 109.01 82.3906C109.046 82.3835 109.088 82.3764 109.124 82.3693C109.672 82.2483 110.206 82.1273 110.739 81.9992C110.832 81.9779 110.924 81.9565 111.017 81.9352C111.529 81.8071 112.042 81.679 112.54 81.5509C112.632 81.5296 112.725 81.5011 112.817 81.4798C113.33 81.3446 113.835 81.2022 114.326 81.0599C114.376 81.0457 114.425 81.0314 114.475 81.0172C114.959 80.8749 115.443 80.7254 115.913 80.5831C115.963 80.5689 116.019 80.5475 116.069 80.5333C116.546 80.3839 117.016 80.2273 117.485 80.0636C117.535 80.0494 117.585 80.0352 117.628 80.0138C117.67 79.9996 117.706 79.9854 117.749 79.9711C118.169 79.8217 118.588 79.6723 119.001 79.5228C119.065 79.4944 119.136 79.473 119.2 79.4445C119.578 79.3022 119.948 79.1599 120.31 79.0105C120.375 78.982 120.439 78.9606 120.51 78.9322C120.901 78.7756 121.292 78.612 121.67 78.4483C121.755 78.4127 121.833 78.3771 121.919 78.3415C122.303 78.1707 122.687 78 123.057 77.8292C123.057 77.8292 123.057 77.8292 123.064 77.8292C123.093 77.8149 123.128 77.8007 123.157 77.7865C123.392 77.6726 123.634 77.5588 123.861 77.4449C123.954 77.4022 124.046 77.3524 124.132 77.3097C124.303 77.2243 124.473 77.1389 124.637 77.0535C124.737 77.0037 124.836 76.9468 124.943 76.8898C125.092 76.8116 125.249 76.7262 125.398 76.6479C125.505 76.591 125.605 76.534 125.712 76.4771C125.854 76.3988 125.996 76.3206 126.131 76.2423C126.174 76.2209 126.21 76.1996 126.252 76.1711C126.338 76.1213 126.416 76.0715 126.494 76.0288C126.587 75.9719 126.672 75.9221 126.765 75.8651C126.893 75.7868 127.021 75.7086 127.142 75.6303C127.227 75.5805 127.313 75.5235 127.391 75.4737C127.526 75.3883 127.661 75.3029 127.789 75.2104C127.861 75.1677 127.925 75.1179 127.996 75.0752C128.174 74.9543 128.352 74.8333 128.522 74.7123C128.544 74.6981 128.558 74.6838 128.579 74.6767C128.579 74.6767 128.586 74.6767 128.586 74.6696C128.871 74.4632 129.149 74.2569 129.419 74.0505C129.476 74.0078 129.526 73.9651 129.583 73.9224C129.846 73.716 130.095 73.5097 130.344 73.3033C130.358 73.2891 130.38 73.2748 130.394 73.2606C130.43 73.2321 130.458 73.2037 130.486 73.1752C130.679 73.0044 130.871 72.8336 131.056 72.6629C131.098 72.6202 131.141 72.5846 131.184 72.5419C131.39 72.3426 131.597 72.1434 131.789 71.937C131.803 71.9228 131.824 71.9085 131.839 71.8872C131.867 71.8587 131.895 71.8232 131.924 71.7947C132.073 71.6381 132.216 71.4745 132.358 71.3108C132.401 71.261 132.443 71.2183 132.479 71.1685C132.65 70.9692 132.806 70.77 132.956 70.5707C132.963 70.5636 132.97 70.5494 132.984 70.5422C133.006 70.5138 133.027 70.4853 133.048 70.4497C133.169 70.2861 133.283 70.1224 133.397 69.9587C133.433 69.9018 133.475 69.8449 133.511 69.7879C133.639 69.5958 133.76 69.4037 133.867 69.2044C133.874 69.1973 133.874 69.1902 133.881 69.1831C133.881 69.1831 133.881 69.1831 133.881 69.1759C133.995 68.9767 134.101 68.7703 134.201 68.564C134.23 68.507 134.258 68.4501 134.279 68.3932C134.358 68.2295 134.429 68.0658 134.493 67.9022C134.507 67.8666 134.521 67.831 134.536 67.8025C134.543 67.7883 134.543 67.7741 134.55 67.7598C134.628 67.5535 134.706 67.34 134.77 67.1265C134.785 67.0838 134.799 67.034 134.806 66.9913C134.856 66.8205 134.898 66.6426 134.941 66.4647C134.948 66.4291 134.963 66.3935 134.97 66.3651C134.977 66.3437 134.977 66.3153 134.984 66.2939C135.027 66.0733 135.069 65.8456 135.098 65.6179C135.105 65.5894 135.105 65.5538 135.105 65.5254C135.126 65.3261 135.14 65.1197 135.148 64.9205C135.148 64.8849 135.155 64.8564 135.155 64.8209C135.155 64.7497 135.155 64.6785 135.155 64.6145V52.1399C135.162 52.2466 135.162 52.3463 135.155 52.4459Z" fill="#454545"/>
<path d="M85.5342 31.9587C112.945 31.9587 135.162 40.9962 135.162 52.1472C135.162 63.2982 112.945 72.3286 85.5342 72.3286C58.123 72.3286 35.9066 63.2911 35.9066 52.1472C35.9137 40.9962 58.1301 31.9587 85.5342 31.9587Z" fill="url(#paint1_linear)"/>
<g opacity="0.5">
<path opacity="0.5" d="M135.162 52.1399C135.162 63.2909 112.945 72.3213 85.5342 72.3213C58.123 72.3213 35.9066 63.2838 35.9066 52.1399" stroke="url(#paint2_linear)" stroke-width="1.8706" stroke-miterlimit="10"/>
</g>
<g opacity="0.4">
<path d="M142.563 57.9468C142.669 61.6543 131.17 64.9918 116.895 65.3974C105.025 65.7319 94.9703 63.9386 91.8463 61.1918L84.7373 59.5835L91.6968 57.5625C94.707 54.652 104.641 52.2966 116.511 51.955C130.793 51.5565 142.456 54.2393 142.563 57.9468Z" fill="url(#paint3_linear)"/>
</g>
<path d="M87.6405 2.59739C87.9821 2.63297 88.3237 2.67567 88.6581 2.71837C88.7862 2.7326 88.9072 2.74683 89.0353 2.76818C89.5477 2.84646 90.0458 2.93897 90.551 3.03859C90.6933 3.06706 90.8285 3.10264 90.9709 3.1311C91.3338 3.2165 91.7038 3.30189 92.0596 3.40152C92.2518 3.45133 92.451 3.50826 92.6432 3.56519C92.8068 3.615 92.9634 3.66481 93.127 3.71463C93.3619 3.78579 93.5896 3.86407 93.8244 3.94946C93.981 3.99927 94.1304 4.0562 94.287 4.11313C94.5289 4.20564 94.7709 4.29815 95.0057 4.39066C95.1409 4.44759 95.2761 4.4974 95.4113 4.55433C95.696 4.67531 95.9735 4.79628 96.251 4.93149C96.3364 4.97419 96.4289 5.00977 96.5143 5.05246C96.5855 5.08804 96.6495 5.12362 96.7207 5.15209C97.0907 5.32999 97.4536 5.52213 97.8094 5.71426C97.9518 5.79254 98.087 5.87082 98.2222 5.9491C98.5068 6.11277 98.7915 6.27644 99.069 6.45434C99.2113 6.53974 99.3536 6.63225 99.496 6.72476C99.7806 6.90978 100.065 7.10191 100.343 7.29405C100.457 7.37233 100.578 7.45772 100.691 7.536C101.076 7.81353 101.453 8.10529 101.823 8.40417C101.866 8.43975 101.908 8.48245 101.958 8.51803C102.278 8.78844 102.599 9.05885 102.905 9.3435C103.018 9.45024 103.132 9.55698 103.246 9.66373C103.488 9.89144 103.723 10.1192 103.951 10.354C104.064 10.475 104.185 10.5959 104.299 10.7169C104.527 10.9589 104.755 11.2079 104.975 11.4641C105.068 11.5709 105.167 11.6776 105.26 11.7915C105.566 12.1544 105.865 12.5244 106.157 12.9016C106.399 13.2147 106.626 13.542 106.854 13.8694C106.918 13.969 106.982 14.0615 107.046 14.1611C107.203 14.396 107.359 14.6308 107.509 14.8656C107.587 14.9937 107.665 15.1289 107.744 15.257C107.872 15.4705 108 15.684 108.114 15.8975C108.192 16.0398 108.27 16.1892 108.348 16.3316C108.448 16.5166 108.548 16.7087 108.64 16.9008C108.832 17.2851 109.017 17.6694 109.188 18.0608C109.217 18.1248 109.252 18.1889 109.281 18.2529C109.48 18.7083 109.658 19.178 109.829 19.6477C109.885 19.8042 109.935 19.9608 109.992 20.1245C110.085 20.3949 110.177 20.6653 110.256 20.9357C110.312 21.1136 110.362 21.2915 110.412 21.4694C110.483 21.7327 110.554 22.0031 110.626 22.2735C110.675 22.4657 110.718 22.6507 110.761 22.8428C110.811 23.0777 110.86 23.3125 110.903 23.5473C110.939 23.7466 110.981 23.9458 111.01 24.1522C111.053 24.3941 111.088 24.6361 111.117 24.878C111.145 25.0844 111.173 25.2837 111.195 25.49C111.223 25.7249 111.245 25.9668 111.266 26.2016C111.28 26.408 111.302 26.6215 111.316 26.8279C111.33 27.0698 111.337 27.3118 111.344 27.5537C111.351 27.8241 111.366 28.1017 111.366 28.3721V25.9028C111.366 25.7818 111.366 25.6537 111.366 25.5327C111.366 25.3833 111.351 25.2339 111.344 25.0844C111.337 24.8425 111.33 24.6005 111.316 24.3586C111.302 24.1522 111.287 23.9387 111.266 23.7323C111.245 23.4975 111.223 23.2556 111.195 23.0207C111.188 22.9425 111.181 22.8713 111.173 22.793C111.159 22.6649 111.131 22.5368 111.117 22.4087C111.081 22.1668 111.045 21.9248 111.01 21.6829C110.974 21.4836 110.939 21.2773 110.903 21.078C110.86 20.8432 110.811 20.6084 110.761 20.3735C110.739 20.281 110.725 20.1814 110.704 20.0889C110.682 19.9964 110.654 19.8967 110.626 19.8042C110.561 19.5338 110.49 19.2705 110.412 19.0001C110.362 18.8222 110.312 18.6443 110.256 18.4664C110.17 18.1889 110.085 17.9185 109.992 17.648C109.95 17.5342 109.921 17.4132 109.878 17.2922C109.864 17.2495 109.843 17.214 109.829 17.1713C109.658 16.7016 109.473 16.239 109.281 15.7765C109.252 15.7124 109.224 15.6484 109.188 15.5844C109.017 15.193 108.832 14.8016 108.64 14.4244C108.612 14.3675 108.59 14.3106 108.562 14.2536C108.491 14.1184 108.42 13.9903 108.348 13.8623C108.27 13.7199 108.192 13.5705 108.114 13.4282C107.993 13.2147 107.864 13.0012 107.744 12.7877C107.665 12.6596 107.587 12.5244 107.509 12.3963C107.359 12.1544 107.203 11.9267 107.046 11.6918C106.982 11.5922 106.918 11.4926 106.854 11.4001C106.633 11.0798 106.406 10.7596 106.164 10.4465C106.164 10.4394 106.157 10.4394 106.157 10.4323C105.872 10.0551 105.573 9.68507 105.26 9.32215C105.167 9.20829 105.068 9.10155 104.975 8.99481C104.755 8.74574 104.527 8.49668 104.299 8.24761C104.185 8.12664 104.064 8.00566 103.951 7.88469C103.723 7.64986 103.488 7.42214 103.246 7.19442C103.132 7.08768 103.018 6.98094 102.905 6.8742C102.591 6.58955 102.278 6.31914 101.958 6.04872C101.915 6.01314 101.873 5.97045 101.823 5.93487C101.453 5.63599 101.076 5.34423 100.691 5.0667C100.578 4.9813 100.457 4.90302 100.343 4.82475C100.065 4.63261 99.7806 4.44047 99.496 4.25546C99.3536 4.16295 99.2113 4.07755 99.069 3.98504C98.7915 3.80002 98.5068 3.62923 98.2222 3.46556C98.087 3.38729 97.9446 3.30901 97.8094 3.23073C97.4465 3.03859 97.0836 2.84646 96.7136 2.66855C96.6566 2.64009 96.5997 2.61163 96.5428 2.58316C96.5285 2.57604 96.5214 2.57604 96.5072 2.56893C96.4218 2.52623 96.3364 2.49065 96.2439 2.44795C95.9664 2.31986 95.6888 2.19177 95.4042 2.0708C95.269 2.01387 95.1338 1.96406 94.9986 1.90713C94.7566 1.81462 94.5218 1.71499 94.2799 1.6296C94.1304 1.57267 93.9739 1.52286 93.8173 1.46593C93.5896 1.38765 93.3548 1.30937 93.1199 1.23109C92.9563 1.18128 92.7997 1.13147 92.636 1.08165C92.5222 1.04607 92.4154 1.01049 92.3016 0.982028C92.2233 0.96068 92.1379 0.946447 92.0525 0.917983C91.6896 0.818357 91.3267 0.732963 90.9638 0.647569C90.8214 0.619105 90.6862 0.583524 90.5439 0.555059C90.0458 0.448317 89.5405 0.355807 89.0282 0.284646C89.0139 0.284646 88.9997 0.27753 88.9855 0.27753C88.8716 0.263297 88.7649 0.256181 88.651 0.234833C88.3095 0.192136 87.975 0.149439 87.6334 0.113858C87.4555 0.099626 87.2776 0.0853937 87.1068 0.0711615C86.808 0.049813 86.5162 0.0284646 86.2102 0.0142323C86.1462 0.0142323 86.0821 0.00711615 86.0181 0C85.7192 0.00711615 85.4061 0 85.0859 0C84.5166 0 83.9473 0.0213484 83.3851 0.0569292C83.3211 0.0640453 83.2499 0.0569292 83.1787 0.0640453C83.0507 0.0711615 82.9297 0.0925099 82.8087 0.099626C82.5668 0.120974 82.3248 0.142323 82.0829 0.170787C81.8694 0.192136 81.663 0.220601 81.4567 0.249065C81.2147 0.284646 80.9799 0.320227 80.745 0.355807C80.6383 0.37004 80.5387 0.384272 80.4319 0.40562C80.3323 0.419853 80.2398 0.448317 80.1402 0.462549C79.884 0.512362 79.6278 0.562176 79.3716 0.619105C79.1795 0.661802 78.9874 0.704498 78.7952 0.747195C78.5391 0.811241 78.2829 0.875286 78.0267 0.946447C77.9057 0.982028 77.7776 1.01049 77.6495 1.04607C77.5926 1.06031 77.5428 1.08165 77.4859 1.09589C77.1301 1.20263 76.7814 1.31649 76.4256 1.43746C76.3188 1.47304 76.2121 1.50151 76.1125 1.5442C75.6642 1.70788 75.2158 1.87866 74.7818 2.06368C74.7604 2.0708 74.7391 2.07791 74.7248 2.08503C74.6679 2.10638 74.6181 2.13484 74.5612 2.16331C74.0986 2.36256 73.6503 2.57604 73.202 2.79665C73.081 2.86069 72.96 2.91762 72.8391 2.98166C72.3481 3.23785 71.857 3.50826 71.3803 3.79291C71.366 3.80002 71.3447 3.81425 71.3304 3.82137C71.2593 3.86407 71.1952 3.91388 71.1241 3.95658C70.7825 4.16295 70.4552 4.38355 70.1207 4.60415C69.9926 4.69666 69.8574 4.78205 69.7293 4.87456C69.4376 5.08093 69.1458 5.30153 68.8612 5.51501C68.7615 5.60752 68.6477 5.69292 68.5338 5.78543C68.1496 6.09142 67.7724 6.41165 67.4024 6.73899C67.3739 6.76745 67.3454 6.79592 67.3099 6.82438C66.9754 7.13038 66.6481 7.44349 66.3278 7.76371C66.2211 7.87046 66.1143 7.98431 66.0076 8.09106C65.7585 8.34724 65.5237 8.61054 65.2889 8.87383C65.1893 8.98769 65.0825 9.10155 64.9829 9.22252C64.6982 9.54987 64.4278 9.88433 64.1645 10.233C64.129 10.2828 64.0863 10.3255 64.0507 10.3753C63.7518 10.7667 63.4672 11.1652 63.1967 11.5709C63.1185 11.6847 63.0402 11.8057 62.9619 11.9267C62.7627 12.2255 62.5705 12.5315 62.3926 12.8446C62.3144 12.9798 62.229 13.1222 62.1507 13.2574C61.9585 13.5918 61.7735 13.9405 61.5956 14.2821C61.5458 14.3817 61.496 14.4742 61.4462 14.5739C61.2256 15.0151 61.0192 15.4634 60.8271 15.9259C60.7773 16.0398 60.7346 16.1537 60.6919 16.2604C60.5496 16.6162 60.4072 16.972 60.2791 17.3349C60.2222 17.4844 60.1724 17.6409 60.1226 17.7904C60.0016 18.1462 59.8949 18.502 59.7953 18.8578C59.7597 18.993 59.717 19.1211 59.6814 19.2563C59.5533 19.7402 59.4323 20.2312 59.3327 20.7293C59.3185 20.8147 59.3042 20.9001 59.29 20.9784C59.2117 21.3982 59.1406 21.8181 59.0765 22.238C59.0552 22.4016 59.0338 22.5582 59.0125 22.7219C58.9698 23.0919 58.9271 23.4619 58.8986 23.8391C58.8844 23.9956 58.8702 24.1522 58.863 24.3088C58.8346 24.8282 58.8132 25.3477 58.8132 25.8814V28.3507C58.8132 27.8241 58.8346 27.2975 58.863 26.7781C58.8702 26.6215 58.8844 26.4649 58.8986 26.3084C58.9271 25.9312 58.9627 25.5612 59.0125 25.1912C59.0338 25.0275 59.0552 24.8638 59.0765 24.7073C59.1406 24.2803 59.2117 23.8604 59.29 23.4477C59.3042 23.3623 59.3185 23.2769 59.3327 23.1986C59.4323 22.7005 59.5533 22.2095 59.6814 21.7256C59.717 21.5904 59.7597 21.4623 59.7953 21.3271C59.8949 20.9713 60.0087 20.6084 60.1226 20.2597C60.1724 20.1031 60.2293 19.9537 60.2791 19.8042C60.4072 19.4413 60.5424 19.0855 60.6919 18.7297C60.7346 18.6158 60.7773 18.502 60.8271 18.3952C61.0192 17.9398 61.2256 17.4915 61.4462 17.0432C61.496 16.9435 61.5458 16.851 61.5956 16.7514C61.7735 16.4027 61.9585 16.0611 62.1507 15.7267C62.229 15.5915 62.3072 15.4492 62.3926 15.3139C62.5776 15.0008 62.7698 14.6948 62.9619 14.396C63.0402 14.275 63.1114 14.1611 63.1967 14.0402C63.4743 13.6345 63.7589 13.2289 64.0507 12.8446C64.0863 12.7948 64.129 12.7521 64.1645 12.7023C64.4278 12.3607 64.7054 12.0263 64.9829 11.6918C65.0825 11.578 65.1893 11.457 65.2889 11.3431C65.5237 11.0798 65.7657 10.8165 66.0076 10.5604C66.1143 10.4536 66.2211 10.3398 66.3278 10.233C66.6481 9.91279 66.9754 9.59968 67.3099 9.29369C67.3383 9.26522 67.3668 9.23676 67.4024 9.20829C67.7653 8.88095 68.1496 8.56784 68.5338 8.25473C68.6477 8.16222 68.7615 8.07683 68.8754 7.99143C69.16 7.77083 69.4518 7.55735 69.7436 7.35098C69.8716 7.25847 69.9997 7.16596 70.1349 7.08056C70.4623 6.85996 70.7967 6.63936 71.1383 6.433C71.2237 6.38318 71.3091 6.32625 71.3945 6.27644C71.8713 5.99179 72.3552 5.72138 72.8533 5.4652C72.9743 5.40115 73.0952 5.34423 73.2162 5.28018C73.6645 5.05958 74.1128 4.8461 74.5754 4.64684C74.6465 4.61838 74.7248 4.5828 74.796 4.54722C75.2372 4.3622 75.6784 4.19141 76.1267 4.02774C76.2334 3.99216 76.3331 3.95658 76.4398 3.921C76.7885 3.80002 77.1443 3.68616 77.5001 3.57942C77.678 3.52961 77.8559 3.4798 78.0409 3.42998C78.2971 3.35882 78.5533 3.29478 78.8095 3.23073C79.0016 3.18092 79.1937 3.14534 79.3859 3.10264C79.642 3.04571 79.8982 2.9959 80.1544 2.94608C80.3537 2.9105 80.56 2.87492 80.7593 2.83934C80.9941 2.80376 81.2361 2.76818 81.4709 2.7326C81.6773 2.70414 81.8907 2.67567 82.0971 2.65432C82.339 2.62586 82.581 2.60451 82.8229 2.58316C83.0151 2.56893 83.2072 2.5547 83.3993 2.54046C83.9615 2.50488 84.5308 2.48353 85.1001 2.48353C85.4772 2.48353 85.8544 2.49777 86.2316 2.512C86.5304 2.52623 86.8293 2.54758 87.1282 2.56893C87.2847 2.56893 87.4626 2.57604 87.6405 2.59739Z" fill="#888888"/>
<path d="M85.0858 1.75806C99.5956 1.75806 111.366 13.3431 111.366 27.6324C111.366 39.5092 103.239 49.5074 92.1664 52.5531L85.0858 59.6123L77.9626 52.5958C66.9327 49.5074 58.8061 39.5092 58.8061 27.6324C58.8132 13.3431 70.5761 1.75806 85.0858 1.75806Z" fill="url(#paint4_linear)"/>
<path d="M85.0859 50.6525C97.8233 50.6525 108.149 40.3266 108.149 27.5891C108.149 14.8515 97.8233 4.52563 85.0859 4.52563C72.3484 4.52563 62.0226 14.8515 62.0226 27.5891C62.0226 40.3266 72.3484 50.6525 85.0859 50.6525Z" fill="url(#paint5_linear)"/>
<path d="M74.4461 22.7284H73.6729V21.1818C73.6734 20.6693 73.8773 20.1779 74.2397 19.8155C74.6021 19.4531 75.0935 19.2492 75.606 19.2487H88.7514V18.4754H87.9782C87.9017 18.4754 87.8269 18.4527 87.7634 18.4102C87.6998 18.3678 87.6502 18.3074 87.6209 18.2367C87.5917 18.1661 87.584 18.0883 87.5989 18.0133C87.6139 17.9383 87.6507 17.8694 87.7048 17.8154L90.0245 15.4956C90.0604 15.4597 90.1031 15.4312 90.15 15.4118C90.1969 15.3923 90.2472 15.3823 90.2979 15.3823C90.3487 15.3823 90.399 15.3923 90.4459 15.4118C90.4928 15.4312 90.5354 15.4597 90.5713 15.4956L92.8911 17.8154C92.9452 17.8694 92.982 17.9383 92.9969 18.0133C93.0119 18.0883 93.0042 18.1661 92.9749 18.2367C92.9457 18.3074 92.8961 18.3678 92.8325 18.4102C92.7689 18.4527 92.6942 18.4754 92.6177 18.4754H91.8445V19.2487H93.391C93.9035 19.2492 94.3949 19.4531 94.7573 19.8155C95.1197 20.1779 95.3236 20.6693 95.3241 21.1818V28.9145H94.5509V21.1818C94.5505 20.8743 94.4282 20.5795 94.2108 20.3621C93.9933 20.1446 93.6985 20.0223 93.391 20.0219H91.8445V26.9813H91.0712V18.0888C91.0712 17.9862 91.1119 17.8879 91.1844 17.8154C91.257 17.7429 91.3553 17.7021 91.4578 17.7021H91.6843L90.2979 16.3157L88.9115 17.7021H89.1381C89.2406 17.7021 89.3389 17.7429 89.4114 17.8154C89.4839 17.8879 89.5247 17.9862 89.5247 18.0888V27.3679H88.7514V20.0219H75.606C75.2985 20.0223 75.0037 20.1446 74.7862 20.3621C74.5688 20.5795 74.4465 20.8743 74.4461 21.1818V22.7284ZM75.606 34.714H82.0457L81.1178 37.807H80.2456V38.5803H88.7514V37.807H87.8792L87.3819 36.1493L86.6412 36.3717L87.0719 37.807H81.9249L82.8528 34.714H85.6584V33.9407H75.606C75.2985 33.9403 75.0037 33.818 74.7862 33.6006C74.5688 33.3831 74.4465 33.0883 74.4461 32.7808V32.3942H85.2718V31.6209H74.4461V23.5016H73.6729V32.7808C73.6734 33.2933 73.8773 33.7847 74.2397 34.1471C74.6021 34.5095 75.0935 34.7134 75.606 34.714ZM87.2049 28.1412V21.9551H85.6584V30.8476H75.606V30.0744H77.1525V26.9813C77.1525 26.8788 77.1933 26.7804 77.2658 26.7079C77.3383 26.6354 77.4366 26.5947 77.5392 26.5947H79.8589C79.9615 26.5947 80.0598 26.6354 80.1323 26.7079C80.2048 26.7804 80.2456 26.8788 80.2456 26.9813V30.0744H81.0188V24.2749C81.0188 24.1723 81.0596 24.074 81.1321 24.0015C81.2046 23.929 81.3029 23.8883 81.4055 23.8883H83.7252C83.8278 23.8883 83.9261 23.929 83.9986 24.0015C84.0711 24.074 84.1119 24.1723 84.1119 24.2749V30.0744H84.8851V21.5685C84.8851 21.4659 84.9259 21.3676 84.9984 21.2951C85.0709 21.2226 85.1692 21.1818 85.2718 21.1818H87.5915C87.6941 21.1818 87.7924 21.2226 87.8649 21.2951C87.9374 21.3676 87.9782 21.4659 87.9782 21.5685V28.1412H87.2049ZM79.4723 27.3679H77.9258V30.0744H79.4723V27.3679ZM83.3386 24.6615H81.7921V30.0744H83.3386V24.6615ZM75.606 20.7952V21.5685H76.3793V20.7952H75.606ZM77.9258 20.7952H77.1525V21.5685H77.9258V20.7952ZM78.699 20.7952V21.5685H79.4723V20.7952H78.699ZM96.5308 36.6004C96.7476 36.8183 96.8697 37.113 96.8707 37.4204C96.8708 37.5728 96.8409 37.7236 96.7826 37.8644C96.7244 38.0052 96.639 38.1331 96.5312 38.2409C96.4235 38.3486 96.2956 38.434 96.1548 38.4923C96.014 38.5505 95.8631 38.5804 95.7108 38.5803C95.4037 38.5776 95.1097 38.4557 94.8908 38.2404L93.0401 36.3898C92.0667 36.964 90.9172 37.1635 89.8072 36.9508C88.6972 36.7381 87.7028 36.1278 87.0106 35.2344C86.3184 34.341 85.9758 33.2257 86.0471 32.0978C86.1184 30.9698 86.5986 29.9066 87.3978 29.1074C88.197 28.3082 89.2602 27.8279 90.3882 27.7567C91.5161 27.6854 92.6313 28.028 93.5248 28.7202C94.4182 29.4124 95.0285 30.4067 95.2412 31.5168C95.4539 32.6268 95.2544 33.7763 94.6802 34.7497L96.5308 36.6004ZM94.5509 32.3942C94.5509 31.6295 94.3241 30.882 93.8993 30.2462C93.4744 29.6103 92.8706 29.1148 92.1641 28.8222C91.4577 28.5295 90.6803 28.453 89.9303 28.6021C89.1803 28.7513 88.4914 29.1196 87.9507 29.6603C87.41 30.201 87.0417 30.8899 86.8926 31.6399C86.7434 32.3899 86.8199 33.1673 87.1126 33.8738C87.4052 34.5802 87.9008 35.1841 88.5366 35.6089C89.1724 36.0337 89.9199 36.2605 90.6846 36.2605C91.7096 36.2593 92.6924 35.8516 93.4172 35.1268C94.142 34.402 94.5497 33.4192 94.5509 32.3942ZM95.9839 37.1472L94.2254 35.3886C94.0586 35.5855 93.8759 35.7682 93.679 35.935L95.4376 37.6936C95.4731 37.731 95.5158 37.7609 95.563 37.7815C95.6103 37.8022 95.6612 37.8132 95.7127 37.8138C95.7643 37.8145 95.8155 37.8049 95.8633 37.7854C95.911 37.766 95.9544 37.7372 95.9909 37.7007C96.0274 37.6643 96.0562 37.6209 96.0756 37.5731C96.095 37.5253 96.1047 37.4741 96.104 37.4226C96.1033 37.371 96.0924 37.3201 96.0717 37.2728C96.051 37.2256 96.0211 37.1829 95.9837 37.1474L95.9839 37.1472ZM93.7776 32.3942C93.7776 33.0059 93.5962 33.6039 93.2563 34.1126C92.9165 34.6212 92.4334 35.0177 91.8682 35.2518C91.303 35.4859 90.6811 35.5471 90.0812 35.4278C89.4812 35.3085 88.93 35.0139 88.4975 34.5813C88.0649 34.1487 87.7703 33.5976 87.651 32.9976C87.5316 32.3976 87.5929 31.7757 87.827 31.2105C88.0611 30.6453 88.4575 30.1623 88.9662 29.8224C89.4748 29.4825 90.0728 29.3011 90.6846 29.3011C91.5046 29.302 92.2908 29.6282 92.8707 30.2081C93.4505 30.7879 93.7767 31.5741 93.7776 32.3942ZM93.0044 32.3942C93.0044 31.9354 92.8683 31.4869 92.6134 31.1054C92.3585 30.7239 91.9962 30.4265 91.5723 30.251C91.1484 30.0754 90.682 30.0294 90.232 30.119C89.782 30.2085 89.3687 30.4294 89.0442 30.7538C88.7198 31.0783 88.4989 31.4916 88.4094 31.9416C88.3199 32.3916 88.3658 32.858 88.5414 33.2819C88.717 33.7058 89.0143 34.0681 89.3958 34.323C89.7773 34.5779 90.2258 34.714 90.6846 34.714C91.2996 34.7133 91.8893 34.4687 92.3242 34.0338C92.7591 33.5989 93.0037 33.0092 93.0044 32.3942ZM89.1381 32.3942H89.9113C89.9116 32.1892 89.9931 31.9926 90.1381 31.8477C90.283 31.7027 90.4796 31.6212 90.6846 31.6209V30.8476C90.2745 30.8481 89.8815 31.0112 89.5915 31.3011C89.3016 31.5911 89.1385 31.9841 89.1381 32.3942ZM94.1642 17.7021H94.9375C94.9368 17.0871 94.6922 16.4974 94.2573 16.0625C93.8224 15.6276 93.2328 15.383 92.6177 15.3823V16.1556C93.0277 16.1561 93.4208 16.3191 93.7108 16.6091C94.0007 16.899 94.1638 17.2921 94.1642 17.7021Z" fill="#888888"/>
<defs>
<radialGradient id="paint0_radial" cx="0" cy="0" r="1" gradientUnits="userSpaceOnUse" gradientTransform="translate(84.11 71.9009) rotate(90) scale(26.9351 79.5222)">
<stop stop-color="#4D8903"/>
<stop offset="0.0001" stop-opacity="0.78"/>
<stop offset="1" stop-color="white" stop-opacity="0"/>
</radialGradient>
<linearGradient id="paint1_linear" x1="35.9066" y1="52.7948" x2="138.399" y2="62.3898" gradientUnits="userSpaceOnUse">
<stop stop-color="#DEDEDE"/>
<stop offset="1" stop-color="#888888"/>
</linearGradient>
<linearGradient id="paint2_linear" x1="35.2448" y1="62.5668" x2="135.831" y2="62.5668" gradientUnits="userSpaceOnUse">
<stop offset="0.00744902" stop-color="#E7E7E7" stop-opacity="0"/>
<stop offset="0.4302" stop-color="white"/>
<stop offset="0.5508" stop-color="#F5F5F5" stop-opacity="0.7883"/>
<stop offset="0.7594" stop-color="#EAEAEA" stop-opacity="0.4223"/>
<stop offset="1" stop-color="#E7E7E7" stop-opacity="0"/>
</linearGradient>
<linearGradient id="paint3_linear" x1="90.3056" y1="61.4664" x2="102.303" y2="46.5088" gradientUnits="userSpaceOnUse">
<stop stop-color="#939393"/>
<stop offset="0.3296" stop-color="#969696" stop-opacity="0.6629"/>
<stop offset="0.5748" stop-color="#989898" stop-opacity="0.4122"/>
<stop offset="0.792" stop-color="#989898" stop-opacity="0.19"/>
<stop offset="0.9778" stop-color="#C8C8C8" stop-opacity="0"/>
</linearGradient>
<linearGradient id="paint4_linear" x1="58.8101" y1="30.6851" x2="111.365" y2="30.6851" gradientUnits="userSpaceOnUse">
<stop stop-color="#EEEFEF"/>
<stop offset="1" stop-color="white"/>
</linearGradient>
<linearGradient id="paint5_linear" x1="84.1681" y1="121.426" x2="85.4405" y2="-8.36662" gradientUnits="userSpaceOnUse">
<stop offset="0.5089" stop-color="#CFD0D2"/>
<stop offset="0.7253" stop-color="#F8F8F8"/>
</linearGradient>
</defs>
</svg>
