<svg width="26" height="19" viewBox="0 0 26 19" fill="none" xmlns="http://www.w3.org/2000/svg">
<path d="M25.0054 3.342C24.8627 2.80958 24.5842 2.32419 24.1978 1.93417C23.8114 1.54414 23.3305 1.26309 22.803 1.11899C20.8719 0.587402 13.0996 0.587402 13.0996 0.587402C13.0996 0.587402 5.32685 0.603493 3.39568 1.13508C2.86817 1.27919 2.38726 1.56026 2.00086 1.9503C1.61445 2.34034 1.33602 2.82575 1.19329 3.35819C0.609157 6.82148 0.382561 12.0987 1.20933 15.4235C1.35207 15.9559 1.63051 16.4413 2.01692 16.8313C2.40332 17.2213 2.88422 17.5024 3.41172 17.6465C5.34289 18.1781 13.1154 18.1781 13.1154 18.1781C13.1154 18.1781 20.8878 18.1781 22.8189 17.6465C23.3464 17.5024 23.8273 17.2214 24.2137 16.8313C24.6002 16.4413 24.8786 15.9559 25.0214 15.4235C25.6375 11.9553 25.8273 6.68137 25.0054 3.3421V3.342Z" fill="#FF0000"/>
<path d="M10.6257 13.1521L17.0735 9.38269L10.6258 5.61328L10.6257 13.1521Z" fill="white"/>
</svg>
