<svg width="169" height="101" viewBox="0 0 169 101" fill="none" xmlns="http://www.w3.org/2000/svg">
<ellipse cx="84.11" cy="71.9009" rx="84.11" ry="28.4891" fill="url(#paint0_radial)"/>
<path d="M132.091 52.4459C132.084 52.6451 132.07 52.8515 132.049 53.0508C132.049 53.0792 132.041 53.1148 132.041 53.1433C132.013 53.371 131.977 53.5916 131.928 53.8193C131.913 53.8762 131.906 53.9332 131.892 53.9901C131.849 54.168 131.807 54.3388 131.757 54.5167C131.743 54.5594 131.735 54.6092 131.721 54.6519C131.657 54.8654 131.586 55.0717 131.501 55.2852C131.479 55.335 131.458 55.3849 131.444 55.4347C131.38 55.5983 131.309 55.762 131.23 55.9257C131.202 55.9826 131.18 56.0395 131.152 56.0965C131.052 56.3028 130.946 56.5092 130.832 56.7085C130.825 56.7156 130.818 56.7298 130.818 56.7369C130.704 56.9291 130.583 57.1283 130.462 57.3205C130.426 57.3774 130.383 57.4343 130.348 57.4912C130.234 57.6549 130.12 57.8186 129.999 57.9823C129.971 58.0249 129.942 58.0605 129.914 58.1032C129.764 58.3025 129.601 58.5017 129.437 58.701C129.394 58.7508 129.352 58.7935 129.316 58.8433C129.174 59.007 129.031 59.1635 128.882 59.3272C128.839 59.377 128.797 59.4197 128.747 59.4695C128.555 59.6688 128.355 59.8751 128.142 60.0744C128.099 60.1171 128.056 60.1527 128.014 60.1954C127.829 60.3662 127.644 60.5369 127.444 60.7077C127.395 60.7504 127.352 60.7931 127.302 60.8287C127.06 61.0351 126.804 61.2414 126.541 61.4478C126.484 61.4905 126.434 61.5332 126.377 61.5759C126.107 61.7823 125.829 61.9886 125.544 62.195L125.537 62.2021C125.516 62.2164 125.502 62.2306 125.48 62.2377C125.31 62.3587 125.132 62.4797 124.954 62.6006C124.883 62.6433 124.819 62.6931 124.747 62.7358C124.612 62.8212 124.484 62.9066 124.349 62.9991C124.264 63.0489 124.185 63.1059 124.1 63.1557C123.972 63.234 123.851 63.3122 123.723 63.3905C123.63 63.4475 123.545 63.4973 123.452 63.5542C123.331 63.6254 123.21 63.6965 123.089 63.7677C122.954 63.846 122.812 63.9242 122.67 64.0025C122.563 64.0594 122.463 64.1164 122.356 64.1733C122.207 64.2516 122.058 64.337 121.901 64.4152C121.801 64.4722 121.702 64.522 121.595 64.5789C121.431 64.6643 121.261 64.7497 121.09 64.8351C120.997 64.8778 120.912 64.9276 120.819 64.9703C120.585 65.0842 120.35 65.198 120.115 65.3119C120.079 65.3261 120.051 65.3403 120.015 65.3617C119.645 65.5396 119.261 65.7104 118.877 65.8741C118.791 65.9096 118.713 65.9452 118.628 65.9808C118.25 66.1445 117.859 66.3081 117.468 66.4647C117.404 66.4932 117.34 66.5145 117.268 66.543C116.906 66.6924 116.536 66.8347 116.158 66.9771C116.094 67.0055 116.023 67.0269 115.959 67.0553C115.546 67.2048 115.134 67.3542 114.707 67.5037C114.621 67.5321 114.529 67.5606 114.443 67.5962C113.981 67.7527 113.511 67.9093 113.027 68.0658C112.977 68.0801 112.921 68.1014 112.871 68.1156C112.401 68.2651 111.917 68.4074 111.433 68.5497C111.383 68.564 111.334 68.5782 111.284 68.5924C110.786 68.7347 110.28 68.8771 109.775 69.0123C109.683 69.0336 109.59 69.0621 109.498 69.0834C108.992 69.2186 108.487 69.3467 107.975 69.4677C107.882 69.4891 107.79 69.5104 107.697 69.5318C107.164 69.6598 106.63 69.7879 106.082 69.9018C106.046 69.9089 106.004 69.916 105.968 69.9231C105.434 70.037 104.886 70.1509 104.339 70.2647C104.267 70.2789 104.196 70.2932 104.125 70.3074C103.577 70.4142 103.022 70.5209 102.46 70.6205C102.353 70.6419 102.254 70.6561 102.147 70.6775C101.592 70.7771 101.03 70.8696 100.46 70.9621C100.354 70.9763 100.247 70.9977 100.14 71.0119C99.7273 71.076 99.3074 71.14 98.8805 71.1969C98.7737 71.2112 98.667 71.2254 98.5603 71.2396C98.0621 71.3108 97.5569 71.3748 97.0516 71.4389C96.9449 71.4531 96.8382 71.4673 96.7243 71.4816C96.2973 71.5314 95.8633 71.5812 95.4292 71.631C95.3153 71.6453 95.1943 71.6595 95.0805 71.6666C94.5681 71.7235 94.0486 71.7733 93.5292 71.8232C93.4509 71.8303 93.3726 71.8374 93.2943 71.8445C92.5685 71.9085 91.8427 71.9726 91.1097 72.0224C91.0457 72.0295 90.9745 72.0295 90.9104 72.0366C90.1704 72.0865 89.4232 72.1363 88.6689 72.1718C88.5977 72.179 88.5266 72.179 88.4483 72.179C87.8648 72.2074 87.2884 72.2288 86.6977 72.2501C86.6123 72.2501 86.5269 72.2572 86.4344 72.2572C85.8224 72.2786 85.2033 72.2928 84.5914 72.2999C84.4562 72.2999 84.3281 72.3071 84.1929 72.3071C83.6236 72.3142 83.0472 72.3213 82.4708 72.3213C81.8872 72.3213 81.3108 72.3142 80.7273 72.3071C80.585 72.3071 80.4427 72.2999 80.3004 72.2999C79.7809 72.2928 79.2614 72.2786 78.7419 72.2644C78.7206 72.2644 78.6921 72.2644 78.6708 72.2644C78.1299 72.2501 77.5962 72.2288 77.0625 72.2003C76.9202 72.1932 76.7779 72.1861 76.6356 72.179C76.2157 72.1576 75.7887 72.1363 75.3689 72.1149C75.2622 72.1078 75.1554 72.1007 75.0487 72.0936C74.5363 72.0651 74.0311 72.0295 73.5187 71.9868C73.3977 71.9797 73.2768 71.9655 73.1558 71.9584C72.7573 71.9299 72.3588 71.8943 71.9603 71.8587C71.818 71.8445 71.6828 71.8374 71.5404 71.8232C71.0423 71.7805 70.5442 71.7306 70.0532 71.6808C70.0461 71.6808 70.0318 71.6808 70.0247 71.6808C69.5337 71.631 69.0498 71.5741 68.573 71.5172C68.4378 71.5029 68.3026 71.4816 68.1603 71.4673C67.7618 71.4175 67.3633 71.3677 66.9648 71.3179C66.8652 71.3037 66.7727 71.2894 66.673 71.2823C66.182 71.2183 65.691 71.1471 65.2 71.0688C65.0861 71.0546 64.9723 71.0333 64.8584 71.019C64.4528 70.955 64.0543 70.8909 63.6558 70.8269C63.5491 70.8055 63.4423 70.7913 63.3356 70.7771C62.8375 70.6917 62.3393 70.6063 61.8483 70.5138C61.7416 70.4924 61.6419 70.4711 61.5352 70.4569C61.094 70.3715 60.6599 70.2861 60.233 70.2007C60.1547 70.1864 60.0764 70.1722 60.0052 70.1509C59.4787 70.0441 58.9592 69.9303 58.4468 69.8164C58.3401 69.7951 58.2405 69.7666 58.1337 69.7452C57.6214 69.6314 57.1161 69.5104 56.618 69.3823C56.5539 69.3681 56.4899 69.3538 56.433 69.3325C55.8281 69.1831 55.2375 69.0265 54.6539 68.8628C54.6112 68.8486 54.5685 68.8415 54.5259 68.8273C53.9281 68.6636 53.3375 68.4928 52.7539 68.3149C52.7041 68.3007 52.6472 68.2793 52.5974 68.2651C52.2914 68.1726 51.9925 68.0801 51.6936 67.9804C51.5798 67.9449 51.4588 67.9022 51.345 67.8666C51.1101 67.7883 50.8753 67.71 50.6476 67.6317C50.5195 67.589 50.3985 67.5463 50.2775 67.5037C50.0498 67.4254 49.8221 67.34 49.5944 67.2617C49.4805 67.219 49.3667 67.1834 49.2599 67.1407C48.9824 67.0411 48.712 66.9344 48.4416 66.8347C48.3847 66.8134 48.3277 66.792 48.2708 66.7707C48.0716 66.6924 47.8723 66.6141 47.673 66.5359C47.5805 66.5003 47.488 66.4647 47.4026 66.4291C47.118 66.3153 46.8334 66.1943 46.5558 66.0804C46.506 66.0591 46.4491 66.0377 46.3993 66.0093C46.1716 65.9096 45.951 65.8171 45.7304 65.7175C45.6307 65.6748 45.5311 65.625 45.4386 65.5823C45.2678 65.504 45.097 65.4257 44.9262 65.3475C44.8195 65.2976 44.7128 65.2478 44.606 65.1909C44.4495 65.1197 44.3 65.0415 44.1435 64.9703C44.0296 64.9134 43.9229 64.8564 43.8161 64.8066C43.6738 64.7355 43.5315 64.6643 43.3892 64.586C43.2753 64.5291 43.1686 64.4722 43.0618 64.4152C42.9266 64.3441 42.7914 64.2729 42.6562 64.1946C42.5495 64.1377 42.4356 64.0737 42.3289 64.0096C42.2008 63.9385 42.0727 63.8673 41.9446 63.789C41.8379 63.725 41.7311 63.6609 41.6244 63.5969C41.5034 63.5257 41.3753 63.4546 41.2543 63.3763C41.1476 63.3122 41.048 63.2482 40.9412 63.1842C40.8202 63.113 40.7064 63.0347 40.5925 62.9636C40.4929 62.8995 40.3862 62.8283 40.2865 62.7643C40.1727 62.6931 40.0588 62.6149 39.9521 62.5437C39.8525 62.4797 39.76 62.4085 39.6603 62.3444C39.5536 62.2662 39.4397 62.195 39.333 62.1167C39.2262 62.0456 39.1337 61.9815 39.0412 61.9104C38.9345 61.8321 38.8349 61.7538 38.7281 61.6826C38.6356 61.6115 38.5502 61.5474 38.4577 61.4763C38.3581 61.398 38.2585 61.3197 38.1659 61.2414C38.0806 61.1703 37.9952 61.0991 37.9098 61.028C37.8173 60.9497 37.7247 60.8714 37.6322 60.7931C37.5468 60.722 37.4686 60.6508 37.3832 60.5796C37.2907 60.5014 37.2053 60.4231 37.1199 60.3448C37.0416 60.2737 36.9633 60.2025 36.885 60.1242C36.7997 60.0459 36.7143 59.9605 36.636 59.8823C36.5577 59.8111 36.4865 59.7328 36.4154 59.6617C36.3371 59.5834 36.2588 59.498 36.1806 59.4197C36.1094 59.3485 36.0382 59.2703 35.9742 59.1991C35.8888 59.1066 35.8105 59.0283 35.7394 58.9429C35.6753 58.8647 35.6113 58.7935 35.5472 58.7152C35.4761 58.6298 35.4049 58.5515 35.3409 58.4662C35.2768 58.3879 35.2199 58.3167 35.1558 58.2384C35.0918 58.153 35.0277 58.0748 34.9637 57.9894C34.9068 57.9111 34.8498 57.8399 34.7929 57.7616C34.7289 57.6763 34.6719 57.5909 34.615 57.5055C34.5652 57.4272 34.5083 57.3489 34.4585 57.2778C34.4015 57.1924 34.3517 57.107 34.2948 57.0145C34.245 56.9362 34.2023 56.8579 34.1525 56.7796C34.1027 56.6942 34.0528 56.6017 34.003 56.5163C33.9603 56.438 33.9176 56.3598 33.8749 56.2815C33.8322 56.189 33.7895 56.1036 33.7468 56.0111C33.7113 55.9328 33.6686 55.8545 33.6401 55.7762C33.5974 55.6837 33.5618 55.5912 33.5262 55.5058C33.4907 55.4276 33.4622 55.3493 33.4337 55.271C33.3982 55.1785 33.3697 55.086 33.3341 54.9935C33.3056 54.9152 33.2772 54.8369 33.2558 54.7586C33.2274 54.6661 33.1989 54.5665 33.1704 54.474C33.1491 54.3957 33.1277 54.3246 33.1064 54.2463C33.0779 54.1467 33.0637 54.047 33.0424 53.9474C33.0281 53.8762 33.0068 53.798 32.9925 53.7268C32.9712 53.6201 32.957 53.5204 32.9427 53.4137C32.9285 53.3425 32.9214 53.2714 32.9071 53.2073C32.9 53.0792 32.8929 52.9654 32.8787 52.8515C32.8716 52.7946 32.8645 52.7305 32.8645 52.6736C32.8502 52.4957 32.8502 52.3178 32.8502 52.147V64.6145C32.8502 64.7924 32.8573 64.9703 32.8645 65.1411C32.8716 65.198 32.8787 65.2621 32.8787 65.319C32.8858 65.4329 32.9 65.5538 32.9143 65.6677C32.9214 65.7388 32.9356 65.81 32.9498 65.8741C32.9641 65.9808 32.9783 66.0804 32.9997 66.1872C33.0139 66.2583 33.0352 66.3366 33.0495 66.4078C33.0708 66.5074 33.0922 66.607 33.1135 66.7066C33.1349 66.7849 33.1562 66.8561 33.1776 66.9344C33.206 67.0269 33.2274 67.1265 33.263 67.219C33.2843 67.2973 33.3128 67.3756 33.3412 67.4538C33.3768 67.5463 33.4053 67.6389 33.4409 67.7314C33.4693 67.8096 33.5049 67.8879 33.5334 67.9662C33.5689 68.0587 33.6045 68.1512 33.6472 68.2366C33.6828 68.3149 33.7184 68.3932 33.754 68.4714C33.7967 68.564 33.8394 68.6493 33.8821 68.7419C33.9248 68.8201 33.9674 68.8984 34.0101 68.9767C34.06 69.0621 34.1027 69.1546 34.1596 69.24C34.2023 69.3183 34.2521 69.3965 34.3019 69.4748C34.3517 69.5602 34.4086 69.6527 34.4656 69.7381C34.5154 69.8164 34.5652 69.8947 34.6221 69.9658C34.6791 70.0512 34.736 70.1366 34.8 70.222C34.857 70.3003 34.9139 70.3786 34.9708 70.4497C35.0349 70.5351 35.0989 70.6205 35.163 70.7059C35.2199 70.7842 35.2839 70.8554 35.348 70.9336C35.4191 71.019 35.4832 71.1044 35.5543 71.1827C35.6184 71.261 35.6824 71.3321 35.7465 71.4104C35.8176 71.4958 35.8959 71.5741 35.9671 71.6595C36.0382 71.7306 36.1023 71.8089 36.1734 71.8801C36.2517 71.9584 36.33 72.0438 36.4083 72.122C36.4794 72.1932 36.5577 72.2715 36.6289 72.3426C36.7143 72.4209 36.7925 72.5063 36.8779 72.5846C36.9562 72.6557 37.0345 72.7269 37.1128 72.8052C37.1982 72.8835 37.2907 72.9617 37.3761 73.04C37.4543 73.1112 37.5397 73.1823 37.6251 73.2535C37.7176 73.3318 37.8101 73.41 37.9026 73.4883C37.988 73.5595 38.0734 73.6307 38.1588 73.7018C38.2585 73.7801 38.351 73.8584 38.4506 73.9366C38.5431 74.0078 38.6285 74.079 38.721 74.143C38.8206 74.2213 38.9274 74.2996 39.0341 74.3707C39.1266 74.4419 39.2191 74.5059 39.3116 74.5771C39.4184 74.6554 39.5251 74.7265 39.639 74.8048C39.7386 74.8689 39.8311 74.94 39.9307 75.0041C40.0446 75.0823 40.1513 75.1535 40.2652 75.2247C40.3648 75.2887 40.4644 75.3599 40.5712 75.4239C40.685 75.4951 40.806 75.5734 40.9199 75.6445C41.0266 75.7086 41.1262 75.7726 41.233 75.8367C41.354 75.9078 41.4749 75.979 41.603 76.0573C41.7098 76.1213 41.8165 76.1854 41.9232 76.2494C42.0513 76.3206 42.1794 76.3917 42.3075 76.47C42.4143 76.534 42.521 76.591 42.6349 76.655C42.7701 76.7262 42.9053 76.7973 43.0405 76.8756C43.1472 76.9325 43.2611 76.9895 43.3678 77.0464C43.5101 77.1176 43.6525 77.1887 43.7948 77.267C43.9015 77.3239 44.0154 77.3809 44.1221 77.4307C44.2716 77.5089 44.4281 77.5801 44.5847 77.6513C44.6914 77.7011 44.7981 77.758 44.9049 77.8078C45.0757 77.8861 45.2465 77.9644 45.4172 78.0427C45.5169 78.0854 45.6094 78.1352 45.709 78.1779C45.9296 78.2775 46.1502 78.37 46.3779 78.4696C46.4277 78.491 46.4847 78.5123 46.5345 78.5408C46.812 78.6618 47.0966 78.7756 47.3813 78.8895C47.4738 78.9251 47.5592 78.9606 47.6517 78.9962C47.851 79.0745 48.0502 79.1528 48.2495 79.2311C48.2566 79.2311 48.2637 79.2382 48.2708 79.2382C48.3206 79.2595 48.3633 79.2738 48.4131 79.2951C48.6835 79.4018 48.9539 79.5015 49.2315 79.6011C49.3453 79.6438 49.4592 79.6794 49.5659 79.7221C49.7936 79.8004 50.0214 79.8857 50.2491 79.964C50.37 80.0067 50.4981 80.0494 50.6191 80.0921C50.8539 80.1704 51.0817 80.2487 51.3165 80.3269C51.4303 80.3625 51.5513 80.4052 51.6652 80.4408C51.9641 80.5333 52.2629 80.6329 52.5689 80.7255C52.6187 80.7397 52.6614 80.7539 52.7112 80.7681C52.7184 80.7681 52.7255 80.7681 52.7255 80.7753C53.309 80.9532 53.8996 81.124 54.4974 81.2876C54.5401 81.3019 54.5828 81.309 54.6255 81.3232C55.209 81.4869 55.8067 81.6434 56.4045 81.7929C56.4472 81.8 56.4828 81.8142 56.5255 81.8213C56.5468 81.8285 56.5753 81.8356 56.5966 81.8356C57.0948 81.9565 57.6 82.0775 58.1124 82.1985C58.2191 82.2198 58.3187 82.2483 58.4255 82.2697C58.9378 82.3835 59.4573 82.4974 59.9839 82.6041C60.0052 82.6112 60.0266 82.6112 60.0479 82.6183C60.1049 82.6326 60.1618 82.6397 60.2187 82.6539C60.6528 82.7393 61.0869 82.8247 61.521 82.9101C61.6277 82.9315 61.7273 82.9528 61.8341 82.967C62.3251 83.0595 62.8232 83.1449 63.3213 83.2303C63.3569 83.2374 63.3925 83.2446 63.421 83.2517C63.4921 83.2659 63.5704 83.273 63.6416 83.2873C64.0401 83.3513 64.4457 83.4153 64.8442 83.4794C64.958 83.4936 65.0719 83.515 65.1858 83.5292C65.6768 83.6004 66.1607 83.6715 66.6588 83.7427C66.6873 83.7427 66.7086 83.7498 66.7371 83.7569C66.8082 83.764 66.8794 83.7783 66.9506 83.7854C67.3491 83.8352 67.7476 83.8921 68.1461 83.9348C68.2813 83.9491 68.4165 83.9704 68.5588 83.9846C69.0427 84.0416 69.5266 84.0985 70.0105 84.1483C70.0176 84.1483 70.0318 84.1483 70.0389 84.1483C70.0389 84.1483 70.0389 84.1483 70.0461 84.1483C70.5371 84.1981 71.0352 84.2479 71.5333 84.2906C71.6756 84.3049 71.8108 84.312 71.9532 84.3262C72.3517 84.3618 72.7502 84.3903 73.1487 84.4258C73.2341 84.433 73.3123 84.4401 73.3977 84.4472C73.4333 84.4472 73.4689 84.4543 73.5045 84.4543C74.0097 84.4899 74.5221 84.5255 75.0344 84.5611C75.1412 84.5682 75.2479 84.5753 75.3547 84.5824C75.7745 84.6037 76.1944 84.6322 76.6213 84.6464C76.6996 84.6536 76.785 84.6536 76.8633 84.6607C76.9273 84.6607 76.9914 84.6678 77.0483 84.6678C77.582 84.6891 78.1228 84.7105 78.6565 84.7318C78.6779 84.7318 78.7063 84.7318 78.7277 84.7318C79.2472 84.7461 79.7666 84.7603 80.2861 84.7674C80.3573 84.7674 80.4284 84.7745 80.4996 84.7745C80.5708 84.7745 80.6419 84.7745 80.7131 84.7745C81.2895 84.7817 81.873 84.7888 82.4565 84.7888C83.0329 84.7888 83.6093 84.7817 84.1786 84.7745C84.2498 84.7745 84.3209 84.7745 84.3921 84.7745C84.4562 84.7745 84.5131 84.7745 84.5771 84.7674C85.1962 84.7603 85.8082 84.739 86.4202 84.7247C86.5056 84.7247 86.591 84.7176 86.6835 84.7176C87.267 84.6963 87.8505 84.6749 88.4341 84.6464C88.4839 84.6464 88.5408 84.6393 88.5977 84.6393C88.6191 84.6393 88.6333 84.6393 88.6546 84.6393C89.409 84.6037 90.1561 84.5539 90.8962 84.5041C90.9603 84.497 91.0314 84.497 91.0955 84.4899C91.8284 84.4401 92.5614 84.376 93.2801 84.312C93.3299 84.3049 93.3726 84.3049 93.4224 84.2978C93.4509 84.2978 93.4865 84.2906 93.5149 84.2906C94.0344 84.2408 94.5539 84.191 95.0663 84.1341C95.1801 84.1199 95.3011 84.1056 95.4149 84.0985C95.849 84.0487 96.2831 83.9989 96.7101 83.9491C96.8168 83.9348 96.9236 83.9206 97.0374 83.9064C97.5426 83.8423 98.0479 83.7783 98.546 83.7071C98.6528 83.6929 98.7595 83.6786 98.8662 83.6644C99.2861 83.6075 99.7059 83.5434 100.126 83.4794C100.197 83.4652 100.268 83.458 100.339 83.4438C100.375 83.4367 100.41 83.4296 100.439 83.4296C101.008 83.3371 101.57 83.2446 102.125 83.1449C102.232 83.1236 102.332 83.1094 102.439 83.088C103.001 82.9884 103.556 82.8816 104.104 82.7749C104.175 82.7607 104.246 82.7464 104.317 82.7322C104.865 82.6255 105.406 82.5116 105.947 82.3906C105.982 82.3835 106.025 82.3764 106.061 82.3693C106.609 82.2483 107.142 82.1273 107.676 81.9992C107.768 81.9779 107.861 81.9565 107.954 81.9352C108.466 81.8071 108.978 81.679 109.476 81.5509C109.569 81.5296 109.661 81.5011 109.754 81.4798C110.266 81.3446 110.771 81.2022 111.262 81.0599C111.312 81.0457 111.362 81.0314 111.412 81.0172C111.896 80.8749 112.38 80.7254 112.849 80.5831C112.899 80.5689 112.956 80.5475 113.006 80.5333C113.483 80.3839 113.952 80.2273 114.422 80.0636C114.472 80.0494 114.522 80.0352 114.564 80.0138C114.607 79.9996 114.643 79.9854 114.685 79.9711C115.105 79.8217 115.525 79.6723 115.938 79.5228C116.002 79.4944 116.073 79.473 116.137 79.4445C116.514 79.3022 116.884 79.1599 117.247 79.0105C117.311 78.982 117.375 78.9606 117.446 78.9322C117.838 78.7756 118.229 78.612 118.606 78.4483C118.692 78.4127 118.77 78.3771 118.855 78.3415C119.24 78.1707 119.624 78 119.994 77.8292C119.994 77.8292 119.994 77.8292 120.001 77.8292C120.03 77.8149 120.065 77.8007 120.094 77.7865C120.328 77.6726 120.57 77.5588 120.798 77.4449C120.891 77.4022 120.983 77.3524 121.068 77.3097C121.239 77.2243 121.41 77.1389 121.574 77.0535C121.673 77.0037 121.773 76.9468 121.88 76.8898C122.029 76.8116 122.186 76.7262 122.335 76.6479C122.442 76.591 122.541 76.534 122.648 76.4771C122.791 76.3988 122.933 76.3206 123.068 76.2423C123.111 76.2209 123.146 76.1996 123.189 76.1711C123.274 76.1213 123.353 76.0715 123.431 76.0288C123.524 75.9719 123.609 75.9221 123.701 75.8651C123.83 75.7868 123.958 75.7086 124.079 75.6303C124.164 75.5805 124.249 75.5235 124.328 75.4737C124.463 75.3883 124.598 75.3029 124.726 75.2104C124.797 75.1677 124.861 75.1179 124.933 75.0752C125.11 74.9543 125.288 74.8333 125.459 74.7123C125.48 74.6981 125.495 74.6838 125.516 74.6767C125.516 74.6767 125.523 74.6767 125.523 74.6696C125.808 74.4632 126.085 74.2569 126.356 74.0505C126.413 74.0078 126.462 73.9651 126.519 73.9224C126.783 73.716 127.032 73.5097 127.281 73.3033C127.295 73.2891 127.316 73.2748 127.331 73.2606C127.366 73.2321 127.395 73.2037 127.423 73.1752C127.615 73.0044 127.807 72.8336 127.992 72.6629C128.035 72.6202 128.078 72.5846 128.121 72.5419C128.327 72.3426 128.533 72.1434 128.725 71.937C128.74 71.9228 128.761 71.9085 128.775 71.8872C128.804 71.8587 128.832 71.8232 128.861 71.7947C129.01 71.6381 129.152 71.4745 129.295 71.3108C129.337 71.261 129.38 71.2183 129.416 71.1685C129.586 70.9692 129.743 70.77 129.892 70.5707C129.9 70.5636 129.907 70.5494 129.921 70.5422C129.942 70.5138 129.964 70.4853 129.985 70.4497C130.106 70.2861 130.22 70.1224 130.334 69.9587C130.369 69.9018 130.412 69.8449 130.447 69.7879C130.576 69.5958 130.697 69.4037 130.803 69.2044C130.81 69.1973 130.81 69.1902 130.818 69.1831C130.818 69.1831 130.818 69.1831 130.818 69.1759C130.931 68.9767 131.038 68.7703 131.138 68.564C131.166 68.507 131.195 68.4501 131.216 68.3932C131.294 68.2295 131.365 68.0658 131.43 67.9022C131.444 67.8666 131.458 67.831 131.472 67.8025C131.479 67.7883 131.479 67.7741 131.486 67.7598C131.565 67.5535 131.643 67.34 131.707 67.1265C131.721 67.0838 131.735 67.034 131.743 66.9913C131.792 66.8205 131.835 66.6426 131.878 66.4647C131.885 66.4291 131.899 66.3935 131.906 66.3651C131.913 66.3437 131.913 66.3153 131.921 66.2939C131.963 66.0733 132.006 65.8456 132.034 65.6179C132.041 65.5894 132.041 65.5538 132.041 65.5254C132.063 65.3261 132.077 65.1197 132.084 64.9205C132.084 64.8849 132.091 64.8564 132.091 64.8209C132.091 64.7497 132.091 64.6785 132.091 64.6145V52.1399C132.098 52.2466 132.098 52.3463 132.091 52.4459Z" fill="#454545"/>
<path d="M82.4709 31.9587C109.882 31.9587 132.099 40.9962 132.099 52.1472C132.099 63.2982 109.882 72.3286 82.4709 72.3286C55.0597 72.3286 32.8432 63.2911 32.8432 52.1472C32.8503 40.9962 55.0668 31.9587 82.4709 31.9587Z" fill="url(#paint1_linear)"/>
<g opacity="0.5">
<path opacity="0.5" d="M132.099 52.1399C132.099 63.2909 109.882 72.3213 82.4709 72.3213C55.0597 72.3213 32.8432 63.2838 32.8432 52.1399" stroke="url(#paint2_linear)" stroke-width="1.8706" stroke-miterlimit="10"/>
</g>
<g opacity="0.4">
<path d="M139.499 57.9468C139.606 61.6543 128.106 64.9918 113.832 65.3974C101.962 65.7319 91.9068 63.9386 88.7829 61.1918L81.6739 59.5835L88.6334 57.5625C91.6435 54.652 101.578 52.2966 113.447 51.955C127.729 51.5565 139.393 54.2393 139.499 57.9468Z" fill="url(#paint3_linear)"/>
</g>
<path d="M84.5772 2.59739C84.9188 2.63297 85.2603 2.67567 85.5948 2.71837C85.7229 2.7326 85.8438 2.74683 85.9719 2.76818C86.4843 2.84646 86.9824 2.93897 87.4877 3.03859C87.63 3.06706 87.7652 3.10264 87.9075 3.1311C88.2704 3.2165 88.6405 3.30189 88.9963 3.40152C89.1884 3.45133 89.3877 3.50826 89.5798 3.56519C89.7435 3.615 89.9 3.66481 90.0637 3.71463C90.2985 3.78579 90.5262 3.86407 90.7611 3.94946C90.9176 3.99927 91.0671 4.0562 91.2236 4.11313C91.4656 4.20564 91.7075 4.29815 91.9423 4.39066C92.0776 4.44759 92.2128 4.4974 92.348 4.55433C92.6326 4.67531 92.9101 4.79628 93.1877 4.93149C93.2731 4.97419 93.3656 5.00977 93.451 5.05246C93.5221 5.08804 93.5862 5.12362 93.6573 5.15209C94.0274 5.32999 94.3903 5.52213 94.7461 5.71426C94.8884 5.79254 95.0236 5.87082 95.1588 5.9491C95.4435 6.11277 95.7281 6.27644 96.0056 6.45434C96.148 6.53974 96.2903 6.63225 96.4326 6.72476C96.7172 6.90978 97.0019 7.10191 97.2794 7.29405C97.3933 7.37233 97.5143 7.45772 97.6281 7.536C98.0124 7.81353 98.3895 8.10529 98.7596 8.40417C98.8023 8.43975 98.845 8.48245 98.8948 8.51803C99.215 8.78844 99.5352 9.05885 99.8412 9.3435C99.9551 9.45024 100.069 9.55698 100.183 9.66373C100.425 9.89144 100.66 10.1192 100.887 10.354C101.001 10.475 101.122 10.5959 101.236 10.7169C101.464 10.9589 101.691 11.2079 101.912 11.4641C102.005 11.5709 102.104 11.6776 102.197 11.7915C102.503 12.1544 102.802 12.5244 103.093 12.9016C103.335 13.2147 103.563 13.542 103.791 13.8694C103.855 13.969 103.919 14.0615 103.983 14.1611C104.139 14.396 104.296 14.6308 104.445 14.8656C104.524 14.9937 104.602 15.1289 104.68 15.257C104.808 15.4705 104.936 15.684 105.05 15.8975C105.128 16.0398 105.207 16.1892 105.285 16.3316C105.385 16.5166 105.484 16.7087 105.577 16.9008C105.769 17.2851 105.954 17.6694 106.125 18.0608C106.153 18.1248 106.189 18.1889 106.217 18.2529C106.416 18.7083 106.594 19.178 106.765 19.6477C106.822 19.8042 106.872 19.9608 106.929 20.1245C107.021 20.3949 107.114 20.6653 107.192 20.9357C107.249 21.1136 107.299 21.2915 107.349 21.4694C107.42 21.7327 107.491 22.0031 107.562 22.2735C107.612 22.4657 107.655 22.6507 107.697 22.8428C107.747 23.0777 107.797 23.3125 107.84 23.5473C107.875 23.7466 107.918 23.9458 107.946 24.1522C107.989 24.3941 108.025 24.6361 108.053 24.878C108.082 25.0844 108.11 25.2837 108.131 25.49C108.16 25.7249 108.181 25.9668 108.203 26.2016C108.217 26.408 108.238 26.6215 108.252 26.8279C108.267 27.0698 108.274 27.3118 108.281 27.5537C108.288 27.8241 108.302 28.1017 108.302 28.3721V25.9028C108.302 25.7818 108.302 25.6537 108.302 25.5327C108.302 25.3833 108.288 25.2339 108.281 25.0844C108.274 24.8425 108.267 24.6005 108.252 24.3586C108.238 24.1522 108.224 23.9387 108.203 23.7323C108.181 23.4975 108.16 23.2556 108.131 23.0207C108.124 22.9425 108.117 22.8713 108.11 22.793C108.096 22.6649 108.067 22.5368 108.053 22.4087C108.018 22.1668 107.982 21.9248 107.946 21.6829C107.911 21.4836 107.875 21.2773 107.84 21.078C107.797 20.8432 107.747 20.6084 107.697 20.3735C107.676 20.281 107.662 20.1814 107.64 20.0889C107.619 19.9964 107.591 19.8967 107.562 19.8042C107.498 19.5338 107.427 19.2705 107.349 19.0001C107.299 18.8222 107.249 18.6443 107.192 18.4664C107.107 18.1889 107.021 17.9185 106.929 17.648C106.886 17.5342 106.858 17.4132 106.815 17.2922C106.801 17.2495 106.779 17.214 106.765 17.1713C106.594 16.7016 106.409 16.239 106.217 15.7765C106.189 15.7124 106.16 15.6484 106.125 15.5844C105.954 15.193 105.769 14.8016 105.577 14.4244C105.548 14.3675 105.527 14.3106 105.499 14.2536C105.427 14.1184 105.356 13.9903 105.285 13.8623C105.207 13.7199 105.128 13.5705 105.05 13.4282C104.929 13.2147 104.801 13.0012 104.68 12.7877C104.602 12.6596 104.524 12.5244 104.445 12.3963C104.296 12.1544 104.139 11.9267 103.983 11.6918C103.919 11.5922 103.855 11.4926 103.791 11.4001C103.57 11.0798 103.342 10.7596 103.1 10.4465C103.1 10.4394 103.093 10.4394 103.093 10.4323C102.809 10.0551 102.51 9.68507 102.197 9.32215C102.104 9.20829 102.005 9.10155 101.912 8.99481C101.691 8.74574 101.464 8.49668 101.236 8.24761C101.122 8.12664 101.001 8.00566 100.887 7.88469C100.66 7.64986 100.425 7.42214 100.183 7.19442C100.069 7.08768 99.9551 6.98094 99.8412 6.8742C99.5281 6.58955 99.215 6.31914 98.8948 6.04872C98.8521 6.01314 98.8094 5.97045 98.7596 5.93487C98.3895 5.63599 98.0124 5.34423 97.6281 5.0667C97.5143 4.9813 97.3933 4.90302 97.2794 4.82475C97.0019 4.63261 96.7172 4.44047 96.4326 4.25546C96.2903 4.16295 96.148 4.07755 96.0056 3.98504C95.7281 3.80002 95.4435 3.62923 95.1588 3.46556C95.0236 3.38729 94.8813 3.30901 94.7461 3.23073C94.3832 3.03859 94.0202 2.84646 93.6502 2.66855C93.5933 2.64009 93.5364 2.61163 93.4794 2.58316C93.4652 2.57604 93.4581 2.57604 93.4438 2.56893C93.3584 2.52623 93.2731 2.49065 93.1805 2.44795C92.903 2.31986 92.6255 2.19177 92.3408 2.0708C92.2056 2.01387 92.0704 1.96406 91.9352 1.90713C91.6933 1.81462 91.4585 1.71499 91.2165 1.6296C91.0671 1.57267 90.9105 1.52286 90.754 1.46593C90.5262 1.38765 90.2914 1.30937 90.0566 1.23109C89.8929 1.18128 89.7364 1.13147 89.5727 1.08165C89.4588 1.04607 89.3521 1.01049 89.2382 0.982028C89.16 0.96068 89.0746 0.946447 88.9892 0.917983C88.6262 0.818357 88.2633 0.732963 87.9004 0.647569C87.7581 0.619105 87.6229 0.583524 87.4806 0.555059C86.9824 0.448317 86.4772 0.355807 85.9648 0.284646C85.9506 0.284646 85.9364 0.27753 85.9221 0.27753C85.8083 0.263297 85.7015 0.256181 85.5877 0.234833C85.2461 0.192136 84.9116 0.149439 84.5701 0.113858C84.3922 0.099626 84.2143 0.0853937 84.0435 0.0711615C83.7446 0.049813 83.4528 0.0284646 83.1469 0.0142323C83.0828 0.0142323 83.0188 0.00711615 82.9547 0C82.6558 0.00711615 82.3427 0 82.0225 0C81.4532 0 80.8839 0.0213484 80.3218 0.0569292C80.2577 0.0640453 80.1866 0.0569292 80.1154 0.0640453C79.9873 0.0711615 79.8663 0.0925099 79.7454 0.099626C79.5034 0.120974 79.2615 0.142323 79.0195 0.170787C78.806 0.192136 78.5997 0.220601 78.3933 0.249065C78.1514 0.284646 77.9165 0.320227 77.6817 0.355807C77.5749 0.37004 77.4753 0.384272 77.3686 0.40562C77.269 0.419853 77.1764 0.448317 77.0768 0.462549C76.8206 0.512362 76.5645 0.562176 76.3083 0.619105C76.1161 0.661802 75.924 0.704498 75.7319 0.747195C75.4757 0.811241 75.2195 0.875286 74.9633 0.946447C74.8424 0.982028 74.7143 1.01049 74.5862 1.04607C74.5293 1.06031 74.4794 1.08165 74.4225 1.09589C74.0667 1.20263 73.718 1.31649 73.3622 1.43746C73.2555 1.47304 73.1487 1.50151 73.0491 1.5442C72.6008 1.70788 72.1525 1.87866 71.7184 2.06368C71.6971 2.0708 71.6757 2.07791 71.6615 2.08503C71.6045 2.10638 71.5547 2.13484 71.4978 2.16331C71.0353 2.36256 70.5869 2.57604 70.1386 2.79665C70.0177 2.86069 69.8967 2.91762 69.7757 2.98166C69.2847 3.23785 68.7937 3.50826 68.3169 3.79291C68.3027 3.80002 68.2813 3.81425 68.2671 3.82137C68.1959 3.86407 68.1319 3.91388 68.0607 3.95658C67.7192 4.16295 67.3918 4.38355 67.0574 4.60415C66.9293 4.69666 66.7941 4.78205 66.666 4.87456C66.3742 5.08093 66.0825 5.30153 65.7978 5.51501C65.6982 5.60752 65.5843 5.69292 65.4705 5.78543C65.0862 6.09142 64.709 6.41165 64.339 6.73899C64.3105 6.76745 64.2821 6.79592 64.2465 6.82438C63.912 7.13038 63.5847 7.44349 63.2645 7.76371C63.1577 7.87046 63.051 7.98431 62.9443 8.09106C62.6952 8.34724 62.4604 8.61054 62.2255 8.87383C62.1259 8.98769 62.0192 9.10155 61.9195 9.22252C61.6349 9.54987 61.3645 9.88433 61.1012 10.233C61.0656 10.2828 61.0229 10.3255 60.9873 10.3753C60.6884 10.7667 60.4038 11.1652 60.1334 11.5709C60.0551 11.6847 59.9768 11.8057 59.8986 11.9267C59.6993 12.2255 59.5072 12.5315 59.3293 12.8446C59.251 12.9798 59.1656 13.1222 59.0873 13.2574C58.8952 13.5918 58.7102 13.9405 58.5323 14.2821C58.4825 14.3817 58.4326 14.4742 58.3828 14.5739C58.1622 15.0151 57.9559 15.4634 57.7637 15.9259C57.7139 16.0398 57.6712 16.1537 57.6285 16.2604C57.4862 16.6162 57.3439 16.972 57.2158 17.3349C57.1589 17.4844 57.1091 17.6409 57.0592 17.7904C56.9383 18.1462 56.8315 18.502 56.7319 18.8578C56.6963 18.993 56.6536 19.1211 56.618 19.2563C56.49 19.7402 56.369 20.2312 56.2694 20.7293C56.2551 20.8147 56.2409 20.9001 56.2267 20.9784C56.1484 21.3982 56.0772 21.8181 56.0132 22.238C55.9918 22.4016 55.9705 22.5582 55.9491 22.7219C55.9064 23.0919 55.8637 23.4619 55.8353 23.8391C55.821 23.9956 55.8068 24.1522 55.7997 24.3088C55.7712 24.8282 55.7499 25.3477 55.7499 25.8814V28.3507C55.7499 27.8241 55.7712 27.2975 55.7997 26.7781C55.8068 26.6215 55.821 26.4649 55.8353 26.3084C55.8637 25.9312 55.8993 25.5612 55.9491 25.1912C55.9705 25.0275 55.9918 24.8638 56.0132 24.7073C56.0772 24.2803 56.1484 23.8604 56.2267 23.4477C56.2409 23.3623 56.2551 23.2769 56.2694 23.1986C56.369 22.7005 56.49 22.2095 56.618 21.7256C56.6536 21.5904 56.6963 21.4623 56.7319 21.3271C56.8315 20.9713 56.9454 20.6084 57.0592 20.2597C57.1091 20.1031 57.166 19.9537 57.2158 19.8042C57.3439 19.4413 57.4791 19.0855 57.6285 18.7297C57.6712 18.6158 57.7139 18.502 57.7637 18.3952C57.9559 17.9398 58.1622 17.4915 58.3828 17.0432C58.4326 16.9435 58.4825 16.851 58.5323 16.7514C58.7102 16.4027 58.8952 16.0611 59.0873 15.7267C59.1656 15.5915 59.2439 15.4492 59.3293 15.3139C59.5143 15.0008 59.7064 14.6948 59.8986 14.396C59.9768 14.275 60.048 14.1611 60.1334 14.0402C60.4109 13.6345 60.6956 13.2289 60.9873 12.8446C61.0229 12.7948 61.0656 12.7521 61.1012 12.7023C61.3645 12.3607 61.642 12.0263 61.9195 11.6918C62.0192 11.578 62.1259 11.457 62.2255 11.3431C62.4604 11.0798 62.7023 10.8165 62.9443 10.5604C63.051 10.4536 63.1577 10.3398 63.2645 10.233C63.5847 9.91279 63.912 9.59968 64.2465 9.29369C64.275 9.26522 64.3034 9.23676 64.339 9.20829C64.7019 8.88095 65.0862 8.56784 65.4705 8.25473C65.5843 8.16222 65.6982 8.07683 65.812 7.99143C66.0967 7.77083 66.3884 7.55735 66.6802 7.35098C66.8083 7.25847 66.9364 7.16596 67.0716 7.08056C67.3989 6.85996 67.7334 6.63936 68.075 6.433C68.1603 6.38318 68.2457 6.32625 68.3311 6.27644C68.8079 5.99179 69.2918 5.72138 69.7899 5.4652C69.9109 5.40115 70.0319 5.34423 70.1529 5.28018C70.6012 5.05958 71.0495 4.8461 71.512 4.64684C71.5832 4.61838 71.6615 4.5828 71.7326 4.54722C72.1738 4.3622 72.615 4.19141 73.0633 4.02774C73.1701 3.99216 73.2697 3.95658 73.3764 3.921C73.7251 3.80002 74.0809 3.68616 74.4367 3.57942C74.6147 3.52961 74.7926 3.4798 74.9776 3.42998C75.2338 3.35882 75.4899 3.29478 75.7461 3.23073C75.9382 3.18092 76.1304 3.14534 76.3225 3.10264C76.5787 3.04571 76.8349 2.9959 77.0911 2.94608C77.2903 2.9105 77.4967 2.87492 77.6959 2.83934C77.9308 2.80376 78.1727 2.76818 78.4075 2.7326C78.6139 2.70414 78.8274 2.67567 79.0337 2.65432C79.2757 2.62586 79.5176 2.60451 79.7596 2.58316C79.9517 2.56893 80.1439 2.5547 80.336 2.54046C80.8982 2.50488 81.4674 2.48353 82.0367 2.48353C82.4139 2.48353 82.791 2.49777 83.1682 2.512C83.4671 2.52623 83.766 2.54758 84.0648 2.56893C84.2214 2.56893 84.3993 2.57604 84.5772 2.59739Z" fill="#888888"/>
<path d="M82.0225 1.75806C96.5322 1.75806 108.302 13.3431 108.302 27.6324C108.302 39.5092 100.176 49.5074 89.103 52.5531L82.0225 59.6123L74.8993 52.5958C63.8693 49.5074 55.7427 39.5092 55.7427 27.6324C55.7499 13.3431 67.5128 1.75806 82.0225 1.75806Z" fill="url(#paint4_linear)"/>
<path d="M82.0225 50.6525C94.76 50.6525 105.086 40.3266 105.086 27.5891C105.086 14.8515 94.76 4.52563 82.0225 4.52563C69.285 4.52563 58.9592 14.8515 58.9592 27.5891C58.9592 40.3266 69.285 50.6525 82.0225 50.6525Z" fill="url(#paint5_linear)"/>
<path d="M91.0363 19.2959H89.4284C89.2373 19.2959 89.0825 19.4508 89.0825 19.6419C89.0825 19.833 89.2373 19.9878 89.4284 19.9878H91.0362C91.3592 19.9878 91.622 20.2508 91.622 20.574V32.2222C91.622 32.5452 91.3592 32.8079 91.0362 32.8079H73.3313C73.0083 32.8079 72.7455 32.5452 72.7455 32.2222V20.574C72.7455 20.2508 73.0083 19.9878 73.3313 19.9878H78.3915C78.4437 20.2656 78.5246 20.5334 78.6326 20.7871H74.263C73.8667 20.7871 73.5444 21.1095 73.5444 21.5057V31.29C73.5444 31.6865 73.8667 32.0091 74.263 32.0091H75.4143C75.6054 32.0091 75.7602 31.8543 75.7602 31.6632C75.7602 31.4721 75.6054 31.3173 75.4143 31.3173H74.263C74.2483 31.3173 74.2363 31.305 74.2363 31.29V21.5057C74.2363 21.491 74.2483 21.479 74.263 21.479H79.0156C79.718 22.4915 80.888 23.1563 82.2108 23.1563C83.5336 23.1563 84.7036 22.4915 85.406 21.479H90.1046C90.1193 21.479 90.1313 21.491 90.1313 21.5057V31.29C90.1313 31.305 90.1193 31.3173 90.1046 31.3173H77.0286C76.8375 31.3173 76.6827 31.4721 76.6827 31.6632C76.6827 31.8543 76.8375 32.0091 77.0286 32.0091H90.1046C90.5009 32.0091 90.8232 31.6865 90.8232 31.29V21.5057C90.8232 21.1095 90.5009 20.7871 90.1046 20.7871H85.789C85.897 20.5334 85.9779 20.2656 86.0301 19.9878H87.8141C88.0052 19.9878 88.1601 19.833 88.1601 19.6419C88.1601 19.4508 88.0052 19.2959 87.8141 19.2959H86.0971C86.0971 19.287 86.0978 19.2782 86.0978 19.2693C86.0977 17.126 84.3541 15.3823 82.2108 15.3823C80.0675 15.3823 78.3239 17.126 78.3239 19.2693C78.3239 19.2782 78.3245 19.287 78.3246 19.2959H73.3313C72.6268 19.2959 72.0536 19.8693 72.0536 20.574V32.2222C72.0536 32.9267 72.6268 33.4998 73.3313 33.4998H79.4657L79.0802 36.8147H77.8975C77.501 36.8147 77.1784 37.1373 77.1784 37.5338V38.2792C77.1784 38.6754 77.501 38.9978 77.8975 38.9978H86.47C86.8666 38.9978 87.1891 38.6754 87.1891 38.2792V37.5338C87.1891 37.1373 86.8666 36.8147 86.47 36.8147H85.2873L84.9019 33.4998H91.0363C91.7408 33.4998 92.3139 32.9267 92.3139 32.2222V20.574C92.3139 19.8693 91.7408 19.2959 91.0363 19.2959ZM82.2108 16.0742C83.9726 16.0742 85.4059 17.5075 85.4059 19.2693C85.4059 21.0311 83.9726 22.4644 82.2108 22.4644C80.4491 22.4644 79.0158 21.0311 79.0158 19.2693C79.0158 17.5075 80.4491 16.0742 82.2108 16.0742ZM84.5908 36.8147H83.7289C83.5378 36.8147 83.383 36.9696 83.383 37.1607C83.383 37.3517 83.5378 37.5066 83.7289 37.5066H86.47C86.4853 37.5066 86.4973 37.5185 86.4973 37.5338V38.2792C86.4973 38.2939 86.485 38.3059 86.47 38.3059H77.8975C77.8825 38.3059 77.8703 38.2939 77.8703 38.2792V37.5338C77.8703 37.5185 77.8822 37.5066 77.8975 37.5066H82.1146C82.3057 37.5066 82.4605 37.3517 82.4605 37.1607C82.4605 36.9696 82.3057 36.8147 82.1146 36.8147H79.7768L80.1622 33.4998H84.2053L84.5908 36.8147Z" fill="#888888"/>
<path d="M80.6695 18.5813C81.6059 17.9698 82.8158 17.9698 83.7521 18.5813C83.8105 18.6194 83.8761 18.6376 83.941 18.6376C84.0539 18.6376 84.1646 18.5824 84.2309 18.4808C84.3354 18.3208 84.2904 18.1065 84.1304 18.002C82.9643 17.2405 81.4573 17.2406 80.2913 18.002C80.1313 18.1065 80.0864 18.3208 80.1908 18.4808C80.2953 18.6408 80.5097 18.6857 80.6695 18.5813Z" fill="#888888"/>
<path d="M83.5326 19.4131C82.7791 18.7631 81.6425 18.763 80.889 19.4131C80.7443 19.5379 80.7282 19.7563 80.8531 19.9009C80.9778 20.0456 81.1963 20.0617 81.3409 19.9369C81.837 19.5091 82.5849 19.5092 83.0808 19.9369C83.1461 19.9933 83.2265 20.0209 83.3066 20.0209C83.4037 20.0209 83.5002 19.9802 83.5687 19.9009C83.6934 19.7563 83.6773 19.5379 83.5326 19.4131Z" fill="#888888"/>
<path d="M82.2108 21.4579C82.4939 21.4579 82.7234 21.2285 82.7234 20.9454C82.7234 20.6623 82.4939 20.4329 82.2108 20.4329C81.9278 20.4329 81.6983 20.6623 81.6983 20.9454C81.6983 21.2285 81.9278 21.4579 82.2108 21.4579Z" fill="#888888"/>
<path d="M76.5627 29.0805C76.3716 29.0805 76.2167 29.2353 76.2167 29.4264C76.2167 29.6174 76.3716 29.7723 76.5627 29.7723H76.6827V30.1719C76.6827 30.363 76.8375 30.5178 77.0286 30.5178C77.2197 30.5178 77.3745 30.363 77.3745 30.1719V29.7724H77.4945C77.6856 29.7724 77.8405 29.6175 77.8405 29.4264C77.8405 29.2354 77.6856 29.0805 77.4945 29.0805H77.3745V25.7463H78.1105V28.0095C78.1105 28.4571 78.4747 28.8214 78.9224 28.8214H80.2102C80.2287 28.8214 80.2472 28.8258 80.2638 28.8341L81.8208 29.6125C81.9344 29.6694 82.0592 29.6978 82.1838 29.6978C82.3085 29.6978 82.4332 29.6694 82.5469 29.6125L84.104 28.834C84.1205 28.8257 84.139 28.8214 84.1575 28.8214H85.4453C85.893 28.8214 86.2572 28.4572 86.2572 28.0095V25.7463H87.5886C87.9849 25.7463 88.3072 25.4239 88.3072 25.0276V24.2821C88.3072 23.8858 87.9849 23.5635 87.5886 23.5635H76.7791C76.3828 23.5635 76.0604 23.8858 76.0604 24.2821V25.0276C76.0604 25.3911 76.3319 25.6917 76.6826 25.739V29.0805H76.5627ZM85.5653 28.0095C85.5653 28.0757 85.5114 28.1296 85.4452 28.1296H84.1574C84.0319 28.1296 83.9064 28.1593 83.7943 28.2153L82.2374 28.9938C82.2038 29.0105 82.1637 29.0105 82.1301 28.9938L80.5733 28.2154C80.4611 28.1592 80.3356 28.1296 80.2101 28.1296H78.9223C78.8561 28.1296 78.8022 28.0757 78.8022 28.0095V25.7463H85.5652V28.0095H85.5653ZM76.7523 24.2821C76.7523 24.2674 76.7643 24.2553 76.7791 24.2553H87.5885C87.6032 24.2553 87.6153 24.2674 87.6153 24.2821V25.0276C87.6153 25.0424 87.6032 25.0544 87.5885 25.0544H76.7791C76.7643 25.0544 76.7523 25.0424 76.7523 25.0276V24.2821Z" fill="#888888"/>
<defs>
<radialGradient id="paint0_radial" cx="0" cy="0" r="1" gradientUnits="userSpaceOnUse" gradientTransform="translate(84.11 71.9009) rotate(90) scale(26.9351 79.5222)">
<stop stop-color="#4D8903"/>
<stop offset="0.0001" stop-opacity="0.78"/>
<stop offset="1" stop-color="white" stop-opacity="0"/>
</radialGradient>
<linearGradient id="paint1_linear" x1="32.8432" y1="52.7948" x2="135.336" y2="62.3898" gradientUnits="userSpaceOnUse">
<stop stop-color="#DEDEDE"/>
<stop offset="1" stop-color="#888888"/>
</linearGradient>
<linearGradient id="paint2_linear" x1="32.1814" y1="62.5668" x2="132.767" y2="62.5668" gradientUnits="userSpaceOnUse">
<stop offset="0.00744902" stop-color="#E7E7E7" stop-opacity="0"/>
<stop offset="0.4302" stop-color="white"/>
<stop offset="0.5508" stop-color="#F5F5F5" stop-opacity="0.7883"/>
<stop offset="0.7594" stop-color="#EAEAEA" stop-opacity="0.4223"/>
<stop offset="1" stop-color="#E7E7E7" stop-opacity="0"/>
</linearGradient>
<linearGradient id="paint3_linear" x1="87.2421" y1="61.4664" x2="99.2401" y2="46.5088" gradientUnits="userSpaceOnUse">
<stop stop-color="#939393"/>
<stop offset="0.3296" stop-color="#969696" stop-opacity="0.6629"/>
<stop offset="0.5748" stop-color="#989898" stop-opacity="0.4122"/>
<stop offset="0.792" stop-color="#989898" stop-opacity="0.19"/>
<stop offset="0.9778" stop-color="#C8C8C8" stop-opacity="0"/>
</linearGradient>
<linearGradient id="paint4_linear" x1="55.7468" y1="30.6851" x2="108.302" y2="30.6851" gradientUnits="userSpaceOnUse">
<stop stop-color="#EEEFEF"/>
<stop offset="1" stop-color="white"/>
</linearGradient>
<linearGradient id="paint5_linear" x1="81.1047" y1="121.426" x2="82.3772" y2="-8.36662" gradientUnits="userSpaceOnUse">
<stop offset="0.5089" stop-color="#CFD0D2"/>
<stop offset="0.7253" stop-color="#F8F8F8"/>
</linearGradient>
</defs>
</svg>
