<svg width="16" height="18" viewBox="0 0 16 18" fill="none" xmlns="http://www.w3.org/2000/svg">
<path d="M8 0C12.4112 0 16 3.5485 16 7.91016C16 8.39352 16 12.1327 16 12.1992C16 13.0716 15.2822 13.7812 14.4 13.7812H13.7749C13.5548 14.395 12.962 14.8359 12.2667 14.8359C11.3844 14.8359 10.6667 14.1262 10.6667 13.2539V8.96484C10.6667 8.09251 11.3844 7.38281 12.2667 7.38281C12.962 7.38281 13.5548 7.82374 13.7749 8.4375H14.4C14.587 8.4375 14.7664 8.46967 14.9333 8.5282V7.91016C14.9333 4.13005 11.823 1.05469 8 1.05469C4.17696 1.05469 1.06667 4.13005 1.06667 7.91016V8.5282C1.2336 8.46967 1.41301 8.4375 1.6 8.4375H2.22507C2.44523 7.82374 3.03804 7.38281 3.73333 7.38281C4.61557 7.38281 5.33333 8.09251 5.33333 8.96484V13.2539C5.33333 14.1262 4.61557 14.8359 3.73333 14.8359C3.57188 14.8359 3.416 14.812 3.26894 14.7678C3.46844 15.4168 4.07922 15.8906 4.8 15.8906H6.49173C6.71189 15.2769 7.30471 14.8359 8 14.8359C8.88224 14.8359 9.6 15.5456 9.6 16.418C9.6 17.2903 8.88224 18 8 18C7.30471 18 6.71189 17.5591 6.49173 16.9453H4.8C3.3296 16.9453 2.13333 15.7625 2.13333 14.3086V13.7812H1.6C0.71776 13.7812 0 13.0716 0 12.1992C0 12.1337 0 8.39313 0 7.91016C0 3.5485 3.5888 0 8 0ZM12.8 8.96484C12.8 8.67407 12.5607 8.4375 12.2667 8.4375C11.9726 8.4375 11.7333 8.67407 11.7333 8.96484V13.2539C11.7333 13.5447 11.9726 13.7812 12.2667 13.7812C12.5607 13.7812 12.8 13.5447 12.8 13.2539V8.96484ZM14.4 9.49219H13.8667V12.7266H14.4C14.6941 12.7266 14.9333 12.49 14.9333 12.1992V10.0195C14.9333 9.72875 14.6941 9.49219 14.4 9.49219ZM8 16.9453C8.29408 16.9453 8.53333 16.7087 8.53333 16.418C8.53333 16.1272 8.29408 15.8906 8 15.8906C7.70592 15.8906 7.46667 16.1272 7.46667 16.418C7.46667 16.7087 7.70592 16.9453 8 16.9453ZM3.2 13.2539C3.2 13.5447 3.43925 13.7812 3.73333 13.7812C4.02741 13.7812 4.26667 13.5447 4.26667 13.2539V8.96484C4.26667 8.67407 4.02741 8.4375 3.73333 8.4375C3.43925 8.4375 3.2 8.67407 3.2 8.96484V13.2539ZM1.06667 12.1992C1.06667 12.49 1.30592 12.7266 1.6 12.7266H2.13333V9.49219H1.6C1.30592 9.49219 1.06667 9.72875 1.06667 10.0195V12.1992Z" fill="white"/>
</svg>
