<svg width="169" height="101" viewBox="0 0 169 101" fill="none" xmlns="http://www.w3.org/2000/svg">
<ellipse cx="84.11" cy="71.9009" rx="84.11" ry="28.4891" fill="url(#paint0_radial)"/>
<path d="M134.87 52.4459C134.863 52.6451 134.849 52.8515 134.827 53.0508C134.827 53.0792 134.82 53.1148 134.82 53.1433C134.792 53.371 134.756 53.5916 134.706 53.8193C134.692 53.8762 134.685 53.9332 134.671 53.9901C134.628 54.168 134.585 54.3388 134.536 54.5167C134.521 54.5594 134.514 54.6092 134.5 54.6519C134.436 54.8654 134.365 55.0717 134.28 55.2852C134.258 55.335 134.237 55.3849 134.223 55.4347C134.159 55.5983 134.087 55.762 134.009 55.9257C133.981 55.9826 133.959 56.0395 133.931 56.0965C133.831 56.3028 133.724 56.5092 133.611 56.7085C133.603 56.7156 133.596 56.7298 133.596 56.7369C133.483 56.9291 133.362 57.1283 133.241 57.3205C133.205 57.3774 133.162 57.4343 133.127 57.4912C133.013 57.6549 132.899 57.8186 132.778 57.9823C132.75 58.0249 132.721 58.0605 132.693 58.1032C132.543 58.3025 132.38 58.5017 132.216 58.701C132.173 58.7508 132.13 58.7935 132.095 58.8433C131.953 59.007 131.81 59.1635 131.661 59.3272C131.618 59.377 131.575 59.4197 131.526 59.4695C131.333 59.6688 131.134 59.8751 130.921 60.0744C130.878 60.1171 130.835 60.1527 130.793 60.1954C130.608 60.3662 130.423 60.5369 130.223 60.7077C130.174 60.7504 130.131 60.7931 130.081 60.8287C129.839 61.0351 129.583 61.2414 129.32 61.4478C129.263 61.4905 129.213 61.5332 129.156 61.5759C128.885 61.7823 128.608 61.9886 128.323 62.195L128.316 62.2021C128.295 62.2164 128.281 62.2306 128.259 62.2377C128.089 62.3587 127.911 62.4797 127.733 62.6006C127.662 62.6433 127.597 62.6931 127.526 62.7358C127.391 62.8212 127.263 62.9066 127.128 62.9991C127.042 63.0489 126.964 63.1059 126.879 63.1557C126.751 63.234 126.63 63.3122 126.502 63.3905C126.409 63.4475 126.324 63.4973 126.231 63.5542C126.11 63.6254 125.989 63.6965 125.868 63.7677C125.733 63.846 125.591 63.9242 125.448 64.0025C125.342 64.0594 125.242 64.1164 125.135 64.1733C124.986 64.2516 124.836 64.337 124.68 64.4152C124.58 64.4722 124.481 64.522 124.374 64.5789C124.21 64.6643 124.039 64.7497 123.869 64.8351C123.776 64.8778 123.691 64.9276 123.598 64.9703C123.363 65.0842 123.129 65.198 122.894 65.3119C122.858 65.3261 122.83 65.3403 122.794 65.3617C122.424 65.5396 122.04 65.7104 121.656 65.8741C121.57 65.9096 121.492 65.9452 121.406 65.9808C121.029 66.1445 120.638 66.3081 120.247 66.4647C120.183 66.4932 120.118 66.5145 120.047 66.543C119.684 66.6924 119.314 66.8347 118.937 66.9771C118.873 67.0055 118.802 67.0269 118.738 67.0553C118.325 67.2048 117.912 67.3542 117.486 67.5037C117.4 67.5321 117.308 67.5606 117.222 67.5962C116.76 67.7527 116.29 67.9093 115.806 68.0658C115.756 68.0801 115.699 68.1014 115.65 68.1156C115.18 68.2651 114.696 68.4074 114.212 68.5497C114.162 68.564 114.112 68.5782 114.063 68.5924C113.565 68.7347 113.059 68.8771 112.554 69.0123C112.462 69.0336 112.369 69.0621 112.277 69.0834C111.771 69.2186 111.266 69.3467 110.754 69.4677C110.661 69.4891 110.569 69.5104 110.476 69.5318C109.942 69.6598 109.409 69.7879 108.861 69.9018C108.825 69.9089 108.783 69.916 108.747 69.9231C108.213 70.037 107.665 70.1509 107.117 70.2647C107.046 70.2789 106.975 70.2932 106.904 70.3074C106.356 70.4142 105.801 70.5209 105.239 70.6205C105.132 70.6419 105.032 70.6561 104.926 70.6775C104.371 70.7771 103.808 70.8696 103.239 70.9621C103.132 70.9763 103.026 70.9977 102.919 71.0119C102.506 71.076 102.086 71.14 101.659 71.1969C101.553 71.2112 101.446 71.2254 101.339 71.2396C100.841 71.3108 100.336 71.3748 99.8305 71.4389C99.7237 71.4531 99.617 71.4673 99.5031 71.4816C99.0762 71.5314 98.6421 71.5812 98.208 71.631C98.0942 71.6453 97.9732 71.6595 97.8593 71.6666C97.347 71.7235 96.8275 71.7733 96.308 71.8232C96.2297 71.8303 96.1515 71.8374 96.0732 71.8445C95.3473 71.9085 94.6215 71.9726 93.8885 72.0224C93.8245 72.0295 93.7533 72.0295 93.6893 72.0366C92.9492 72.0865 92.202 72.1363 91.4477 72.1718C91.3766 72.179 91.3054 72.179 91.2271 72.179C90.6436 72.2074 90.0672 72.2288 89.4766 72.2501C89.3912 72.2501 89.3058 72.2572 89.2133 72.2572C88.6013 72.2786 87.9822 72.2928 87.3702 72.2999C87.235 72.2999 87.1069 72.3071 86.9717 72.3071C86.4024 72.3142 85.826 72.3213 85.2496 72.3213C84.6661 72.3213 84.0897 72.3142 83.5062 72.3071C83.3638 72.3071 83.2215 72.2999 83.0792 72.2999C82.5597 72.2928 82.0402 72.2786 81.5208 72.2644C81.4994 72.2644 81.471 72.2644 81.4496 72.2644C80.9088 72.2501 80.3751 72.2288 79.8414 72.2003C79.699 72.1932 79.5567 72.1861 79.4144 72.179C78.9946 72.1576 78.5676 72.1363 78.1477 72.1149C78.041 72.1078 77.9343 72.1007 77.8275 72.0936C77.3152 72.0651 76.8099 72.0295 76.2976 71.9868C76.1766 71.9797 76.0556 71.9655 75.9346 71.9584C75.5361 71.9299 75.1376 71.8943 74.7391 71.8587C74.5968 71.8445 74.4616 71.8374 74.3193 71.8232C73.8212 71.7805 73.323 71.7306 72.832 71.6808C72.8249 71.6808 72.8107 71.6808 72.8035 71.6808C72.3125 71.631 71.8286 71.5741 71.3519 71.5172C71.2167 71.5029 71.0815 71.4816 70.9391 71.4673C70.5406 71.4175 70.1421 71.3677 69.7436 71.3179C69.644 71.3037 69.5515 71.2894 69.4519 71.2823C68.9609 71.2183 68.4698 71.1471 67.9788 71.0688C67.865 71.0546 67.7511 71.0333 67.6373 71.019C67.2316 70.955 66.8331 70.8909 66.4346 70.8269C66.3279 70.8055 66.2212 70.7913 66.1144 70.7771C65.6163 70.6917 65.1182 70.6063 64.6272 70.5138C64.5204 70.4924 64.4208 70.4711 64.314 70.4569C63.8728 70.3715 63.4388 70.2861 63.0118 70.2007C62.9335 70.1864 62.8552 70.1722 62.7841 70.1509C62.2575 70.0441 61.738 69.9303 61.2257 69.8164C61.1189 69.7951 61.0193 69.7666 60.9126 69.7452C60.4002 69.6314 59.8949 69.5104 59.3968 69.3823C59.3328 69.3681 59.2687 69.3538 59.2118 69.3325C58.6069 69.1831 58.0163 69.0265 57.4328 68.8628C57.3901 68.8486 57.3474 68.8415 57.3047 68.8273C56.7069 68.6636 56.1163 68.4928 55.5328 68.3149C55.483 68.3007 55.426 68.2793 55.3762 68.2651C55.0702 68.1726 54.7714 68.0801 54.4725 67.9804C54.3586 67.9449 54.2377 67.9022 54.1238 67.8666C53.889 67.7883 53.6541 67.71 53.4264 67.6317C53.2983 67.589 53.1774 67.5463 53.0564 67.5037C52.8287 67.4254 52.6009 67.34 52.3732 67.2617C52.2594 67.219 52.1455 67.1834 52.0388 67.1407C51.7612 67.0411 51.4908 66.9344 51.2204 66.8347C51.1635 66.8134 51.1066 66.792 51.0496 66.7707C50.8504 66.6924 50.6511 66.6141 50.4519 66.5359C50.3594 66.5003 50.2669 66.4647 50.1815 66.4291C49.8968 66.3153 49.6122 66.1943 49.3347 66.0804C49.2848 66.0591 49.2279 66.0377 49.1781 66.0093C48.9504 65.9096 48.7298 65.8171 48.5092 65.7175C48.4096 65.6748 48.3099 65.625 48.2174 65.5823C48.0466 65.504 47.8759 65.4257 47.7051 65.3475C47.5983 65.2976 47.4916 65.2478 47.3848 65.1909C47.2283 65.1197 47.0789 65.0415 46.9223 64.9703C46.8084 64.9134 46.7017 64.8564 46.595 64.8066C46.4526 64.7355 46.3103 64.6643 46.168 64.586C46.0541 64.5291 45.9474 64.4722 45.8407 64.4152C45.7055 64.3441 45.5702 64.2729 45.435 64.1946C45.3283 64.1377 45.2144 64.0737 45.1077 64.0096C44.9796 63.9385 44.8515 63.8673 44.7234 63.789C44.6167 63.725 44.5099 63.6609 44.4032 63.5969C44.2822 63.5257 44.1541 63.4546 44.0332 63.3763C43.9264 63.3122 43.8268 63.2482 43.7201 63.1842C43.5991 63.113 43.4852 63.0347 43.3714 62.9636C43.2717 62.8995 43.165 62.8283 43.0654 62.7643C42.9515 62.6931 42.8377 62.6149 42.7309 62.5437C42.6313 62.4797 42.5388 62.4085 42.4392 62.3444C42.3324 62.2662 42.2186 62.195 42.1118 62.1167C42.0051 62.0456 41.9126 61.9815 41.8201 61.9104C41.7133 61.8321 41.6137 61.7538 41.507 61.6826C41.4144 61.6115 41.3291 61.5474 41.2365 61.4763C41.1369 61.398 41.0373 61.3197 40.9448 61.2414C40.8594 61.1703 40.774 61.0991 40.6886 61.028C40.5961 60.9497 40.5036 60.8714 40.4111 60.7931C40.3257 60.722 40.2474 60.6508 40.162 60.5796C40.0695 60.5014 39.9841 60.4231 39.8987 60.3448C39.8204 60.2737 39.7422 60.2025 39.6639 60.1242C39.5785 60.0459 39.4931 59.9605 39.4148 59.8823C39.3365 59.8111 39.2654 59.7328 39.1942 59.6617C39.1159 59.5834 39.0377 59.498 38.9594 59.4197C38.8882 59.3485 38.8171 59.2703 38.753 59.1991C38.6676 59.1066 38.5894 59.0283 38.5182 58.9429C38.4541 58.8647 38.3901 58.7935 38.3261 58.7152C38.2549 58.6298 38.1837 58.5515 38.1197 58.4662C38.0556 58.3879 37.9987 58.3167 37.9347 58.2384C37.8706 58.153 37.8066 58.0748 37.7425 57.9894C37.6856 57.9111 37.6287 57.8399 37.5718 57.7616C37.5077 57.6763 37.4508 57.5909 37.3939 57.5055C37.344 57.4272 37.2871 57.3489 37.2373 57.2778C37.1804 57.1924 37.1306 57.107 37.0736 57.0145C37.0238 56.9362 36.9811 56.8579 36.9313 56.7796C36.8815 56.6942 36.8317 56.6017 36.7819 56.5163C36.7392 56.438 36.6965 56.3598 36.6538 56.2815C36.6111 56.189 36.5684 56.1036 36.5257 56.0111C36.4901 55.9328 36.4474 55.8545 36.4189 55.7762C36.3762 55.6837 36.3407 55.5912 36.3051 55.5058C36.2695 55.4276 36.241 55.3493 36.2126 55.271C36.177 55.1785 36.1485 55.086 36.113 54.9935C36.0845 54.9152 36.056 54.8369 36.0347 54.7586C36.0062 54.6661 35.9777 54.5665 35.9493 54.474C35.9279 54.3957 35.9066 54.3246 35.8852 54.2463C35.8568 54.1467 35.8425 54.047 35.8212 53.9474C35.807 53.8762 35.7856 53.798 35.7714 53.7268C35.75 53.6201 35.7358 53.5204 35.7216 53.4137C35.7073 53.3425 35.7002 53.2714 35.686 53.2073C35.6789 53.0792 35.6718 52.9654 35.6575 52.8515C35.6504 52.7946 35.6433 52.7305 35.6433 52.6736C35.6291 52.4957 35.6291 52.3178 35.6291 52.147V64.6145C35.6291 64.7924 35.6362 64.9703 35.6433 65.1411C35.6504 65.198 35.6575 65.2621 35.6575 65.319C35.6646 65.4329 35.6789 65.5538 35.6931 65.6677C35.7002 65.7388 35.7145 65.81 35.7287 65.8741C35.7429 65.9808 35.7571 66.0804 35.7785 66.1872C35.7927 66.2583 35.8141 66.3366 35.8283 66.4078C35.8497 66.5074 35.871 66.607 35.8924 66.7066C35.9137 66.7849 35.9351 66.8561 35.9564 66.9344C35.9849 67.0269 36.0062 67.1265 36.0418 67.219C36.0631 67.2973 36.0916 67.3756 36.1201 67.4538C36.1556 67.5463 36.1841 67.6389 36.2197 67.7314C36.2482 67.8096 36.2837 67.8879 36.3122 67.9662C36.3478 68.0587 36.3834 68.1512 36.4261 68.2366C36.4616 68.3149 36.4972 68.3932 36.5328 68.4714C36.5755 68.564 36.6182 68.6493 36.6609 68.7419C36.7036 68.8201 36.7463 68.8984 36.789 68.9767C36.8388 69.0621 36.8815 69.1546 36.9384 69.24C36.9811 69.3183 37.0309 69.3965 37.0807 69.4748C37.1306 69.5602 37.1875 69.6527 37.2444 69.7381C37.2942 69.8164 37.344 69.8947 37.401 69.9658C37.4579 70.0512 37.5148 70.1366 37.5789 70.222C37.6358 70.3003 37.6927 70.3786 37.7497 70.4497C37.8137 70.5351 37.8777 70.6205 37.9418 70.7059C37.9987 70.7842 38.0628 70.8554 38.1268 70.9336C38.198 71.019 38.262 71.1044 38.3332 71.1827C38.3972 71.261 38.4613 71.3321 38.5253 71.4104C38.5965 71.4958 38.6747 71.5741 38.7459 71.6595C38.8171 71.7306 38.8811 71.8089 38.9523 71.8801C39.0306 71.9584 39.1088 72.0438 39.1871 72.122C39.2583 72.1932 39.3365 72.2715 39.4077 72.3426C39.4931 72.4209 39.5714 72.5063 39.6568 72.5846C39.735 72.6557 39.8133 72.7269 39.8916 72.8052C39.977 72.8835 40.0695 72.9617 40.1549 73.04C40.2332 73.1112 40.3186 73.1823 40.404 73.2535C40.4965 73.3318 40.589 73.41 40.6815 73.4883C40.7669 73.5595 40.8523 73.6307 40.9377 73.7018C41.0373 73.7801 41.1298 73.8584 41.2294 73.9366C41.3219 74.0078 41.4073 74.079 41.4998 74.143C41.5995 74.2213 41.7062 74.2996 41.8129 74.3707C41.9055 74.4419 41.998 74.5059 42.0905 74.5771C42.1972 74.6554 42.304 74.7265 42.4178 74.8048C42.5174 74.8689 42.61 74.94 42.7096 75.0041C42.8234 75.0823 42.9302 75.1535 43.044 75.2247C43.1437 75.2887 43.2433 75.3599 43.35 75.4239C43.4639 75.4951 43.5849 75.5734 43.6987 75.6445C43.8055 75.7086 43.9051 75.7726 44.0118 75.8367C44.1328 75.9078 44.2538 75.979 44.3819 76.0573C44.4886 76.1213 44.5953 76.1854 44.7021 76.2494C44.8302 76.3206 44.9583 76.3917 45.0864 76.47C45.1931 76.534 45.2998 76.591 45.4137 76.655C45.5489 76.7262 45.6841 76.7973 45.8193 76.8756C45.9261 76.9325 46.0399 76.9895 46.1467 77.0464C46.289 77.1176 46.4313 77.1887 46.5736 77.267C46.6804 77.3239 46.7942 77.3809 46.901 77.4307C47.0504 77.5089 47.2069 77.5801 47.3635 77.6513C47.4702 77.7011 47.577 77.758 47.6837 77.8078C47.8545 77.8861 48.0253 77.9644 48.1961 78.0427C48.2957 78.0854 48.3882 78.1352 48.4878 78.1779C48.7084 78.2775 48.929 78.37 49.1568 78.4696C49.2066 78.491 49.2635 78.5123 49.3133 78.5408C49.5908 78.6618 49.8755 78.7756 50.1601 78.8895C50.2526 78.9251 50.338 78.9606 50.4305 78.9962C50.6298 79.0745 50.829 79.1528 51.0283 79.2311C51.0354 79.2311 51.0425 79.2382 51.0496 79.2382C51.0995 79.2595 51.1421 79.2738 51.192 79.2951C51.4624 79.4018 51.7328 79.5015 52.0103 79.6011C52.1242 79.6438 52.238 79.6794 52.3448 79.7221C52.5725 79.8004 52.8002 79.8857 53.0279 79.964C53.1489 80.0067 53.277 80.0494 53.398 80.0921C53.6328 80.1704 53.8605 80.2487 54.0953 80.3269C54.2092 80.3625 54.3302 80.4052 54.444 80.4408C54.7429 80.5333 55.0418 80.6329 55.3478 80.7255C55.3976 80.7397 55.4403 80.7539 55.4901 80.7681C55.4972 80.7681 55.5043 80.7681 55.5043 80.7753C56.0878 80.9532 56.6785 81.124 57.2762 81.2876C57.3189 81.3019 57.3616 81.309 57.4043 81.3232C57.9878 81.4869 58.5856 81.6434 59.1833 81.7929C59.226 81.8 59.2616 81.8142 59.3043 81.8213C59.3257 81.8285 59.3541 81.8356 59.3755 81.8356C59.8736 81.9565 60.3788 82.0775 60.8912 82.1985C60.9979 82.2198 61.0976 82.2483 61.2043 82.2697C61.7167 82.3835 62.2361 82.4974 62.7627 82.6041C62.7841 82.6112 62.8054 82.6112 62.8268 82.6183C62.8837 82.6326 62.9406 82.6397 62.9976 82.6539C63.4317 82.7393 63.8657 82.8247 64.2998 82.9101C64.4066 82.9315 64.5062 82.9528 64.6129 82.967C65.1039 83.0595 65.6021 83.1449 66.1002 83.2303C66.1358 83.2374 66.1713 83.2446 66.1998 83.2517C66.271 83.2659 66.3492 83.273 66.4204 83.2873C66.8189 83.3513 67.2245 83.4153 67.623 83.4794C67.7369 83.4936 67.8507 83.515 67.9646 83.5292C68.4556 83.6004 68.9395 83.6715 69.4376 83.7427C69.4661 83.7427 69.4874 83.7498 69.5159 83.7569C69.5871 83.764 69.6582 83.7783 69.7294 83.7854C70.1279 83.8352 70.5264 83.8921 70.9249 83.9348C71.0601 83.9491 71.1953 83.9704 71.3376 83.9846C71.8215 84.0416 72.3054 84.0985 72.7893 84.1483C72.7964 84.1483 72.8107 84.1483 72.8178 84.1483C72.8178 84.1483 72.8178 84.1483 72.8249 84.1483C73.3159 84.1981 73.814 84.2479 74.3122 84.2906C74.4545 84.3049 74.5897 84.312 74.732 84.3262C75.1305 84.3618 75.529 84.3903 75.9275 84.4258C76.0129 84.433 76.0912 84.4401 76.1766 84.4472C76.2122 84.4472 76.2477 84.4543 76.2833 84.4543C76.7886 84.4899 77.3009 84.5255 77.8133 84.5611C77.92 84.5682 78.0268 84.5753 78.1335 84.5824C78.5534 84.6037 78.9732 84.6322 79.4002 84.6464C79.4784 84.6536 79.5638 84.6536 79.6421 84.6607C79.7062 84.6607 79.7702 84.6678 79.8271 84.6678C80.3608 84.6891 80.9017 84.7105 81.4354 84.7318C81.4567 84.7318 81.4852 84.7318 81.5065 84.7318C82.026 84.7461 82.5455 84.7603 83.065 84.7674C83.1361 84.7674 83.2073 84.7745 83.2784 84.7745C83.3496 84.7745 83.4208 84.7745 83.4919 84.7745C84.0683 84.7817 84.6518 84.7888 85.2354 84.7888C85.8118 84.7888 86.3882 84.7817 86.9575 84.7745C87.0286 84.7745 87.0998 84.7745 87.1709 84.7745C87.235 84.7745 87.2919 84.7745 87.356 84.7674C87.9751 84.7603 88.587 84.739 89.199 84.7247C89.2844 84.7247 89.3698 84.7176 89.4623 84.7176C90.0458 84.6963 90.6294 84.6749 91.2129 84.6464C91.2627 84.6464 91.3196 84.6393 91.3766 84.6393C91.3979 84.6393 91.4121 84.6393 91.4335 84.6393C92.1878 84.6037 92.935 84.5539 93.6751 84.5041C93.7391 84.497 93.8103 84.497 93.8743 84.4899C94.6073 84.4401 95.3402 84.376 96.0589 84.312C96.1088 84.3049 96.1515 84.3049 96.2013 84.2978C96.2297 84.2978 96.2653 84.2906 96.2938 84.2906C96.8133 84.2408 97.3327 84.191 97.8451 84.1341C97.959 84.1199 98.0799 84.1056 98.1938 84.0985C98.6279 84.0487 99.0619 83.9989 99.4889 83.9491C99.5956 83.9348 99.7024 83.9206 99.8162 83.9064C100.321 83.8423 100.827 83.7783 101.325 83.7071C101.432 83.6929 101.538 83.6786 101.645 83.6644C102.065 83.6075 102.485 83.5434 102.905 83.4794C102.976 83.4652 103.047 83.458 103.118 83.4438C103.154 83.4367 103.189 83.4296 103.218 83.4296C103.787 83.3371 104.349 83.2446 104.904 83.1449C105.011 83.1236 105.111 83.1094 105.217 83.088C105.78 82.9884 106.335 82.8816 106.883 82.7749C106.954 82.7607 107.025 82.7464 107.096 82.7322C107.644 82.6255 108.185 82.5116 108.726 82.3906C108.761 82.3835 108.804 82.3764 108.839 82.3693C109.387 82.2483 109.921 82.1273 110.455 81.9992C110.547 81.9779 110.64 81.9565 110.732 81.9352C111.245 81.8071 111.757 81.679 112.255 81.5509C112.348 81.5296 112.44 81.5011 112.533 81.4798C113.045 81.3446 113.55 81.2022 114.041 81.0599C114.091 81.0457 114.141 81.0314 114.191 81.0172C114.675 80.8749 115.159 80.7254 115.628 80.5831C115.678 80.5689 115.735 80.5475 115.785 80.5333C116.262 80.3839 116.731 80.2273 117.201 80.0636C117.251 80.0494 117.3 80.0352 117.343 80.0138C117.386 79.9996 117.421 79.9854 117.464 79.9711C117.884 79.8217 118.304 79.6723 118.717 79.5228C118.781 79.4944 118.852 79.473 118.916 79.4445C119.293 79.3022 119.663 79.1599 120.026 79.0105C120.09 78.982 120.154 78.9606 120.225 78.9322C120.617 78.7756 121.008 78.612 121.385 78.4483C121.471 78.4127 121.549 78.3771 121.634 78.3415C122.018 78.1707 122.403 78 122.773 77.8292C122.773 77.8292 122.773 77.8292 122.78 77.8292C122.808 77.8149 122.844 77.8007 122.872 77.7865C123.107 77.6726 123.349 77.5588 123.577 77.4449C123.669 77.4022 123.762 77.3524 123.847 77.3097C124.018 77.2243 124.189 77.1389 124.353 77.0535C124.452 77.0037 124.552 76.9468 124.659 76.8898C124.808 76.8116 124.965 76.7262 125.114 76.6479C125.221 76.591 125.32 76.534 125.427 76.4771C125.569 76.3988 125.712 76.3206 125.847 76.2423C125.89 76.2209 125.925 76.1996 125.968 76.1711C126.053 76.1213 126.132 76.0715 126.21 76.0288C126.302 75.9719 126.388 75.9221 126.48 75.8651C126.608 75.7868 126.736 75.7086 126.857 75.6303C126.943 75.5805 127.028 75.5235 127.106 75.4737C127.242 75.3883 127.377 75.3029 127.505 75.2104C127.576 75.1677 127.64 75.1179 127.711 75.0752C127.889 74.9543 128.067 74.8333 128.238 74.7123C128.259 74.6981 128.274 74.6838 128.295 74.6767C128.295 74.6767 128.302 74.6767 128.302 74.6696C128.587 74.4632 128.864 74.2569 129.135 74.0505C129.191 74.0078 129.241 73.9651 129.298 73.9224C129.562 73.716 129.811 73.5097 130.06 73.3033C130.074 73.2891 130.095 73.2748 130.109 73.2606C130.145 73.2321 130.174 73.2037 130.202 73.1752C130.394 73.0044 130.586 72.8336 130.771 72.6629C130.814 72.6202 130.857 72.5846 130.899 72.5419C131.106 72.3426 131.312 72.1434 131.504 71.937C131.518 71.9228 131.54 71.9085 131.554 71.8872C131.583 71.8587 131.611 71.8232 131.639 71.7947C131.789 71.6381 131.931 71.4745 132.074 71.3108C132.116 71.261 132.159 71.2183 132.194 71.1685C132.365 70.9692 132.522 70.77 132.671 70.5707C132.678 70.5636 132.686 70.5494 132.7 70.5422C132.721 70.5138 132.742 70.4853 132.764 70.4497C132.885 70.2861 132.999 70.1224 133.112 69.9587C133.148 69.9018 133.191 69.8449 133.226 69.7879C133.354 69.5958 133.475 69.4037 133.582 69.2044C133.589 69.1973 133.589 69.1902 133.596 69.1831C133.596 69.1831 133.596 69.1831 133.596 69.1759C133.71 68.9767 133.817 68.7703 133.917 68.564C133.945 68.507 133.974 68.4501 133.995 68.3932C134.073 68.2295 134.144 68.0658 134.208 67.9022C134.223 67.8666 134.237 67.831 134.251 67.8025C134.258 67.7883 134.258 67.7741 134.265 67.7598C134.344 67.5535 134.422 67.34 134.486 67.1265C134.5 67.0838 134.514 67.034 134.521 66.9913C134.571 66.8205 134.614 66.6426 134.657 66.4647C134.664 66.4291 134.678 66.3935 134.685 66.3651C134.692 66.3437 134.692 66.3153 134.699 66.2939C134.742 66.0733 134.785 65.8456 134.813 65.6179C134.82 65.5894 134.82 65.5538 134.82 65.5254C134.842 65.3261 134.856 65.1197 134.863 64.9205C134.863 64.8849 134.87 64.8564 134.87 64.8209C134.87 64.7497 134.87 64.6785 134.87 64.6145V52.1399C134.877 52.2466 134.877 52.3463 134.87 52.4459Z" fill="#454545"/>
<path d="M85.2497 31.9587C112.661 31.9587 134.877 40.9962 134.877 52.1472C134.877 63.2982 112.661 72.3286 85.2497 72.3286C57.8385 72.3286 35.622 63.2911 35.622 52.1472C35.6292 40.9962 57.8456 31.9587 85.2497 31.9587Z" fill="url(#paint1_linear)"/>
<g opacity="0.5">
<path opacity="0.5" d="M134.877 52.1399C134.877 63.2909 112.661 72.3213 85.2497 72.3213C57.8385 72.3213 35.622 63.2838 35.622 52.1399" stroke="url(#paint2_linear)" stroke-width="1.8706" stroke-miterlimit="10"/>
</g>
<g opacity="0.4">
<path d="M142.278 57.9468C142.385 61.6543 130.885 64.9918 116.61 65.3974C104.741 65.7319 94.6856 63.9386 91.5616 61.1918L84.4527 59.5835L91.4122 57.5625C94.4223 54.652 104.356 52.2966 116.226 51.955C130.508 51.5565 142.171 54.2393 142.278 57.9468Z" fill="url(#paint3_linear)"/>
</g>
<path d="M87.356 2.59739C87.6976 2.63297 88.0391 2.67567 88.3736 2.71837C88.5017 2.7326 88.6227 2.74683 88.7507 2.76818C89.2631 2.84646 89.7612 2.93897 90.2665 3.03859C90.4088 3.06706 90.544 3.10264 90.6863 3.1311C91.0492 3.2165 91.4193 3.30189 91.7751 3.40152C91.9672 3.45133 92.1665 3.50826 92.3586 3.56519C92.5223 3.615 92.6788 3.66481 92.8425 3.71463C93.0773 3.78579 93.305 3.86407 93.5399 3.94946C93.6964 3.99927 93.8459 4.0562 94.0024 4.11313C94.2444 4.20564 94.4863 4.29815 94.7212 4.39066C94.8564 4.44759 94.9916 4.4974 95.1268 4.55433C95.4114 4.67531 95.6889 4.79628 95.9665 4.93149C96.0519 4.97419 96.1444 5.00977 96.2298 5.05246C96.3009 5.08804 96.365 5.12362 96.4361 5.15209C96.8062 5.32999 97.1691 5.52213 97.5249 5.71426C97.6672 5.79254 97.8024 5.87082 97.9376 5.9491C98.2223 6.11277 98.5069 6.27644 98.7844 6.45434C98.9268 6.53974 99.0691 6.63225 99.2114 6.72476C99.4961 6.90978 99.7807 7.10191 100.058 7.29405C100.172 7.37233 100.293 7.45772 100.407 7.536C100.791 7.81353 101.168 8.10529 101.538 8.40417C101.581 8.43975 101.624 8.48245 101.674 8.51803C101.994 8.78844 102.314 9.05885 102.62 9.3435C102.734 9.45024 102.848 9.55698 102.962 9.66373C103.204 9.89144 103.438 10.1192 103.666 10.354C103.78 10.475 103.901 10.5959 104.015 10.7169C104.242 10.9589 104.47 11.2079 104.691 11.4641C104.783 11.5709 104.883 11.6776 104.975 11.7915C105.281 12.1544 105.58 12.5244 105.872 12.9016C106.114 13.2147 106.342 13.542 106.569 13.8694C106.633 13.969 106.698 14.0615 106.762 14.1611C106.918 14.396 107.075 14.6308 107.224 14.8656C107.302 14.9937 107.381 15.1289 107.459 15.257C107.587 15.4705 107.715 15.684 107.829 15.8975C107.907 16.0398 107.986 16.1892 108.064 16.3316C108.163 16.5166 108.263 16.7087 108.356 16.9008C108.548 17.2851 108.733 17.6694 108.904 18.0608C108.932 18.1248 108.968 18.1889 108.996 18.2529C109.195 18.7083 109.373 19.178 109.544 19.6477C109.601 19.8042 109.651 19.9608 109.708 20.1245C109.8 20.3949 109.893 20.6653 109.971 20.9357C110.028 21.1136 110.078 21.2915 110.127 21.4694C110.199 21.7327 110.27 22.0031 110.341 22.2735C110.391 22.4657 110.433 22.6507 110.476 22.8428C110.526 23.0777 110.576 23.3125 110.619 23.5473C110.654 23.7466 110.697 23.9458 110.725 24.1522C110.768 24.3941 110.804 24.6361 110.832 24.878C110.86 25.0844 110.889 25.2837 110.91 25.49C110.939 25.7249 110.96 25.9668 110.981 26.2016C110.996 26.408 111.017 26.6215 111.031 26.8279C111.045 27.0698 111.053 27.3118 111.06 27.5537C111.067 27.8241 111.081 28.1017 111.081 28.3721V25.9028C111.081 25.7818 111.081 25.6537 111.081 25.5327C111.081 25.3833 111.067 25.2339 111.06 25.0844C111.053 24.8425 111.045 24.6005 111.031 24.3586C111.017 24.1522 111.003 23.9387 110.981 23.7323C110.96 23.4975 110.939 23.2556 110.91 23.0207C110.903 22.9425 110.896 22.8713 110.889 22.793C110.875 22.6649 110.846 22.5368 110.832 22.4087C110.796 22.1668 110.761 21.9248 110.725 21.6829C110.69 21.4836 110.654 21.2773 110.619 21.078C110.576 20.8432 110.526 20.6084 110.476 20.3735C110.455 20.281 110.441 20.1814 110.419 20.0889C110.398 19.9964 110.369 19.8967 110.341 19.8042C110.277 19.5338 110.206 19.2705 110.127 19.0001C110.078 18.8222 110.028 18.6443 109.971 18.4664C109.886 18.1889 109.8 17.9185 109.708 17.648C109.665 17.5342 109.636 17.4132 109.594 17.2922C109.58 17.2495 109.558 17.214 109.544 17.1713C109.373 16.7016 109.188 16.239 108.996 15.7765C108.968 15.7124 108.939 15.6484 108.904 15.5844C108.733 15.193 108.548 14.8016 108.356 14.4244C108.327 14.3675 108.306 14.3106 108.277 14.2536C108.206 14.1184 108.135 13.9903 108.064 13.8623C107.986 13.7199 107.907 13.5705 107.829 13.4282C107.708 13.2147 107.58 13.0012 107.459 12.7877C107.381 12.6596 107.302 12.5244 107.224 12.3963C107.075 12.1544 106.918 11.9267 106.762 11.6918C106.698 11.5922 106.633 11.4926 106.569 11.4001C106.349 11.0798 106.121 10.7596 105.879 10.4465C105.879 10.4394 105.872 10.4394 105.872 10.4323C105.587 10.0551 105.289 9.68507 104.975 9.32215C104.883 9.20829 104.783 9.10155 104.691 8.99481C104.47 8.74574 104.242 8.49668 104.015 8.24761C103.901 8.12664 103.78 8.00566 103.666 7.88469C103.438 7.64986 103.204 7.42214 102.962 7.19442C102.848 7.08768 102.734 6.98094 102.62 6.8742C102.307 6.58955 101.994 6.31914 101.674 6.04872C101.631 6.01314 101.588 5.97045 101.538 5.93487C101.168 5.63599 100.791 5.34423 100.407 5.0667C100.293 4.9813 100.172 4.90302 100.058 4.82475C99.7807 4.63261 99.4961 4.44047 99.2114 4.25546C99.0691 4.16295 98.9268 4.07755 98.7844 3.98504C98.5069 3.80002 98.2223 3.62923 97.9376 3.46556C97.8024 3.38729 97.6601 3.30901 97.5249 3.23073C97.162 3.03859 96.7991 2.84646 96.429 2.66855C96.3721 2.64009 96.3152 2.61163 96.2582 2.58316C96.244 2.57604 96.2369 2.57604 96.2226 2.56893C96.1373 2.52623 96.0519 2.49065 95.9594 2.44795C95.6818 2.31986 95.4043 2.19177 95.1197 2.0708C94.9845 2.01387 94.8492 1.96406 94.714 1.90713C94.4721 1.81462 94.2373 1.71499 93.9953 1.6296C93.8459 1.57267 93.6893 1.52286 93.5328 1.46593C93.305 1.38765 93.0702 1.30937 92.8354 1.23109C92.6717 1.18128 92.5152 1.13147 92.3515 1.08165C92.2376 1.04607 92.1309 1.01049 92.017 0.982028C91.9388 0.96068 91.8534 0.946447 91.768 0.917983C91.4051 0.818357 91.0421 0.732963 90.6792 0.647569C90.5369 0.619105 90.4017 0.583524 90.2594 0.555059C89.7612 0.448317 89.256 0.355807 88.7436 0.284646C88.7294 0.284646 88.7152 0.27753 88.7009 0.27753C88.5871 0.263297 88.4803 0.256181 88.3665 0.234833C88.0249 0.192136 87.6905 0.149439 87.3489 0.113858C87.171 0.099626 86.9931 0.0853937 86.8223 0.0711615C86.5234 0.049813 86.2317 0.0284646 85.9257 0.0142323C85.8616 0.0142323 85.7976 0.00711615 85.7335 0C85.4346 0.00711615 85.1215 0 84.8013 0C84.232 0 83.6627 0.0213484 83.1006 0.0569292C83.0365 0.0640453 82.9654 0.0569292 82.8942 0.0640453C82.7661 0.0711615 82.6451 0.0925099 82.5242 0.099626C82.2822 0.120974 82.0403 0.142323 81.7983 0.170787C81.5848 0.192136 81.3785 0.220601 81.1721 0.249065C80.9302 0.284646 80.6953 0.320227 80.4605 0.355807C80.3538 0.37004 80.2541 0.384272 80.1474 0.40562C80.0478 0.419853 79.9553 0.448317 79.8556 0.462549C79.5994 0.512362 79.3433 0.562176 79.0871 0.619105C78.895 0.661802 78.7028 0.704498 78.5107 0.747195C78.2545 0.811241 77.9983 0.875286 77.7421 0.946447C77.6212 0.982028 77.4931 1.01049 77.365 1.04607C77.3081 1.06031 77.2583 1.08165 77.2013 1.09589C76.8455 1.20263 76.4968 1.31649 76.141 1.43746C76.0343 1.47304 75.9275 1.50151 75.8279 1.5442C75.3796 1.70788 74.9313 1.87866 74.4972 2.06368C74.4759 2.0708 74.4545 2.07791 74.4403 2.08503C74.3834 2.10638 74.3335 2.13484 74.2766 2.16331C73.8141 2.36256 73.3657 2.57604 72.9174 2.79665C72.7965 2.86069 72.6755 2.91762 72.5545 2.98166C72.0635 3.23785 71.5725 3.50826 71.0957 3.79291C71.0815 3.80002 71.0601 3.81425 71.0459 3.82137C70.9747 3.86407 70.9107 3.91388 70.8395 3.95658C70.498 4.16295 70.1706 4.38355 69.8362 4.60415C69.7081 4.69666 69.5729 4.78205 69.4448 4.87456C69.153 5.08093 68.8613 5.30153 68.5766 5.51501C68.477 5.60752 68.3631 5.69292 68.2493 5.78543C67.865 6.09142 67.4879 6.41165 67.1178 6.73899C67.0894 6.76745 67.0609 6.79592 67.0253 6.82438C66.6909 7.13038 66.3635 7.44349 66.0433 7.76371C65.9365 7.87046 65.8298 7.98431 65.7231 8.09106C65.474 8.34724 65.2392 8.61054 65.0043 8.87383C64.9047 8.98769 64.798 9.10155 64.6983 9.22252C64.4137 9.54987 64.1433 9.88433 63.88 10.233C63.8444 10.2828 63.8017 10.3255 63.7661 10.3753C63.4673 10.7667 63.1826 11.1652 62.9122 11.5709C62.8339 11.6847 62.7556 11.8057 62.6774 11.9267C62.4781 12.2255 62.286 12.5315 62.1081 12.8446C62.0298 12.9798 61.9444 13.1222 61.8661 13.2574C61.674 13.5918 61.489 13.9405 61.3111 14.2821C61.2613 14.3817 61.2115 14.4742 61.1616 14.5739C60.941 15.0151 60.7347 15.4634 60.5425 15.9259C60.4927 16.0398 60.45 16.1537 60.4073 16.2604C60.265 16.6162 60.1227 16.972 59.9946 17.3349C59.9377 17.4844 59.8879 17.6409 59.838 17.7904C59.7171 18.1462 59.6103 18.502 59.5107 18.8578C59.4751 18.993 59.4324 19.1211 59.3969 19.2563C59.2688 19.7402 59.1478 20.2312 59.0482 20.7293C59.0339 20.8147 59.0197 20.9001 59.0055 20.9784C58.9272 21.3982 58.856 21.8181 58.792 22.238C58.7706 22.4016 58.7493 22.5582 58.7279 22.7219C58.6852 23.0919 58.6425 23.4619 58.6141 23.8391C58.5998 23.9956 58.5856 24.1522 58.5785 24.3088C58.55 24.8282 58.5287 25.3477 58.5287 25.8814V28.3507C58.5287 27.8241 58.55 27.2975 58.5785 26.7781C58.5856 26.6215 58.5998 26.4649 58.6141 26.3084C58.6425 25.9312 58.6781 25.5612 58.7279 25.1912C58.7493 25.0275 58.7706 24.8638 58.792 24.7073C58.856 24.2803 58.9272 23.8604 59.0055 23.4477C59.0197 23.3623 59.0339 23.2769 59.0482 23.1986C59.1478 22.7005 59.2688 22.2095 59.3969 21.7256C59.4324 21.5904 59.4751 21.4623 59.5107 21.3271C59.6103 20.9713 59.7242 20.6084 59.838 20.2597C59.8879 20.1031 59.9448 19.9537 59.9946 19.8042C60.1227 19.4413 60.2579 19.0855 60.4073 18.7297C60.45 18.6158 60.4927 18.502 60.5425 18.3952C60.7347 17.9398 60.941 17.4915 61.1616 17.0432C61.2115 16.9435 61.2613 16.851 61.3111 16.7514C61.489 16.4027 61.674 16.0611 61.8661 15.7267C61.9444 15.5915 62.0227 15.4492 62.1081 15.3139C62.2931 15.0008 62.4852 14.6948 62.6774 14.396C62.7556 14.275 62.8268 14.1611 62.9122 14.0402C63.1897 13.6345 63.4744 13.2289 63.7661 12.8446C63.8017 12.7948 63.8444 12.7521 63.88 12.7023C64.1433 12.3607 64.4208 12.0263 64.6983 11.6918C64.798 11.578 64.9047 11.457 65.0043 11.3431C65.2392 11.0798 65.4811 10.8165 65.7231 10.5604C65.8298 10.4536 65.9365 10.3398 66.0433 10.233C66.3635 9.91279 66.6909 9.59968 67.0253 9.29369C67.0538 9.26522 67.0822 9.23676 67.1178 9.20829C67.4807 8.88095 67.865 8.56784 68.2493 8.25473C68.3631 8.16222 68.477 8.07683 68.5908 7.99143C68.8755 7.77083 69.1673 7.55735 69.459 7.35098C69.5871 7.25847 69.7152 7.16596 69.8504 7.08056C70.1777 6.85996 70.5122 6.63936 70.8538 6.433C70.9392 6.38318 71.0246 6.32625 71.1099 6.27644C71.5867 5.99179 72.0706 5.72138 72.5687 5.4652C72.6897 5.40115 72.8107 5.34423 72.9317 5.28018C73.38 5.05958 73.8283 4.8461 74.2908 4.64684C74.362 4.61838 74.4403 4.5828 74.5114 4.54722C74.9526 4.3622 75.3938 4.19141 75.8422 4.02774C75.9489 3.99216 76.0485 3.95658 76.1553 3.921C76.5039 3.80002 76.8598 3.68616 77.2156 3.57942C77.3935 3.52961 77.5714 3.4798 77.7564 3.42998C78.0126 3.35882 78.2687 3.29478 78.5249 3.23073C78.7171 3.18092 78.9092 3.14534 79.1013 3.10264C79.3575 3.04571 79.6137 2.9959 79.8699 2.94608C80.0691 2.9105 80.2755 2.87492 80.4747 2.83934C80.7096 2.80376 80.9515 2.76818 81.1863 2.7326C81.3927 2.70414 81.6062 2.67567 81.8126 2.65432C82.0545 2.62586 82.2964 2.60451 82.5384 2.58316C82.7305 2.56893 82.9227 2.5547 83.1148 2.54046C83.677 2.50488 84.2463 2.48353 84.8155 2.48353C85.1927 2.48353 85.5699 2.49777 85.947 2.512C86.2459 2.52623 86.5448 2.54758 86.8436 2.56893C87.0002 2.56893 87.1781 2.57604 87.356 2.59739Z" fill="#888888"/>
<path d="M84.8013 1.75806C99.311 1.75806 111.081 13.3431 111.081 27.6324C111.081 39.5092 102.954 49.5074 91.8818 52.5531L84.8013 59.6123L77.6781 52.5958C66.6482 49.5074 58.5216 39.5092 58.5216 27.6324C58.5287 13.3431 70.2916 1.75806 84.8013 1.75806Z" fill="url(#paint4_linear)"/>
<path d="M84.8013 50.6525C97.5388 50.6525 107.865 40.3266 107.865 27.5891C107.865 14.8515 97.5388 4.52563 84.8013 4.52563C72.0638 4.52563 61.7381 14.8515 61.7381 27.5891C61.7381 40.3266 72.0638 50.6525 84.8013 50.6525Z" fill="url(#paint5_linear)"/>
<path d="M93.5931 17.1387H75.75C75.1273 17.1387 74.6207 17.6453 74.6207 18.2681V23.3686C74.6207 23.992 75.1273 24.4991 75.75 24.4991H76.602L76.6128 26.1446C76.6137 26.292 76.6972 26.4265 76.8289 26.4927C76.8846 26.5208 76.9451 26.5346 77.0053 26.5346C77.0872 26.5346 77.1687 26.509 77.2372 26.4589L79.9159 24.4991H83.0666L84.3474 26.3642C84.4206 26.4709 84.5417 26.5346 84.6711 26.5346C84.8004 26.5346 84.9215 26.4709 84.9947 26.3642L86.2756 24.4991H89.4273L92.1048 26.4588C92.2237 26.5459 92.3815 26.5589 92.5131 26.4928C92.6448 26.4265 92.7283 26.2922 92.7293 26.1448L92.741 24.4991H93.5932C94.2159 24.4991 94.7225 23.9919 94.7225 23.3686V18.2681C94.7224 17.6453 94.2158 17.1387 93.5931 17.1387V17.1387ZM93.9372 23.3686C93.9372 23.559 93.7828 23.7138 93.5931 23.7138H92.3511C92.1353 23.7138 91.96 23.8879 91.9585 24.1037L91.9494 25.3721L89.7874 23.7897C89.7201 23.7404 89.6389 23.7138 89.5555 23.7138H86.0688C85.9394 23.7138 85.8184 23.7776 85.7451 23.8842L84.671 25.4484L83.5968 23.8842C83.5236 23.7776 83.4025 23.7138 83.2732 23.7138H79.7876C79.7042 23.7138 79.623 23.7404 79.5557 23.7896L77.3929 25.372L77.3846 24.104C77.3832 23.8881 77.2078 23.7139 76.992 23.7139H75.75C75.5603 23.7139 75.4059 23.559 75.4059 23.3687V18.2681C75.4059 18.0783 75.5603 17.9239 75.75 17.9239H93.5931C93.7828 17.9239 93.9372 18.0783 93.9372 18.2681V23.3686Z" fill="#888888"/>
<path d="M93.3586 33.4633C93.5539 33.1395 93.6665 32.7605 93.6665 32.3556C93.6665 31.1689 92.7015 30.2034 91.5155 30.2034C90.3288 30.2034 89.3634 31.1689 89.3634 32.3556C89.3634 32.7605 89.4761 33.1396 89.6715 33.4634C89.3862 33.5946 89.1326 33.7822 88.9237 34.0104C88.6204 33.1305 87.9357 32.4115 87.0589 32.0738C87.389 31.6015 87.5834 31.0277 87.5834 30.409C87.5834 28.8026 86.2765 27.4956 84.67 27.4956C83.0636 27.4956 81.7567 28.8026 81.7567 30.409C81.7567 31.0278 81.9512 31.6017 82.2814 32.074C81.4045 32.4119 80.7198 33.1307 80.4164 34.0105C80.2076 33.7822 79.954 33.5947 79.6687 33.4635C79.8641 33.1397 79.9767 32.7606 79.9767 32.3556C79.9767 31.1689 79.0118 30.2034 77.8257 30.2034C76.639 30.2034 75.6736 31.1689 75.6736 32.3556C75.6736 32.7606 75.7863 33.1396 75.9817 33.4634C75.1745 33.8348 74.6197 34.656 74.6197 35.5765V36.8484C74.6197 37.0653 74.7955 37.2411 75.0123 37.2411H82.9072C83.124 37.2411 83.2998 37.0653 83.2998 36.8484C83.2998 36.6316 83.124 36.4558 82.9072 36.4558H81.0306V35.5764V35.0255C81.0306 33.918 81.8168 32.9509 82.8848 32.7089C83.3783 33.0929 83.9977 33.3225 84.67 33.3225C85.3424 33.3225 85.9619 33.0929 86.4554 32.7088C87.5233 32.9505 88.3094 33.9178 88.3094 35.0255V35.5764V36.4558H86.4328C86.216 36.4558 86.0402 36.6316 86.0402 36.8484C86.0402 37.0653 86.216 37.2411 86.4328 37.2411H94.3288C94.5456 37.2411 94.7214 37.0653 94.7214 36.8484V35.5764C94.7215 34.6558 94.1663 33.8345 93.3586 33.4633ZM77.8258 30.9886C78.5789 30.9886 79.1915 31.6018 79.1915 32.3555C79.1915 33.1087 78.5789 33.7213 77.8258 33.7213C77.0721 33.7213 76.4589 33.1087 76.4589 32.3555C76.4589 31.6018 77.0721 30.9886 77.8258 30.9886ZM75.405 36.4558V35.5764C75.405 34.8772 75.8887 34.2645 76.5536 34.0892C76.9103 34.3513 77.3501 34.5066 77.8258 34.5066C78.3011 34.5066 78.7407 34.3513 79.0971 34.0892C79.7619 34.2647 80.2454 34.8773 80.2454 35.5764V36.4558H75.405ZM82.542 30.409C82.542 29.2356 83.4967 28.2809 84.6701 28.2809C85.8435 28.2809 86.7982 29.2355 86.7982 30.409C86.7982 31.5825 85.8435 32.5372 84.6701 32.5372C83.4967 32.5372 82.542 31.5825 82.542 30.409ZM91.5155 30.9886C92.2686 30.9886 92.8812 31.6018 92.8812 32.3555C92.8812 33.1087 92.2686 33.7213 91.5155 33.7213C90.7618 33.7213 90.1486 33.1087 90.1486 32.3555C90.1486 31.6018 90.7618 30.9886 91.5155 30.9886ZM89.0947 35.5764C89.0947 34.8772 89.5784 34.2645 90.2433 34.0892C90.5999 34.3513 91.0398 34.5066 91.5155 34.5066C91.9908 34.5066 92.4304 34.3513 92.7868 34.0892C93.4522 34.2645 93.9362 34.8772 93.9362 35.5763V36.4558H89.0947V35.5764Z" fill="#888888"/>
<path d="M92.2812 19.3298H82.0571C81.8402 19.3298 81.6644 19.5056 81.6644 19.7225C81.6644 19.9393 81.8402 20.1151 82.0571 20.1151H92.2812C92.4981 20.1151 92.6738 19.9393 92.6738 19.7225C92.6738 19.5056 92.498 19.3298 92.2812 19.3298Z" fill="#888888"/>
<path d="M77.059 20.1151H79.9782C80.195 20.1151 80.3708 19.9393 80.3708 19.7225C80.3708 19.5056 80.195 19.3298 79.9782 19.3298H77.059C76.8422 19.3298 76.6664 19.5056 76.6664 19.7225C76.6664 19.9393 76.8422 20.1151 77.059 20.1151Z" fill="#888888"/>
<path d="M92.2812 21.5215H89.3632C89.1464 21.5215 88.9706 21.6973 88.9706 21.9141C88.9706 22.131 89.1464 22.3067 89.3632 22.3067H92.2812C92.4981 22.3067 92.6738 22.131 92.6738 21.9141C92.6738 21.6973 92.4981 21.5215 92.2812 21.5215Z" fill="#888888"/>
<path d="M87.2832 21.5215H77.059C76.8422 21.5215 76.6664 21.6973 76.6664 21.9141C76.6664 22.131 76.8422 22.3067 77.059 22.3067H87.2832C87.5 22.3067 87.6758 22.131 87.6758 21.9141C87.6758 21.6973 87.5 21.5215 87.2832 21.5215Z" fill="#888888"/>
<path d="M84.6701 36.4558C84.4533 36.4558 84.2775 36.6316 84.2775 36.8484C84.2775 37.0653 84.4533 37.2411 84.6701 37.2411H84.6724C84.8892 37.2411 85.0639 37.0653 85.0639 36.8484C85.0639 36.6316 84.887 36.4558 84.6701 36.4558Z" fill="#888888"/>
<defs>
<radialGradient id="paint0_radial" cx="0" cy="0" r="1" gradientUnits="userSpaceOnUse" gradientTransform="translate(84.11 71.9009) rotate(90) scale(26.9351 79.5222)">
<stop stop-color="#4D8903"/>
<stop offset="0.0001" stop-opacity="0.78"/>
<stop offset="1" stop-color="white" stop-opacity="0"/>
</radialGradient>
<linearGradient id="paint1_linear" x1="35.622" y1="52.7948" x2="138.115" y2="62.3898" gradientUnits="userSpaceOnUse">
<stop stop-color="#DEDEDE"/>
<stop offset="1" stop-color="#888888"/>
</linearGradient>
<linearGradient id="paint2_linear" x1="34.9602" y1="62.5668" x2="135.546" y2="62.5668" gradientUnits="userSpaceOnUse">
<stop offset="0.00744902" stop-color="#E7E7E7" stop-opacity="0"/>
<stop offset="0.4302" stop-color="white"/>
<stop offset="0.5508" stop-color="#F5F5F5" stop-opacity="0.7883"/>
<stop offset="0.7594" stop-color="#EAEAEA" stop-opacity="0.4223"/>
<stop offset="1" stop-color="#E7E7E7" stop-opacity="0"/>
</linearGradient>
<linearGradient id="paint3_linear" x1="90.0209" y1="61.4664" x2="102.019" y2="46.5088" gradientUnits="userSpaceOnUse">
<stop stop-color="#939393"/>
<stop offset="0.3296" stop-color="#969696" stop-opacity="0.6629"/>
<stop offset="0.5748" stop-color="#989898" stop-opacity="0.4122"/>
<stop offset="0.792" stop-color="#989898" stop-opacity="0.19"/>
<stop offset="0.9778" stop-color="#C8C8C8" stop-opacity="0"/>
</linearGradient>
<linearGradient id="paint4_linear" x1="58.5256" y1="30.6851" x2="111.081" y2="30.6851" gradientUnits="userSpaceOnUse">
<stop stop-color="#EEEFEF"/>
<stop offset="1" stop-color="white"/>
</linearGradient>
<linearGradient id="paint5_linear" x1="83.8836" y1="121.426" x2="85.156" y2="-8.36662" gradientUnits="userSpaceOnUse">
<stop offset="0.5089" stop-color="#CFD0D2"/>
<stop offset="0.7253" stop-color="#F8F8F8"/>
</linearGradient>
</defs>
</svg>
