<svg width="169" height="101" viewBox="0 0 169 101" fill="none" xmlns="http://www.w3.org/2000/svg">
<ellipse cx="84.8919" cy="71.8989" rx="84.1081" ry="28.4882" fill="url(#paint0_radial)"/>
<path d="M130.968 52.4444C130.961 52.6437 130.947 52.85 130.926 53.0493C130.926 53.0777 130.919 53.1133 130.919 53.1418C130.89 53.3695 130.855 53.5901 130.805 53.8178C130.791 53.8747 130.783 53.9316 130.769 53.9886C130.727 54.1665 130.684 54.3373 130.634 54.5152C130.62 54.5578 130.613 54.6077 130.598 54.6504C130.534 54.8638 130.463 55.0702 130.378 55.2837C130.357 55.3335 130.335 55.3833 130.321 55.4331C130.257 55.5968 130.186 55.7604 130.107 55.9241C130.079 55.981 130.058 56.038 130.029 56.0949C129.93 56.3013 129.823 56.5076 129.709 56.7069C129.702 56.714 129.695 56.7282 129.695 56.7353C129.581 56.9275 129.46 57.1267 129.339 57.3188C129.303 57.3758 129.261 57.4327 129.225 57.4896C129.111 57.6533 128.997 57.817 128.876 57.9806C128.848 58.0233 128.819 58.0589 128.791 58.1016C128.642 58.3008 128.478 58.5001 128.314 58.6993C128.272 58.7491 128.229 58.7918 128.193 58.8416C128.051 59.0053 127.909 59.1619 127.759 59.3255C127.717 59.3753 127.674 59.418 127.624 59.4678C127.432 59.6671 127.233 59.8735 127.019 60.0727C126.976 60.1154 126.934 60.151 126.891 60.1937C126.706 60.3645 126.521 60.5352 126.322 60.706C126.272 60.7487 126.229 60.7914 126.179 60.827C125.938 61.0334 125.681 61.2397 125.418 61.4461C125.361 61.4888 125.311 61.5315 125.254 61.5742C124.984 61.7805 124.706 61.9869 124.422 62.1932L124.415 62.2004C124.393 62.2146 124.379 62.2288 124.358 62.2359C124.187 62.3569 124.009 62.4779 123.831 62.5989C123.76 62.6416 123.696 62.6914 123.625 62.7341C123.49 62.8195 123.362 62.9048 123.226 62.9973C123.141 63.0472 123.063 63.1041 122.977 63.1539C122.849 63.2322 122.728 63.3105 122.6 63.3887C122.508 63.4457 122.422 63.4955 122.33 63.5524C122.209 63.6236 122.088 63.6947 121.967 63.7659C121.832 63.8441 121.689 63.9224 121.547 64.0007C121.44 64.0576 121.341 64.1146 121.234 64.1715C121.084 64.2498 120.935 64.3351 120.778 64.4134C120.679 64.4703 120.579 64.5202 120.472 64.5771C120.309 64.6625 120.138 64.7479 119.967 64.8333C119.875 64.876 119.789 64.9258 119.697 64.9685C119.462 65.0823 119.227 65.1962 118.992 65.31C118.957 65.3243 118.928 65.3385 118.893 65.3598C118.523 65.5377 118.138 65.7085 117.754 65.8722C117.669 65.9078 117.591 65.9433 117.505 65.9789C117.128 66.1426 116.737 66.3063 116.345 66.4628C116.281 66.4913 116.217 66.5126 116.146 66.5411C115.783 66.6905 115.413 66.8328 115.036 66.9752C114.972 67.0036 114.901 67.025 114.837 67.0534C114.424 67.2029 114.011 67.3523 113.584 67.5017C113.499 67.5302 113.406 67.5587 113.321 67.5942C112.858 67.7508 112.389 67.9073 111.905 68.0639C111.855 68.0781 111.798 68.0995 111.748 68.1137C111.279 68.2631 110.795 68.4055 110.311 68.5478C110.261 68.562 110.211 68.5762 110.162 68.5905C109.663 68.7328 109.158 68.8751 108.653 69.0103C108.56 69.0317 108.468 69.0601 108.375 69.0815C107.87 69.2167 107.365 69.3448 106.853 69.4657C106.76 69.4871 106.668 69.5084 106.575 69.5298C106.041 69.6579 105.508 69.786 104.96 69.8998C104.924 69.9069 104.881 69.914 104.846 69.9212C104.312 70.035 103.764 70.1489 103.216 70.2627C103.145 70.277 103.074 70.2912 103.003 70.3054C102.455 70.4122 101.9 70.5189 101.338 70.6185C101.231 70.6399 101.131 70.6541 101.025 70.6754C100.47 70.7751 99.9074 70.8676 99.3382 70.9601C99.2314 70.9743 99.1247 70.9957 99.0179 71.0099C98.6052 71.0739 98.1854 71.138 97.7584 71.1949C97.6517 71.2091 97.5449 71.2234 97.4382 71.2376C96.9401 71.3088 96.4349 71.3728 95.9296 71.4368C95.8229 71.4511 95.7161 71.4653 95.6023 71.4795C95.1753 71.5294 94.7413 71.5792 94.3072 71.629C94.1933 71.6432 94.0724 71.6574 93.9585 71.6646C93.4462 71.7215 92.9267 71.7713 92.4072 71.8211C92.329 71.8282 92.2507 71.8353 92.1724 71.8425C91.4466 71.9065 90.7208 71.9705 89.9878 72.0204C89.9238 72.0275 89.8526 72.0275 89.7886 72.0346C89.0485 72.0844 88.3013 72.1342 87.5471 72.1698C87.4759 72.1769 87.4047 72.1769 87.3265 72.1769C86.743 72.2054 86.1666 72.2267 85.5759 72.2481C85.4906 72.2481 85.4052 72.2552 85.3126 72.2552C84.7007 72.2765 84.0816 72.2908 83.4696 72.2979C83.3344 72.2979 83.2063 72.305 83.0711 72.305C82.5019 72.3121 81.9255 72.3192 81.3491 72.3192C80.7656 72.3192 80.1892 72.3121 79.6057 72.305C79.4634 72.305 79.321 72.2979 79.1787 72.2979C78.6593 72.2908 78.1398 72.2765 77.6203 72.2623C77.599 72.2623 77.5705 72.2623 77.5492 72.2623C77.0084 72.2481 76.4747 72.2267 75.941 72.1983C75.7986 72.1911 75.6563 72.184 75.514 72.1769C75.0942 72.1556 74.6672 72.1342 74.2474 72.1129C74.1406 72.1057 74.0339 72.0986 73.9272 72.0915C73.4148 72.0631 72.9096 72.0275 72.3972 71.9848C72.2763 71.9777 72.1553 71.9634 72.0343 71.9563C71.6358 71.9279 71.2373 71.8923 70.8388 71.8567C70.6965 71.8425 70.5613 71.8353 70.419 71.8211C69.9209 71.7784 69.4228 71.7286 68.9318 71.6788C68.9247 71.6788 68.9104 71.6788 68.9033 71.6788C68.4123 71.629 67.9284 71.5721 67.4517 71.5151C67.3165 71.5009 67.1812 71.4795 67.0389 71.4653C66.6404 71.4155 66.2419 71.3657 65.8435 71.3159C65.7438 71.3016 65.6513 71.2874 65.5517 71.2803C65.0607 71.2163 64.5697 71.1451 64.0787 71.0668C63.9648 71.0526 63.851 71.0312 63.7371 71.017C63.3315 70.953 62.933 70.8889 62.5345 70.8249C62.4278 70.8035 62.3211 70.7893 62.2143 70.7751C61.7162 70.6897 61.2181 70.6043 60.7271 70.5118C60.6204 70.4904 60.5207 70.4691 60.414 70.4549C59.9728 70.3695 59.5387 70.2841 59.1118 70.1987C59.0335 70.1844 58.9552 70.1702 58.8841 70.1489C58.3575 70.0421 57.838 69.9283 57.3257 69.8144C57.2189 69.7931 57.1193 69.7646 57.0126 69.7433C56.5002 69.6294 55.995 69.5084 55.4969 69.3803C55.4328 69.3661 55.3688 69.3519 55.3119 69.3305C54.707 69.1811 54.1164 69.0245 53.5329 68.8609C53.4902 68.8466 53.4475 68.8395 53.4048 68.8253C52.8071 68.6616 52.2164 68.4909 51.6329 68.313C51.5831 68.2987 51.5262 68.2774 51.4764 68.2631C51.1704 68.1706 50.8715 68.0781 50.5727 67.9785C50.4588 67.9429 50.3378 67.9002 50.224 67.8647C49.9891 67.7864 49.7543 67.7081 49.5266 67.6298C49.3985 67.5871 49.2776 67.5444 49.1566 67.5017C48.9289 67.4235 48.7012 67.3381 48.4734 67.2598C48.3596 67.2171 48.2457 67.1815 48.139 67.1388C47.8615 67.0392 47.5911 66.9325 47.3207 66.8328C47.2637 66.8115 47.2068 66.7901 47.1499 66.7688C46.9506 66.6905 46.7514 66.6122 46.5521 66.534C46.4596 66.4984 46.3671 66.4628 46.2817 66.4272C45.9971 66.3134 45.7125 66.1924 45.4349 66.0786C45.3851 66.0572 45.3282 66.0359 45.2784 66.0074C45.0507 65.9078 44.8301 65.8153 44.6095 65.7156C44.5099 65.6729 44.4102 65.6231 44.3177 65.5804C44.147 65.5022 43.9762 65.4239 43.8054 65.3456C43.6987 65.2958 43.5919 65.246 43.4852 65.1891C43.3286 65.1179 43.1792 65.0396 43.0226 64.9685C42.9088 64.9115 42.802 64.8546 42.6953 64.8048C42.553 64.7336 42.4107 64.6625 42.2684 64.5842C42.1545 64.5273 42.0478 64.4703 41.941 64.4134C41.8058 64.3423 41.6706 64.2711 41.5354 64.1928C41.4287 64.1359 41.3148 64.0719 41.2081 64.0078C41.08 63.9367 40.9519 63.8655 40.8238 63.7872C40.7171 63.7232 40.6103 63.6591 40.5036 63.5951C40.3826 63.5239 40.2545 63.4528 40.1336 63.3745C40.0268 63.3104 39.9272 63.2464 39.8205 63.1824C39.6995 63.1112 39.5856 63.0329 39.4718 62.9618C39.3722 62.8977 39.2654 62.8266 39.1658 62.7625C39.052 62.6914 38.9381 62.6131 38.8314 62.5419C38.7317 62.4779 38.6392 62.4067 38.5396 62.3427C38.4329 62.2644 38.319 62.1932 38.2123 62.115C38.1055 62.0438 38.013 61.9798 37.9205 61.9086C37.8138 61.8303 37.7142 61.7521 37.6074 61.6809C37.5149 61.6097 37.4295 61.5457 37.337 61.4745C37.2374 61.3963 37.1378 61.318 37.0453 61.2397C36.9599 61.1686 36.8745 61.0974 36.7891 61.0262C36.6966 60.948 36.6041 60.8697 36.5116 60.7914C36.4262 60.7203 36.3479 60.6491 36.2625 60.5779C36.17 60.4997 36.0846 60.4214 35.9992 60.3431C35.9209 60.2719 35.8427 60.2008 35.7644 60.1225C35.679 60.0442 35.5936 59.9588 35.5153 59.8806C35.4371 59.8094 35.3659 59.7311 35.2947 59.66C35.2165 59.5817 35.1382 59.4963 35.0599 59.418C34.9888 59.3469 34.9176 59.2686 34.8535 59.1974C34.7682 59.1049 34.6899 59.0267 34.6187 58.9413C34.5547 58.863 34.4906 58.7918 34.4266 58.7136C34.3554 58.6282 34.2843 58.5499 34.2202 58.4645C34.1562 58.3862 34.0993 58.3151 34.0352 58.2368C33.9712 58.1514 33.9071 58.0731 33.8431 57.9877C33.7862 57.9095 33.7292 57.8383 33.6723 57.76C33.6083 57.6746 33.5513 57.5892 33.4944 57.5038C33.4446 57.4256 33.3877 57.3473 33.3379 57.2761C33.2809 57.1907 33.2311 57.1054 33.1742 57.0128C33.1244 56.9346 33.0817 56.8563 33.0319 56.778C32.9821 56.6926 32.9322 56.6001 32.8824 56.5147C32.8397 56.4365 32.797 56.3582 32.7543 56.2799C32.7117 56.1874 32.669 56.102 32.6263 56.0095C32.5907 55.9312 32.548 55.8529 32.5195 55.7747C32.4768 55.6822 32.4412 55.5897 32.4057 55.5043C32.3701 55.426 32.3416 55.3477 32.3132 55.2694C32.2776 55.1769 32.2491 55.0844 32.2135 54.9919C32.1851 54.9136 32.1566 54.8354 32.1353 54.7571C32.1068 54.6646 32.0783 54.565 32.0499 54.4725C32.0285 54.3942 32.0072 54.323 31.9858 54.2447C31.9574 54.1451 31.9431 54.0455 31.9218 53.9459C31.9076 53.8747 31.8862 53.7964 31.872 53.7253C31.8506 53.6185 31.8364 53.5189 31.8222 53.4122C31.8079 53.341 31.8008 53.2699 31.7866 53.2058C31.7795 53.0777 31.7723 52.9639 31.7581 52.85C31.751 52.7931 31.7439 52.7291 31.7439 52.6721C31.7297 52.4942 31.7297 52.3163 31.7297 52.1455V64.6127C31.7297 64.7906 31.7368 64.9685 31.7439 65.1392C31.751 65.1962 31.7581 65.2602 31.7581 65.3171C31.7652 65.431 31.7795 65.552 31.7937 65.6658C31.8008 65.737 31.815 65.8081 31.8293 65.8722C31.8435 65.9789 31.8577 66.0786 31.8791 66.1853C31.8933 66.2565 31.9147 66.3347 31.9289 66.4059C31.9502 66.5055 31.9716 66.6051 31.9929 66.7048C32.0143 66.783 32.0356 66.8542 32.057 66.9325C32.0854 67.025 32.1068 67.1246 32.1424 67.2171C32.1637 67.2954 32.1922 67.3737 32.2207 67.4519C32.2562 67.5444 32.2847 67.6369 32.3203 67.7294C32.3487 67.8077 32.3843 67.886 32.4128 67.9643C32.4484 68.0568 32.4839 68.1493 32.5266 68.2347C32.5622 68.313 32.5978 68.3912 32.6334 68.4695C32.6761 68.562 32.7188 68.6474 32.7615 68.7399C32.8042 68.8182 32.8469 68.8965 32.8895 68.9747C32.9394 69.0601 32.9821 69.1526 33.039 69.238C33.0817 69.3163 33.1315 69.3946 33.1813 69.4729C33.2311 69.5582 33.288 69.6508 33.345 69.7361C33.3948 69.8144 33.4446 69.8927 33.5015 69.9639C33.5584 70.0492 33.6154 70.1346 33.6794 70.22C33.7363 70.2983 33.7933 70.3766 33.8502 70.4477C33.9142 70.5331 33.9783 70.6185 34.0423 70.7039C34.0993 70.7822 34.1633 70.8533 34.2273 70.9316C34.2985 71.017 34.3625 71.1024 34.4337 71.1807C34.4978 71.259 34.5618 71.3301 34.6258 71.4084C34.697 71.4938 34.7753 71.5721 34.8464 71.6574C34.9176 71.7286 34.9816 71.8069 35.0528 71.878C35.1311 71.9563 35.2093 72.0417 35.2876 72.12C35.3588 72.1911 35.4371 72.2694 35.5082 72.3406C35.5936 72.4189 35.6719 72.5042 35.7573 72.5825C35.8355 72.6537 35.9138 72.7248 35.9921 72.8031C36.0775 72.8814 36.17 72.9597 36.2554 73.0379C36.3337 73.1091 36.4191 73.1803 36.5044 73.2514C36.597 73.3297 36.6895 73.408 36.782 73.4862C36.8674 73.5574 36.9527 73.6286 37.0381 73.6997C37.1378 73.778 37.2303 73.8563 37.3299 73.9345C37.4224 74.0057 37.5078 74.0769 37.6003 74.1409C37.6999 74.2192 37.8067 74.2975 37.9134 74.3686C38.0059 74.4398 38.0984 74.5038 38.1909 74.575C38.2977 74.6533 38.4044 74.7244 38.5183 74.8027C38.6179 74.8667 38.7104 74.9379 38.81 75.0019C38.9239 75.0802 39.0306 75.1514 39.1445 75.2225C39.2441 75.2866 39.3437 75.3577 39.4504 75.4218C39.5643 75.4929 39.6853 75.5712 39.7991 75.6424C39.9059 75.7064 40.0055 75.7705 40.1122 75.8345C40.2332 75.9057 40.3542 75.9768 40.4823 76.0551C40.589 76.1191 40.6957 76.1832 40.8025 76.2472C40.9306 76.3184 41.0586 76.3895 41.1867 76.4678C41.2935 76.5319 41.4002 76.5888 41.5141 76.6528C41.6493 76.724 41.7845 76.7952 41.9197 76.8734C42.0264 76.9304 42.1403 76.9873 42.247 77.0442C42.3893 77.1154 42.5316 77.1865 42.674 77.2648C42.7807 77.3217 42.8946 77.3787 43.0013 77.4285C43.1507 77.5067 43.3073 77.5779 43.4638 77.6491C43.5706 77.6989 43.6773 77.7558 43.784 77.8056C43.9548 77.8839 44.1256 77.9622 44.2964 78.0404C44.396 78.0831 44.4885 78.1329 44.5881 78.1756C44.8087 78.2753 45.0293 78.3678 45.257 78.4674C45.3069 78.4887 45.3638 78.5101 45.4136 78.5386C45.6911 78.6595 45.9758 78.7734 46.2604 78.8872C46.3529 78.9228 46.4383 78.9584 46.5308 78.994C46.73 79.0723 46.9293 79.1505 47.1285 79.2288C47.1357 79.2288 47.1428 79.2359 47.1499 79.2359C47.1997 79.2573 47.2424 79.2715 47.2922 79.2928C47.5626 79.3996 47.833 79.4992 48.1105 79.5988C48.2244 79.6415 48.3382 79.6771 48.445 79.7198C48.6727 79.7981 48.9004 79.8835 49.1281 79.9617C49.2491 80.0044 49.3772 80.0471 49.4981 80.0898C49.733 80.1681 49.9607 80.2464 50.1955 80.3247C50.3094 80.3602 50.4303 80.4029 50.5442 80.4385C50.8431 80.531 51.1419 80.6306 51.4479 80.7232C51.4977 80.7374 51.5404 80.7516 51.5902 80.7658C51.5973 80.7658 51.6045 80.7658 51.6045 80.773C52.188 80.9509 52.7786 81.1216 53.3763 81.2853C53.419 81.2995 53.4617 81.3067 53.5044 81.3209C54.0879 81.4846 54.6857 81.6411 55.2834 81.7905C55.3261 81.7977 55.3617 81.8119 55.4044 81.819C55.4257 81.8261 55.4542 81.8332 55.4755 81.8332C55.9736 81.9542 56.4789 82.0752 56.9912 82.1961C57.098 82.2175 57.1976 82.246 57.3043 82.2673C57.8167 82.3812 58.3361 82.495 58.8627 82.6018C58.8841 82.6089 58.9054 82.6089 58.9268 82.616C58.9837 82.6302 59.0406 82.6373 59.0975 82.6516C59.5316 82.737 59.9657 82.8224 60.3998 82.9077C60.5065 82.9291 60.6061 82.9504 60.7129 82.9647C61.2039 83.0572 61.702 83.1426 62.2001 83.228C62.2357 83.2351 62.2713 83.2422 62.2997 83.2493C62.3709 83.2635 62.4492 83.2707 62.5203 83.2849C62.9188 83.3489 63.3244 83.413 63.7229 83.477C63.8368 83.4912 63.9506 83.5126 64.0645 83.5268C64.5555 83.598 65.0394 83.6691 65.5375 83.7403C65.5659 83.7403 65.5873 83.7474 65.6157 83.7545C65.6869 83.7617 65.7581 83.7759 65.8292 83.783C66.2277 83.8328 66.6262 83.8897 67.0247 83.9324C67.1599 83.9467 67.2951 83.968 67.4374 83.9822C67.9213 84.0392 68.4052 84.0961 68.8891 84.1459C68.8962 84.1459 68.9104 84.1459 68.9175 84.1459C68.9175 84.1459 68.9175 84.1459 68.9247 84.1459C69.4156 84.1957 69.9138 84.2455 70.4119 84.2882C70.5542 84.3025 70.6894 84.3096 70.8317 84.3238C71.2302 84.3594 71.6287 84.3879 72.0272 84.4234C72.1126 84.4305 72.1909 84.4377 72.2763 84.4448C72.3118 84.4448 72.3474 84.4519 72.383 84.4519C72.8882 84.4875 73.4006 84.5231 73.9129 84.5586C74.0197 84.5658 74.1264 84.5729 74.2331 84.58C74.653 84.6013 75.0728 84.6298 75.4998 84.644C75.5781 84.6511 75.6634 84.6511 75.7417 84.6583C75.8058 84.6583 75.8698 84.6654 75.9267 84.6654C76.4604 84.6867 77.0012 84.7081 77.5349 84.7294C77.5563 84.7294 77.5847 84.7294 77.6061 84.7294C78.1256 84.7437 78.645 84.7579 79.1645 84.765C79.2356 84.765 79.3068 84.7721 79.378 84.7721C79.4491 84.7721 79.5203 84.7721 79.5914 84.7721C80.1678 84.7792 80.7513 84.7864 81.3348 84.7864C81.9112 84.7864 82.4876 84.7792 83.0569 84.7721C83.1281 84.7721 83.1992 84.7721 83.2704 84.7721C83.3344 84.7721 83.3913 84.7721 83.4554 84.765C84.0745 84.7579 84.6865 84.7365 85.2984 84.7223C85.3838 84.7223 85.4692 84.7152 85.5617 84.7152C86.1452 84.6938 86.7287 84.6725 87.3122 84.644C87.362 84.644 87.419 84.6369 87.4759 84.6369C87.4972 84.6369 87.5115 84.6369 87.5328 84.6369C88.2871 84.6013 89.0343 84.5515 89.7743 84.5017C89.8384 84.4946 89.9095 84.4946 89.9736 84.4875C90.7065 84.4377 91.4395 84.3736 92.1582 84.3096C92.208 84.3025 92.2507 84.3025 92.3005 84.2953C92.329 84.2953 92.3645 84.2882 92.393 84.2882C92.9125 84.2384 93.4319 84.1886 93.9443 84.1317C94.0581 84.1175 94.1791 84.1032 94.293 84.0961C94.727 84.0463 95.1611 83.9965 95.5881 83.9467C95.6948 83.9324 95.8015 83.9182 95.9154 83.904C96.4206 83.8399 96.9259 83.7759 97.424 83.7047C97.5307 83.6905 97.6375 83.6763 97.7442 83.662C98.164 83.6051 98.5839 83.5411 99.0037 83.477C99.0749 83.4628 99.146 83.4557 99.2172 83.4414C99.2528 83.4343 99.2883 83.4272 99.3168 83.4272C99.8861 83.3347 100.448 83.2422 101.003 83.1426C101.11 83.1212 101.21 83.107 101.316 83.0856C101.879 82.986 102.434 82.8793 102.982 82.7725C103.053 82.7583 103.124 82.7441 103.195 82.7298C103.743 82.6231 104.284 82.5092 104.825 82.3883C104.86 82.3812 104.903 82.374 104.938 82.3669C105.486 82.246 106.02 82.125 106.554 81.9969C106.646 81.9756 106.739 81.9542 106.831 81.9329C107.344 81.8048 107.856 81.6767 108.354 81.5486C108.447 81.5272 108.539 81.4988 108.632 81.4774C109.144 81.3422 109.649 81.1999 110.14 81.0576C110.19 81.0434 110.24 81.0291 110.29 81.0149C110.773 80.8726 111.257 80.7231 111.727 80.5808C111.777 80.5666 111.834 80.5452 111.884 80.531C112.36 80.3816 112.83 80.225 113.3 80.0614C113.349 80.0471 113.399 80.0329 113.442 80.0116C113.485 79.9973 113.52 79.9831 113.563 79.9689C113.983 79.8194 114.403 79.67 114.815 79.5206C114.879 79.4921 114.951 79.4707 115.015 79.4423C115.392 79.3 115.762 79.1576 116.125 79.0082C116.189 78.9797 116.253 78.9584 116.324 78.9299C116.715 78.7734 117.107 78.6097 117.484 78.446C117.569 78.4105 117.647 78.3749 117.733 78.3393C118.117 78.1685 118.501 77.9977 118.871 77.827C118.871 77.827 118.871 77.827 118.879 77.827C118.907 77.8127 118.943 77.7985 118.971 77.7843C119.206 77.6704 119.448 77.5566 119.676 77.4427C119.768 77.4 119.861 77.3502 119.946 77.3075C120.117 77.2221 120.287 77.1367 120.451 77.0513C120.551 77.0015 120.65 76.9446 120.757 76.8877C120.907 76.8094 121.063 76.724 121.213 76.6457C121.319 76.5888 121.419 76.5319 121.526 76.4749C121.668 76.3967 121.81 76.3184 121.945 76.2401C121.988 76.2188 122.024 76.1974 122.066 76.1689C122.152 76.1191 122.23 76.0693 122.308 76.0266C122.401 75.9697 122.486 75.9199 122.579 75.863C122.707 75.7847 122.835 75.7064 122.956 75.6281C123.041 75.5783 123.127 75.5214 123.205 75.4716C123.34 75.3862 123.475 75.3008 123.604 75.2083C123.675 75.1656 123.739 75.1158 123.81 75.0731C123.988 74.9521 124.166 74.8312 124.336 74.7102C124.358 74.6959 124.372 74.6817 124.393 74.6746C124.393 74.6746 124.4 74.6746 124.4 74.6675C124.685 74.4611 124.963 74.2548 125.233 74.0484C125.29 74.0057 125.34 73.963 125.397 73.9203C125.66 73.7139 125.909 73.5076 126.158 73.3012C126.172 73.287 126.194 73.2728 126.208 73.2585C126.244 73.2301 126.272 73.2016 126.3 73.1731C126.493 73.0024 126.685 72.8316 126.87 72.6608C126.912 72.6181 126.955 72.5825 126.998 72.5398C127.204 72.3406 127.411 72.1413 127.603 71.935C127.617 71.9207 127.638 71.9065 127.652 71.8852C127.681 71.8567 127.709 71.8211 127.738 71.7926C127.887 71.6361 128.03 71.4724 128.172 71.3088C128.215 71.259 128.257 71.2163 128.293 71.1664C128.464 70.9672 128.62 70.768 128.77 70.5687C128.777 70.5616 128.784 70.5474 128.798 70.5402C128.819 70.5118 128.841 70.4833 128.862 70.4477C128.983 70.2841 129.097 70.1204 129.211 69.9567C129.246 69.8998 129.289 69.8429 129.325 69.786C129.453 69.5938 129.574 69.4017 129.681 69.2024C129.688 69.1953 129.688 69.1882 129.695 69.1811C129.695 69.1811 129.695 69.1811 129.695 69.174C129.809 68.9747 129.915 68.7684 130.015 68.562C130.043 68.5051 130.072 68.4482 130.093 68.3912C130.172 68.2276 130.243 68.0639 130.307 67.9002C130.321 67.8646 130.335 67.8291 130.349 67.8006C130.357 67.7864 130.357 67.7721 130.364 67.7579C130.442 67.5515 130.52 67.3381 130.584 67.1246C130.598 67.0819 130.613 67.0321 130.62 66.9894C130.67 66.8186 130.712 66.6407 130.755 66.4628C130.762 66.4272 130.776 66.3917 130.783 66.3632C130.791 66.3418 130.791 66.3134 130.798 66.292C130.84 66.0714 130.883 65.8437 130.912 65.616C130.919 65.5876 130.919 65.552 130.919 65.5235C130.94 65.3243 130.954 65.1179 130.961 64.9187C130.961 64.8831 130.968 64.8546 130.968 64.819C130.968 64.7479 130.968 64.6767 130.968 64.6127V52.1384C130.976 52.2452 130.976 52.3448 130.968 52.4444Z" fill="#3F7000"/>
<path d="M81.3492 31.9578C108.76 31.9578 130.976 40.995 130.976 52.1457C130.976 63.2963 108.76 72.3265 81.3492 72.3265C53.9386 72.3265 31.7226 63.2892 31.7226 52.1457C31.7297 40.995 53.9457 31.9578 81.3492 31.9578Z" fill="url(#paint1_linear)"/>
<g opacity="0.5">
<path opacity="0.5" d="M130.976 52.1384C130.976 63.2891 108.76 72.3192 81.3492 72.3192C53.9386 72.3192 31.7226 63.282 31.7226 52.1384" stroke="url(#paint2_linear)" stroke-width="1.8706" stroke-miterlimit="10"/>
</g>
<g opacity="0.4">
<path opacity="0.8" d="M138.376 57.9452C138.483 61.6526 126.984 64.9899 112.709 65.3955C100.84 65.73 90.7849 63.9368 87.661 61.19L80.5522 59.5818L87.5116 57.5609C90.5216 54.6505 100.455 52.2951 112.325 51.9535C126.607 51.555 138.27 54.2377 138.376 57.9452Z" fill="url(#paint3_linear)"/>
</g>
<path d="M83.4554 2.59732C83.797 2.6329 84.1386 2.67559 84.473 2.71829C84.6011 2.73252 84.7221 2.74675 84.8502 2.7681C85.3625 2.84637 85.8606 2.93888 86.3659 3.03851C86.5082 3.06697 86.6434 3.10255 86.7857 3.13101C87.1486 3.2164 87.5186 3.30179 87.8744 3.40142C88.0666 3.45123 88.2658 3.50816 88.4579 3.56508C88.6216 3.6149 88.7782 3.66471 88.9418 3.71452C89.1766 3.78568 89.4044 3.86395 89.6392 3.94935C89.7957 3.99916 89.9452 4.05608 90.1017 4.11301C90.3437 4.20552 90.5856 4.29803 90.8204 4.39053C90.9556 4.44746 91.0908 4.49727 91.226 4.5542C91.5107 4.67517 91.7882 4.79614 92.0657 4.93134C92.1511 4.97404 92.2436 5.00962 92.329 5.05232C92.4002 5.08789 92.4642 5.12347 92.5354 5.15194C92.9054 5.32984 93.2683 5.52197 93.6241 5.7141C93.7664 5.79237 93.9016 5.87065 94.0368 5.94892C94.3215 6.11259 94.6061 6.27626 94.8836 6.45415C95.026 6.53955 95.1683 6.63205 95.3106 6.72456C95.5952 6.90957 95.8799 7.10171 96.1574 7.29384C96.2712 7.37211 96.3922 7.4575 96.5061 7.53578C96.8903 7.8133 97.2675 8.10505 97.6375 8.40392C97.6802 8.4395 97.7229 8.4822 97.7727 8.51778C98.0929 8.78818 98.4131 9.05859 98.7191 9.34323C98.833 9.44996 98.9468 9.5567 99.0607 9.66344C99.3026 9.89115 99.5375 10.1189 99.7652 10.3537C99.879 10.4747 100 10.5956 100.114 10.7166C100.342 10.9585 100.569 11.2076 100.79 11.4638C100.882 11.5705 100.982 11.6773 101.075 11.7911C101.38 12.154 101.679 12.524 101.971 12.9012C102.213 13.2143 102.441 13.5416 102.668 13.869C102.733 13.9686 102.797 14.0611 102.861 14.1607C103.017 14.3955 103.174 14.6304 103.323 14.8652C103.401 14.9933 103.48 15.1285 103.558 15.2566C103.686 15.47 103.814 15.6835 103.928 15.897C104.006 16.0393 104.085 16.1888 104.163 16.3311C104.262 16.5161 104.362 16.7082 104.455 16.9004C104.647 17.2846 104.832 17.6689 105.002 18.0602C105.031 18.1243 105.067 18.1883 105.095 18.2524C105.294 18.7078 105.472 19.1775 105.643 19.6471C105.7 19.8037 105.75 19.9602 105.807 20.1239C105.899 20.3943 105.992 20.6647 106.07 20.9351C106.127 21.113 106.177 21.2909 106.226 21.4688C106.298 21.7321 106.369 22.0025 106.44 22.2729C106.49 22.465 106.532 22.65 106.575 22.8422C106.625 23.077 106.675 23.3118 106.717 23.5466C106.753 23.7459 106.796 23.9451 106.824 24.1515C106.867 24.3934 106.902 24.6354 106.931 24.8773C106.959 25.0837 106.988 25.2829 107.009 25.4893C107.038 25.7241 107.059 25.9661 107.08 26.2009C107.095 26.4072 107.116 26.6207 107.13 26.8271C107.144 27.069 107.152 27.311 107.159 27.5529C107.166 27.8233 107.18 28.1008 107.18 28.3712V25.902C107.18 25.781 107.18 25.653 107.18 25.532C107.18 25.3825 107.166 25.2331 107.159 25.0837C107.152 24.8417 107.144 24.5998 107.13 24.3579C107.116 24.1515 107.102 23.938 107.08 23.7316C107.059 23.4968 107.038 23.2549 107.009 23.0201C107.002 22.9418 106.995 22.8706 106.988 22.7923C106.974 22.6643 106.945 22.5362 106.931 22.4081C106.895 22.1661 106.86 21.9242 106.824 21.6823C106.789 21.483 106.753 21.2767 106.717 21.0774C106.675 20.8426 106.625 20.6078 106.575 20.3729C106.554 20.2804 106.54 20.1808 106.518 20.0883C106.497 19.9958 106.468 19.8962 106.44 19.8037C106.376 19.5332 106.305 19.27 106.226 18.9996C106.177 18.8217 106.127 18.6438 106.07 18.4659C105.985 18.1883 105.899 17.9179 105.807 17.6475C105.764 17.5337 105.735 17.4127 105.693 17.2917C105.679 17.249 105.657 17.2135 105.643 17.1708C105.472 16.7011 105.287 16.2386 105.095 15.776C105.067 15.712 105.038 15.6479 105.002 15.5839C104.832 15.1925 104.647 14.8011 104.455 14.424C104.426 14.3671 104.405 14.3101 104.376 14.2532C104.305 14.118 104.234 13.9899 104.163 13.8618C104.085 13.7195 104.006 13.5701 103.928 13.4278C103.807 13.2143 103.679 13.0008 103.558 12.7873C103.48 12.6593 103.401 12.524 103.323 12.396C103.174 12.154 103.017 11.9263 102.861 11.6915C102.797 11.5919 102.733 11.4922 102.668 11.3997C102.448 11.0795 102.22 10.7593 101.978 10.4462C101.978 10.4391 101.971 10.4391 101.971 10.432C101.686 10.0548 101.388 9.68479 101.075 9.32188C100.982 9.20802 100.882 9.10128 100.79 8.99454C100.569 8.74549 100.342 8.49643 100.114 8.24737C100 8.1264 99.879 8.00543 99.7652 7.88446C99.5375 7.64963 99.3026 7.42192 99.0607 7.19421C98.9468 7.08747 98.833 6.98073 98.7191 6.87399C98.406 6.58936 98.0929 6.31895 97.7727 6.04855C97.73 6.01297 97.6873 5.97027 97.6375 5.93469C97.2675 5.63582 96.8903 5.34407 96.5061 5.06655C96.3922 4.98116 96.2712 4.90288 96.1574 4.82461C95.8799 4.63247 95.5952 4.44034 95.3106 4.25533C95.1683 4.16282 95.026 4.07743 94.8836 3.98492C94.6061 3.79991 94.3215 3.62913 94.0368 3.46546C93.9016 3.38719 93.7593 3.30891 93.6241 3.23064C93.2612 3.03851 92.8983 2.84637 92.5283 2.66848C92.4713 2.64001 92.4144 2.61155 92.3575 2.58309C92.3432 2.57597 92.3361 2.57597 92.3219 2.56885C92.2365 2.52616 92.1511 2.49058 92.0586 2.44788C91.7811 2.3198 91.5036 2.19171 91.2189 2.07074C91.0837 2.01381 90.9485 1.964 90.8133 1.90707C90.5714 1.81456 90.3365 1.71494 90.0946 1.62955C89.9452 1.57262 89.7886 1.52281 89.6321 1.46588C89.4044 1.38761 89.1695 1.30933 88.9347 1.23106C88.771 1.18125 88.6145 1.13143 88.4508 1.08162C88.337 1.04604 88.2302 1.01046 88.1164 0.981999C88.0381 0.960651 87.9527 0.94642 87.8673 0.917956C87.5044 0.818333 87.1415 0.732942 86.7786 0.64755C86.6363 0.619087 86.5011 0.583507 86.3587 0.555043C85.8606 0.448304 85.3554 0.355797 84.843 0.284637C84.8288 0.284637 84.8146 0.277522 84.8003 0.277522C84.6865 0.26329 84.5798 0.256174 84.4659 0.234826C84.1243 0.19213 83.7899 0.149435 83.4483 0.113855C83.2704 0.0996231 83.0925 0.0853912 82.9217 0.0711594C82.6229 0.0498116 82.3311 0.0284637 82.0251 0.0142319C81.9611 0.0142319 81.897 0.00711594 81.833 0C81.5341 0.00711594 81.221 0 80.9008 0C80.3315 0 79.7623 0.0213478 79.2001 0.0569275C79.1361 0.0640434 79.0649 0.0569275 78.9937 0.0640434C78.8657 0.0711594 78.7447 0.0925072 78.6237 0.0996231C78.3818 0.120971 78.1398 0.142319 77.8979 0.170782C77.6844 0.19213 77.4781 0.220594 77.2717 0.249058C77.0297 0.284637 76.7949 0.320217 76.5601 0.355797C76.4534 0.370029 76.3537 0.384261 76.247 0.405608C76.1474 0.41984 76.0549 0.448304 75.9552 0.462536C75.6991 0.512347 75.4429 0.562159 75.1867 0.619087C74.9946 0.661782 74.8025 0.704478 74.6103 0.747173C74.3542 0.811217 74.098 0.87526 73.8418 0.94642C73.7208 0.981999 73.5927 1.01046 73.4647 1.04604C73.4077 1.06027 73.3579 1.08162 73.301 1.09585C72.9452 1.20259 72.5965 1.31645 72.2407 1.43742C72.134 1.473 72.0272 1.50146 71.9276 1.54416C71.4793 1.70782 71.031 1.87861 70.5969 2.06362C70.5756 2.07074 70.5542 2.07785 70.54 2.08497C70.4831 2.10632 70.4333 2.13478 70.3763 2.16324C69.9138 2.36249 69.4655 2.57597 69.0172 2.79656C68.8962 2.86061 68.7753 2.91753 68.6543 2.98158C68.1633 3.23775 67.6723 3.50816 67.1955 3.79279C67.1813 3.79991 67.1599 3.81414 67.1457 3.82126C67.0746 3.86395 67.0105 3.91377 66.9393 3.95646C66.5978 4.16282 66.2704 4.38342 65.936 4.60401C65.8079 4.69652 65.6727 4.78191 65.5446 4.87442C65.2529 5.08078 64.9611 5.30137 64.6765 5.51485C64.5769 5.60736 64.463 5.69275 64.3491 5.78526C63.9649 6.09124 63.5877 6.41146 63.2177 6.73879C63.1892 6.76726 63.1608 6.79572 63.1252 6.82418C62.7908 7.13017 62.4634 7.44327 62.1432 7.76349C62.0365 7.87023 61.9297 7.98408 61.823 8.09082C61.5739 8.34699 61.3391 8.61028 61.1043 8.87357C61.0047 8.98743 60.8979 9.10128 60.7983 9.22225C60.5137 9.54959 60.2433 9.88404 59.98 10.2327C59.9444 10.2825 59.9017 10.3252 59.8661 10.375C59.5672 10.7664 59.2826 11.1649 59.0122 11.5705C58.9339 11.6844 58.8556 11.8053 58.7774 11.9263C58.5781 12.2252 58.386 12.5312 58.2081 12.8443C58.1298 12.9795 58.0444 13.1218 57.9662 13.257C57.774 13.5914 57.589 13.9401 57.4111 14.2817C57.3613 14.3813 57.3115 14.4738 57.2617 14.5734C57.0411 15.0146 56.8347 15.4629 56.6426 15.9255C56.5928 16.0393 56.5501 16.1532 56.5074 16.2599C56.3651 16.6157 56.2227 16.9715 56.0947 17.3344C56.0377 17.4839 55.9879 17.6404 55.9381 17.7898C55.8171 18.1456 55.7104 18.5014 55.6108 18.8572C55.5752 18.9924 55.5325 19.1205 55.4969 19.2557C55.3688 19.7396 55.2479 20.2306 55.1482 20.7287C55.134 20.8141 55.1198 20.8995 55.1055 20.9778C55.0273 21.3976 54.9561 21.8175 54.8921 22.2373C54.8707 22.401 54.8494 22.5575 54.828 22.7212C54.7853 23.0912 54.7426 23.4612 54.7142 23.8384C54.6999 23.9949 54.6857 24.1515 54.6786 24.308C54.6501 24.8275 54.6288 25.347 54.6288 25.8807V28.3499C54.6288 27.8233 54.6501 27.2967 54.6786 26.7773C54.6857 26.6207 54.6999 26.4642 54.7142 26.3076C54.7426 25.9305 54.7782 25.5604 54.828 25.1904C54.8494 25.0268 54.8707 24.8631 54.8921 24.7065C54.9561 24.2796 55.0273 23.8597 55.1055 23.447C55.1198 23.3616 55.134 23.2762 55.1482 23.198C55.2479 22.6998 55.3688 22.2088 55.4969 21.725C55.5325 21.5898 55.5752 21.4617 55.6108 21.3265C55.7104 20.9707 55.8243 20.6078 55.9381 20.2591C55.9879 20.1025 56.0448 19.9531 56.0947 19.8037C56.2227 19.4407 56.3579 19.0849 56.5074 18.7291C56.5501 18.6153 56.5928 18.5014 56.6426 18.3947C56.8347 17.9393 57.0411 17.491 57.2617 17.0427C57.3115 16.943 57.3613 16.8505 57.4111 16.7509C57.589 16.4022 57.774 16.0607 57.9662 15.7262C58.0444 15.591 58.1227 15.4487 58.2081 15.3135C58.3931 15.0004 58.5852 14.6944 58.7774 14.3955C58.8556 14.2746 58.9268 14.1607 59.0122 14.0397C59.2897 13.6341 59.5744 13.2285 59.8661 12.8443C59.9017 12.7945 59.9444 12.7518 59.98 12.7019C60.2433 12.3604 60.5208 12.0259 60.7983 11.6915C60.8979 11.5776 61.0047 11.4567 61.1043 11.3428C61.3391 11.0795 61.581 10.8162 61.823 10.5601C61.9297 10.4533 62.0365 10.3395 62.1432 10.2327C62.4634 9.9125 62.7908 9.5994 63.1252 9.29341C63.1537 9.26495 63.1821 9.23649 63.2177 9.20802C63.5806 8.88069 63.9649 8.56759 64.3491 8.25449C64.463 8.16198 64.5769 8.07659 64.6907 7.9912C64.9753 7.7706 65.2671 7.55713 65.5589 7.35076C65.6869 7.25826 65.815 7.16575 65.9502 7.08036C66.2776 6.85976 66.612 6.63917 66.9536 6.43281C67.039 6.383 67.1244 6.32607 67.2098 6.27626C67.6865 5.99162 68.1704 5.72121 68.6685 5.46504C68.7895 5.401 68.9105 5.34407 69.0314 5.28003C69.4797 5.05943 69.928 4.84595 70.3906 4.64671C70.4617 4.61824 70.54 4.58266 70.6112 4.54708C71.0524 4.36207 71.4935 4.19129 71.9419 4.02762C72.0486 3.99204 72.1482 3.95646 72.255 3.92088C72.6036 3.79991 72.9594 3.68606 73.3152 3.57932C73.4931 3.5295 73.671 3.47969 73.856 3.42988C74.1122 3.35872 74.3684 3.29468 74.6246 3.23064C74.8167 3.18082 75.0088 3.14524 75.201 3.10255C75.4571 3.04562 75.7133 2.99581 75.9695 2.946C76.1687 2.91042 76.3751 2.87484 76.5743 2.83926C76.8092 2.80368 77.0511 2.7681 77.2859 2.73252C77.4923 2.70406 77.7058 2.67559 77.9121 2.65424C78.1541 2.62578 78.396 2.60443 78.6379 2.58309C78.8301 2.56885 79.0222 2.55462 79.2143 2.54039C79.7765 2.50481 80.3458 2.48346 80.915 2.48346C81.2922 2.48346 81.6693 2.49769 82.0465 2.51193C82.3454 2.52616 82.6442 2.54751 82.9431 2.56885C83.0996 2.56885 83.2775 2.57597 83.4554 2.59732Z" fill="url(#paint4_linear)"/>
<path d="M80.9008 1.75806C95.4102 1.75806 107.18 13.3428 107.18 27.6316C107.18 39.5081 99.0536 49.506 87.9812 52.5516L80.9008 59.6106L73.7777 52.5943C62.748 49.506 54.6216 39.5081 54.6216 27.6316C54.6288 13.3428 66.3914 1.75806 80.9008 1.75806Z" fill="url(#paint5_linear)"/>
<path d="M80.9008 50.6509C93.638 50.6509 103.964 40.3253 103.964 27.5881C103.964 14.8509 93.638 4.52539 80.9008 4.52539C68.1636 4.52539 57.8381 14.8509 57.8381 27.5881C57.8381 40.3253 68.1636 50.6509 80.9008 50.6509Z" fill="url(#paint6_linear)"/>
<path d="M77.5869 20.8533H75.5756C75.3788 20.8533 75.2193 21.0128 75.2193 21.2096C75.2193 21.4064 75.3788 21.566 75.5756 21.566H76.2208V24.8516C76.2208 25.0484 76.3803 25.2079 76.5772 25.2079C76.774 25.2079 76.9335 25.0484 76.9335 24.8516V21.566H77.5869C77.7837 21.566 77.9432 21.4064 77.9432 21.2096C77.9432 21.0128 77.7837 20.8533 77.5869 20.8533Z" fill="#3F7000"/>
<path d="M79.4653 21.566H84.451C84.6478 21.566 84.8073 21.4064 84.8073 21.2096C84.8073 21.0128 84.6478 20.8533 84.451 20.8533H79.4653C79.2684 20.8533 79.1089 21.0128 79.1089 21.2096C79.1089 21.4064 79.2684 21.566 79.4653 21.566Z" fill="#3F7000"/>
<path d="M79.4653 23.3868H84.451C84.6478 23.3868 84.8073 23.2272 84.8073 23.0304C84.8073 22.8336 84.6478 22.6741 84.451 22.6741H79.4653C79.2684 22.6741 79.1089 22.8336 79.1089 23.0304C79.1089 23.2272 79.2684 23.3868 79.4653 23.3868Z" fill="#3F7000"/>
<path d="M79.4653 25.2081H84.451C84.6478 25.2081 84.8073 25.0485 84.8073 24.8517C84.8073 24.6549 84.6478 24.4954 84.451 24.4954H79.4653C79.2684 24.4954 79.1089 24.6549 79.1089 24.8517C79.1089 25.0485 79.2684 25.2081 79.4653 25.2081Z" fill="#3F7000"/>
<path d="M93.4502 24.2221L92.7675 23.5394C92.4828 23.2547 92.0221 23.2546 91.7373 23.5394L90.9907 24.286V22.6096C90.9907 22.1705 90.8197 21.7578 90.5093 21.4473L88.9875 19.9256V17.2443C88.9875 16.3379 88.2501 15.6006 87.3438 15.6006H73.1276C72.1057 15.6006 71.2744 16.4319 71.2744 17.4568V22.1941C71.2744 22.3909 71.4339 22.5504 71.6307 22.5504C71.8276 22.5504 71.9871 22.3909 71.9871 22.1941V17.4538C71.9871 16.8249 72.4987 16.3133 73.1306 16.3133H87.3439C87.8573 16.3133 88.2749 16.7309 88.2749 17.2443V19.2129L87.1471 18.0851C86.8367 17.7747 86.4239 17.6037 85.9849 17.6037H75.1337C74.1102 17.6037 73.2775 18.4364 73.2775 19.4599V37.2114H73.1276C72.4988 37.2114 71.9871 36.6997 71.9871 36.0678V23.8686C71.9871 23.6718 71.8276 23.5123 71.6308 23.5123C71.4339 23.5123 71.2744 23.6718 71.2744 23.8686V36.0709C71.2744 37.0927 72.1058 37.9241 73.1306 37.9241H73.2775V38.074C73.2775 39.0959 74.1089 39.9272 75.1308 39.9272H89.347C90.2533 39.9272 90.9907 39.1899 90.9907 38.2835V30.639L92.433 29.1967C92.813 28.8167 92.813 28.2018 92.433 27.8218L91.9152 27.304L92.4332 26.786C92.6254 26.5938 92.7277 26.3188 92.6815 26.021L93.4503 25.2522C93.7342 24.9683 93.7342 24.5062 93.4502 24.2221ZM86.8744 18.8203L88.379 20.325C88.3791 20.3251 88.3792 20.3252 88.3793 20.3253L89.774 21.72H87.3161C87.0725 21.72 86.8743 21.5218 86.8743 21.2782V18.8203H86.8744ZM91.9291 28.3258C92.0305 28.4272 92.0305 28.5913 91.929 28.6928L90.9907 29.6311V28.2286L91.4113 27.808L91.9291 28.3258ZM91.9292 26.2821L91.1593 27.052L84.5472 33.6642C84.408 33.8033 84.408 34.029 84.5472 34.1681C84.6864 34.3072 84.912 34.3072 85.0511 34.1681L90.278 28.9412V30.3438L88.6818 31.9399C88.5427 32.0791 88.5427 32.3047 88.6818 32.4438C88.8211 32.583 89.0466 32.583 89.1858 32.4438L90.2779 31.3517V38.2835C90.2779 38.7968 89.8603 39.2145 89.3469 39.2145H75.1307C74.5018 39.2145 73.9902 38.7029 73.9902 38.074V19.4599C73.9902 18.8294 74.5032 18.3164 75.1337 18.3164H85.9848C86.0448 18.3164 86.1039 18.3224 86.1617 18.3334V21.2782C86.1617 21.9148 86.6796 22.4327 87.3161 22.4327H90.261C90.2721 22.4904 90.278 22.5495 90.278 22.6096V24.4904C90.1968 24.5554 90.8224 23.9411 80.2588 34.5011C79.9866 34.7734 79.7783 35.0936 79.6399 35.453L78.9173 37.3284C78.8355 37.5406 78.8866 37.7815 79.0473 37.9423C79.2089 38.1039 79.45 38.1538 79.6612 38.0724L81.5367 37.3498C81.896 37.2113 82.2162 37.0031 82.4885 36.7308L83.8759 35.3434C84.0151 35.2042 84.0151 34.9786 83.8759 34.8394C83.7367 34.7003 83.5112 34.7002 83.3719 34.8394L82.2365 35.9749L81.0148 34.7532L90.7075 25.0604C90.7756 24.9923 90.8864 24.9922 90.9546 25.0604L91.9292 26.035C91.9963 26.1022 91.9984 26.2128 91.9292 26.2821ZM80.5334 35.2797L81.7099 36.4562C81.5771 36.5488 81.4337 36.6256 81.2805 36.6847L79.6935 37.2962L80.3049 35.7092C80.364 35.5559 80.4408 35.4125 80.5334 35.2797ZM92.9463 24.7484L92.2983 25.3963L91.5933 24.6912L92.2413 24.0433C92.2473 24.0372 92.2571 24.0369 92.2635 24.0433L92.9463 24.726C92.9524 24.7322 92.9524 24.7422 92.9463 24.7484Z" fill="#3F7000"/>
<defs>
<radialGradient id="paint0_radial" cx="0" cy="0" r="1" gradientUnits="userSpaceOnUse" gradientTransform="translate(84.8919 71.8989) rotate(90) scale(26.9343 79.5204)">
<stop stop-color="#4D8903"/>
<stop offset="0.0001" stop-opacity="0.78"/>
<stop offset="1" stop-color="white" stop-opacity="0"/>
</radialGradient>
<linearGradient id="paint1_linear" x1="31.7226" y1="52.7932" x2="134.213" y2="62.3881" gradientUnits="userSpaceOnUse">
<stop stop-color="#77CD05"/>
<stop offset="1" stop-color="#4D8903"/>
</linearGradient>
<linearGradient id="paint2_linear" x1="31.0608" y1="62.565" x2="131.645" y2="62.565" gradientUnits="userSpaceOnUse">
<stop offset="0.00744902" stop-color="#E7E7E7" stop-opacity="0"/>
<stop offset="0.4302" stop-color="white"/>
<stop offset="0.5508" stop-color="#F5F5F5" stop-opacity="0.7883"/>
<stop offset="0.7594" stop-color="#EAEAEA" stop-opacity="0.4223"/>
<stop offset="1" stop-color="#E7E7E7" stop-opacity="0"/>
</linearGradient>
<linearGradient id="paint3_linear" x1="86.1203" y1="61.4646" x2="98.1179" y2="46.5074" gradientUnits="userSpaceOnUse">
<stop stop-color="#B5B6BA"/>
<stop offset="0.3296" stop-color="#B8B9BD" stop-opacity="0.6629"/>
<stop offset="0.5748" stop-color="#C1C2C6" stop-opacity="0.4122"/>
<stop offset="0.792" stop-color="#D1D2D5" stop-opacity="0.19"/>
<stop offset="0.9778" stop-color="#E6E6E8" stop-opacity="0"/>
</linearGradient>
<linearGradient id="paint4_linear" x1="54.6288" y1="14.6432" x2="109.099" y2="18.4849" gradientUnits="userSpaceOnUse">
<stop stop-color="#77CD05"/>
<stop offset="1" stop-color="#4D8903"/>
</linearGradient>
<linearGradient id="paint5_linear" x1="54.6257" y1="30.6843" x2="107.18" y2="30.6843" gradientUnits="userSpaceOnUse">
<stop stop-color="#EEEFEF"/>
<stop offset="1" stop-color="white"/>
</linearGradient>
<linearGradient id="paint6_linear" x1="79.9831" y1="121.422" x2="81.2555" y2="-8.36648" gradientUnits="userSpaceOnUse">
<stop offset="0.5089" stop-color="#CFD0D2"/>
<stop offset="0.7253" stop-color="#F8F8F8"/>
</linearGradient>
</defs>
</svg>
